<?xml version="1.0" standalone="no"?>
<!DOCTYPE svg PUBLIC "-//W3C//DTD SVG 1.1//EN" "http://www.w3.org/Graphics/SVG/1.1/DTD/svg11.dtd" >
<svg xmlns="http://www.w3.org/2000/svg">
<metadata>Generated by IcoMoon</metadata>
<defs>
<font id="icomoon" horiz-adv-x="1024">
<font-face units-per-em="1024" ascent="960" descent="-64" />
<missing-glyph horiz-adv-x="1024" />
<glyph unicode="&#x20;" horiz-adv-x="512" d="" />
<glyph unicode="&#xe900;" glyph-name="add_1" d="M798.827 488.209h-251.979v246.618c0 21.445-10.723 42.89-37.529 42.89s-42.89-21.445-42.89-42.89v-246.618h-241.257c-21.445 0-42.89-10.723-42.89-37.529s21.445-42.89 42.89-42.89h241.257v-241.257c0-26.806 21.445-42.89 42.89-42.89s37.529 16.084 37.529 37.529v246.618h251.979c21.445 0 42.89 10.723 42.89 37.529s-21.445 42.89-42.89 42.89zM509.319 954.639c-278.785 0-509.319-219.812-509.319-509.319 0-278.785 225.173-509.319 509.319-509.319s509.319 225.173 509.319 509.319c0 278.785-225.173 509.319-509.319 509.319zM509.319 16.419c-235.895 0-428.901 193.005-428.901 428.901s193.005 428.901 428.901 428.901c235.895 0 428.901-193.005 428.901-428.901 0-230.534-187.644-428.901-428.901-428.901z" />
<glyph unicode="&#xe901;" d="M1024 448c0-282.77-229.23-512-512-512s-512 229.23-512 512c0 282.77 229.23 512 512 512s512-229.23 512-512z" />
<glyph unicode="&#xe902;" d="M803.032 491.116h-253.305v247.916c0 21.558-10.779 43.116-37.726 43.116s-43.116-21.558-43.116-43.116v-247.916h-242.526c-21.558 0-43.116-10.779-43.116-37.726s21.558-43.116 43.116-43.116h242.526v-242.526c0-26.947 21.558-43.116 43.116-43.116s37.726 16.168 37.726 37.726v247.916h253.305c21.558 0 43.116 10.779 43.116 37.726s-21.558 43.116-43.116 43.116z" />
<glyph unicode="&#xe903;" glyph-name="add" horiz-adv-x="1034" d="M952.32 529.92h-348.16v348.16c0 51.2-30.72 81.92-81.92 81.92s-81.92-40.96-81.92-81.92v-348.16h-337.92c-51.2 0-81.92-30.72-81.92-81.92s40.96-81.92 81.92-81.92h337.92v-337.92c0-51.2 40.96-81.92 81.92-81.92s81.92 30.72 81.92 81.92v337.92h348.16c40.96 0 81.92 30.72 81.92 81.92s-40.96 81.92-81.92 81.92z" />
<glyph unicode="&#xe904;" glyph-name="alarm-bell" horiz-adv-x="834" d="M414.595-64c-54.946 0-99.902 34.966-114.888 84.917-4.995 14.985 4.995 34.966 24.976 39.961 14.985 4.995 34.966-4.995 39.961-19.98 4.995-24.976 29.971-39.961 54.946-39.961 4.995 0 9.99 0 14.985 0 19.98 4.995 34.966 19.98 39.961 39.961 4.995 14.985 19.98 29.971 39.961 24.976s29.971-19.98 24.976-39.961c0 0 0 0 0-4.995-19.98-49.951-69.932-84.917-124.878-84.917v0zM29.971 125.815c-14.985 0-29.971 14.985-29.971 34.966 0 4.995 0 14.985 4.995 19.98 0 0 54.946 84.917 54.946 334.673 0 179.824 139.863 334.673 319.688 349.659v64.937c4.995 14.985 19.98 29.971 34.966 29.971 19.98 0 34.966-14.985 34.966-29.971v-69.932c179.824-14.985 319.688-169.834 319.688-349.659 0-269.737 54.946-329.678 54.946-329.678 9.99-9.99 14.985-24.976 9.99-34.966s-14.985-19.98-29.971-19.98h-774.244zM744.273 190.751c-34.966 104.898-44.956 209.795-39.961 319.688 0 159.844-129.873 289.717-289.717 289.717s-284.722-129.873-284.722-289.717c4.995-109.893-9.99-214.79-44.956-319.688h659.356z" />
<glyph unicode="&#xe905;" d="M512-64c-281.6 0-512 230.4-512 512s230.4 512 512 512 512-230.4 512-512-230.4-512-512-512zM512 896c-247.467 0-448-200.533-448-448s200.533-448 448-448 448 200.533 448 448-200.533 448-448 448z" />
<glyph unicode="&#xe906;" d="M669.867 256c-29.867 0-55.467 12.8-76.8 34.133l-85.333 106.667-85.333-106.667c-17.067-21.333-46.933-34.133-76.8-34.133h-93.867c-34.133 0-64 29.867-64 64 0 17.067 4.267 29.867 12.8 42.667l251.733 302.933c21.333 25.6 64 29.867 89.6 8.533v0c4.267-4.267 4.267-4.267 8.533-8.533l251.733-302.933c21.333-25.6 21.333-68.267-4.267-89.6-12.8-8.533-25.6-17.067-42.667-17.067h-85.333zM512 482.133c8.533 0 17.067-4.267 25.6-12.8l106.667-136.533c4.267-8.533 17.067-12.8 25.6-12.8h93.867l-251.733 302.933-251.733-302.933h93.867c8.533 0 17.067 4.267 25.6 12.8l106.667 136.533c8.533 4.267 17.067 12.8 25.6 12.8z" />
<glyph unicode="&#xe907;" horiz-adv-x="1098" d="M320-64h457.6c176 0 320 144 320 320v384c0 176-144 320-320 320h-457.6c-176 0-320-144-320-320v-384c0-176 144-320 320-320zM32 640c0 160 128 288 288 288h457.6c160 0 288-128 288-288v-384c0-160-128-288-288-288h-457.6c-160 0-288 128-288 288v384z" />
<glyph unicode="&#xe908;" horiz-adv-x="1098" d="M659.2 614.4l-137.6-172.8 137.6-172.8c3.2-6.4 3.2-12.8-3.2-19.2-3.2-3.2-6.4-3.2-6.4-3.2h-89.6c-6.4 0-16 3.2-19.2 9.6l-140.8 176c-3.2 3.2-3.2 12.8 0 16l140.8 176c6.4 6.4 12.8 9.6 19.2 9.6h89.6c6.4 0 12.8-6.4 12.8-12.8 0-3.2-3.2-3.2-3.2-6.4v0z" />
<glyph unicode="&#xe909;" horiz-adv-x="1098" d="M777.6 960h-457.6c-176 0-320-144-320-320v-384c0-176 144-320 320-320h457.6c176 0 320 144 320 320v384c0 176-144 320-320 320zM1065.6 256c0-160-128-288-288-288h-457.6c-160 0-288 128-288 288v384c0 160 128 288 288 288h457.6c160 0 288-128 288-288v-384z" />
<glyph unicode="&#xe90a;" horiz-adv-x="1098" d="M438.4 281.6l137.6 172.8-137.6 172.8c-3.2 6.4-3.2 12.8 3.2 19.2 3.2 3.2 6.4 3.2 6.4 3.2h89.6c6.4 0 16-3.2 19.2-9.6l140.8-176c3.2-3.2 3.2-12.8 0-16l-140.8-176c-6.4-6.4-12.8-9.6-19.2-9.6h-89.6c-6.4 0-12.8 6.4-12.8 12.8 0 3.2 3.2 3.2 3.2 6.4v0z" />
<glyph unicode="&#xe90b;" d="M384 132.267c-34.133 0-64 29.867-64 64v93.867c0 29.867 12.8 55.467 34.133 76.8l106.667 85.333-106.667 85.333c-21.333 17.067-34.133 46.933-34.133 76.8v93.867c0 34.133 29.867 64 64 64 17.067 0 29.867-4.267 42.667-12.8l302.933-251.733c25.6-21.333 29.867-64 8.533-89.6-4.267-4.267-4.267-4.267-8.533-8.533l-302.933-251.733c-12.8-21.333-25.6-25.6-42.667-25.6zM384 699.733v-93.867c0-8.533 4.267-17.067 12.8-25.6l136.533-106.667c12.8-12.8 17.067-29.867 4.267-46.933l-4.267-4.267-136.533-110.933c-8.533-4.267-12.8-17.067-12.8-25.6v-93.867l302.933 251.733-302.933 256z" />
<glyph unicode="&#xe90c;" d="M512-64c-281.6 0-512 230.4-512 512s230.4 512 512 512 512-230.4 512-512-230.4-512-512-512zM512 896c-247.467 0-448-200.533-448-448s200.533-448 448-448 448 200.533 448 448-200.533 448-448 448z" />
<glyph unicode="&#xe90d;" d="M196.267 576c0 34.133 29.867 64 64 64h93.867c29.867 0 55.467-12.8 76.8-34.133l85.333-106.667 85.333 106.667c17.067 21.333 46.933 34.133 76.8 34.133h93.867c34.133 0 64-29.867 64-64 0-17.067-4.267-29.867-12.8-42.667l-251.733-302.933c-21.333-25.6-64-29.867-89.6-8.533-4.267 4.267-4.267 4.267-8.533 8.533l-251.733 302.933c-21.333 12.8-25.6 25.6-25.6 42.667zM763.733 576h-93.867c-8.533 0-17.067-4.267-25.6-12.8l-106.667-136.533c-12.8-12.8-29.867-17.067-46.933-4.267l-4.267 4.267-106.667 136.533c-4.267 8.533-17.067 12.8-25.6 12.8h-93.867l251.733-302.933 251.733 302.933z" />
<glyph unicode="&#xe90e;" d="M0 448c0 281.6 230.4 512 512 512s512-230.4 512-512-230.4-512-512-512-512 230.4-512 512zM960 448c0 247.467-200.533 448-448 448s-448-200.533-448-448 200.533-448 448-448 448 200.533 448 448z" />
<glyph unicode="&#xe90f;" d="M640 763.733c34.133 0 64-29.867 64-64v-93.867c0-29.867-12.8-55.467-34.133-76.8l-106.667-85.333 106.667-85.333c21.333-17.067 34.133-46.933 34.133-76.8v-93.867c0-34.133-29.867-64-64-64-17.067 0-29.867 4.267-42.667 12.8l-302.933 251.733c-25.6 21.333-29.867 64-8.533 89.6 4.267 4.267 4.267 4.267 8.533 8.533l302.933 251.733c12.8 21.333 25.6 25.6 42.667 25.6zM640 196.267v93.867c0 8.533-4.267 17.067-12.8 25.6l-136.533 106.667c-12.8 12.8-17.067 29.867-4.267 46.933l4.267 4.267 136.533 110.933c8.533 4.267 12.8 17.067 12.8 25.6v93.867l-302.933-251.733 302.933-256z" />
<glyph unicode="&#xe910;" d="M512 960c281.6 0 512-230.4 512-512s-230.4-512-512-512-512 230.4-512 512 230.4 512 512 512zM512 0c247.467 0 448 200.533 448 448s-200.533 448-448 448-448-200.533-448-448 200.533-448 448-448z" />
<glyph unicode="&#xe911;" glyph-name="arrow-button-down" horiz-adv-x="1535" d="M16.117 754.514l702.414-797.472c12.428-12.917 29.862-20.941 49.171-20.941s36.742 8.024 49.15 20.919l0.021 0.022 702.116 797.472c9.873 11.089 15.905 25.786 15.905 41.892 0 19.469-8.814 36.879-22.669 48.458l-0.1 0.081-118.338 99.535c-11.356 9.583-26.155 15.407-42.314 15.407-19.758 0-37.482-8.707-49.545-22.493l-0.065-0.076-521.998-604.372c-2.945-3.398-7.267-5.534-12.087-5.534s-9.143 2.136-12.071 5.514l-0.017 0.020-522.297 604.372c-11.061 12.709-26.826 21.076-44.555 22.372l-0.214 0.013c-1.808 0.181-3.908 0.285-6.031 0.285-15.839 0-30.335-5.752-41.512-15.282l0.089 0.074-118.338-99.684c-13.919-11.686-22.705-29.095-22.705-48.556 0-16.090 6.006-30.777 15.898-41.942l-0.058 0.066z" />
<glyph unicode="&#xe912;" glyph-name="arrow-button-left" horiz-adv-x="686" d="M268.427 443.029c0 0 0 9.942 0 19.883 0 0 0 0 0 0l407.612 347.961c9.942 9.942 9.942 19.883 9.942 29.825s0 19.883-9.942 29.825l-69.592 69.592c-19.883 19.883-39.767 29.825-59.65 9.942 0 0 0 0 0 0v0l-536.854-467.262c-9.942-19.883-9.942-49.709 0-69.592 0 0 0 0 0 0l526.913-467.262c19.883-19.883 39.767-9.942 59.65 0 0 0 0 0 0 0l69.592 79.534c19.883 19.883 9.942 49.709 0 59.65l-397.67 357.903z" />
<glyph unicode="&#xe913;" glyph-name="arrow-button-right" horiz-adv-x="686" d="M666.097 482.796c0 0 0 0 0 0l-526.913 467.262c-19.883 9.942-49.709 9.942-59.65 0 0 0 0 0 0 0l-69.592-79.534c-19.883-19.883-9.942-49.709 0-59.65l407.612-347.961c0 0 0-9.942 0-19.883 0 0 0 0 0 0l-397.67-347.961c-9.942-9.942-19.883-19.883-19.883-29.825s0-19.883 9.942-29.825l69.592-79.534c19.883-19.883 39.767-19.883 59.65-9.942 0 0 0 0 0 0v0l526.913 467.262c19.883 19.883 19.883 49.709 0 69.592z" />
<glyph unicode="&#xe914;" glyph-name="arrow-button-up" horiz-adv-x="1529" d="M1513.739 143.768c0 0 0 0 0 0v0l-697.507 801.391c-29.681 14.841-74.203 14.841-103.884 0 0 0 0 0 0 0l-697.507-801.391c-14.841-29.681-14.841-59.362 0-89.043 0 0 0 0 0 0l118.725-103.884c29.681-29.681 74.203-14.841 89.043 0l519.42 608.464c0 0 14.841 0 29.681 0 0 0 0 0 0 0l519.42-608.464c14.841 0 29.681-14.841 44.522-14.841s29.681 0 44.522 14.841l118.725 103.884c29.681 29.681 29.681 59.362 14.841 89.043z" />
<glyph unicode="&#xe915;" glyph-name="arrow-double-down" horiz-adv-x="1210" d="M1172.945 960c-18.618 0-37.236 0-55.855-18.618l-521.309-409.6-502.691 409.6c-18.618 18.618-55.855 18.618-55.855 18.618-18.618-18.618-37.236-37.236-37.236-74.473v-428.218c0-37.236 18.618-93.091 55.855-111.709l484.073-390.982c37.236-37.236 74.473-37.236 111.709 0l484.073 390.982c37.236 37.236 55.855 74.473 55.855 111.709v428.218c18.618 37.236 0 55.855-18.618 74.473z" />
<glyph unicode="&#xe916;" glyph-name="arrow-double-left-1" horiz-adv-x="866" d="M866.462 14.769l-362.338 441.108 346.585 441.108c15.754 15.754 15.754 31.508 0 47.262 0 0-15.754 15.754-47.262 15.754h-346.585c-47.262 0-78.769-15.754-94.523-47.262l-346.585-409.6c-15.754-31.508-15.754-78.769 0-110.277l330.831-409.6c31.508-31.508 63.015-47.262 94.523-47.262h362.338c15.754 0 31.508 15.754 47.262 31.508s15.754 31.508 15.754 47.262z" />
<glyph unicode="&#xe917;" glyph-name="arrow-double-left" horiz-adv-x="1812" d="M504.123 455.877l346.585 441.108c15.754 15.754 15.754 31.508 0 47.262 0 0-15.754 15.754-47.262 15.754h-346.585c-47.262 0-78.769-15.754-94.523-47.262l-346.585-409.6c-15.754-31.508-15.754-78.769 0-110.277l330.831-409.6c31.508-31.508 63.015-47.262 94.523-47.262h362.338c15.754 0 31.508 15.754 47.262 31.508s15.754 31.508 0 47.262l-346.585 441.108zM1811.692 14.769l-362.338 441.108 346.585 441.108c15.754 15.754 15.754 31.508 0 47.262 0 0-15.754 15.754-47.262 15.754h-346.585c-47.262 0-78.769-15.754-94.523-47.262l-346.585-409.6c-15.754-31.508-15.754-78.769 0-110.277l330.831-409.6c31.508-31.508 63.015-47.262 94.523-47.262h362.338c15.754 0 31.508 15.754 47.262 31.508s15.754 31.508 15.754 47.262z" />
<glyph unicode="&#xe918;" glyph-name="arrow-double-right-1" horiz-adv-x="866" d="M850.708 503.138l-330.831 409.6c-31.508 31.508-63.015 47.262-110.277 47.262h-346.585c-31.508 0-47.262-15.754-63.015-31.508 0 0 0-31.508 15.754-47.262l346.585-441.108-346.585-425.354c-15.754-15.754-15.754-31.508-15.754-47.262 15.754-15.754 31.508-31.508 47.262-31.508h362.338c31.508 0 78.769 15.754 94.523 47.262l330.831 409.6c47.262 31.508 47.262 78.769 15.754 110.277z" />
<glyph unicode="&#xe919;" glyph-name="arrow-double-right" horiz-adv-x="1812" d="M1795.938 503.138l-330.831 409.6c-31.508 31.508-63.015 47.262-110.277 47.262h-346.585c-31.508 0-47.262-15.754-63.015-31.508 0 0 0-31.508 15.754-47.262l346.585-441.108-346.585-425.354c-15.754-15.754-15.754-31.508-15.754-47.262 15.754-15.754 31.508-31.508 47.262-31.508h362.338c31.508 0 78.769 15.754 94.523 47.262l330.831 409.6c47.262 31.508 47.262 78.769 15.754 110.277zM519.877 912.738c-31.508 31.508-63.015 47.262-110.277 47.262h-346.585c-31.508 0-47.262-15.754-63.015-31.508 0 0 0-31.508 15.754-47.262l346.585-441.108-346.585-425.354c-15.754-15.754-15.754-31.508-15.754-47.262 15.754-15.754 31.508-31.508 47.262-31.508h362.338c31.508 0 78.769 15.754 94.523 47.262l330.831 409.6c31.508 31.508 31.508 63.015 0 94.523l-315.077 425.354z" />
<glyph unicode="&#xe91a;" glyph-name="arrow-double-up" horiz-adv-x="1203" d="M601.064 363.023l-517.294-416.807c-7.811-6.644-18.014-10.686-29.162-10.686-9.984 0-19.212 3.242-26.687 8.731l0.126-0.088c-17.18 13.729-28.091 34.681-28.091 58.181 0 0.899 0.016 1.794 0.048 2.686l-0.004-0.129v420.522c-0.034 1.183-0.053 2.576-0.053 3.973 0 44.848 19.721 85.090 50.963 112.528l0.169 0.145 491.847 396.375c15.678 13.397 36.188 21.549 58.602 21.549s42.924-8.152 58.727-21.653l-0.125 0.104 491.475-396.561c31.411-27.583 51.132-67.825 51.132-112.674 0-1.397-0.019-2.79-0.057-4.177l0.004 0.205v-420.336c0.019-0.622 0.029-1.355 0.029-2.089 0-23.66-11.060-44.737-28.291-58.344l-0.157-0.119c-7.326-5.348-16.51-8.557-26.443-8.557-11.202 0-21.451 4.081-29.341 10.837l0.061-0.051z" />
<glyph unicode="&#xe91b;" glyph-name="bin-1" d="M989.034 825.132h-274.732v29.971c0 54.946-44.956 99.902-99.902 99.902h-204.8c-54.946 0-104.898-44.956-104.898-99.902v-34.966h-269.737c0 0 0 0-4.995 0-14.985 4.995-29.971-14.985-29.971-29.971 0-19.98 14.985-34.966 34.966-34.966h69.932l59.941-724.293c4.995-54.946 49.951-94.907 99.902-94.907h489.522c54.946 0 94.907 39.961 99.902 94.907l59.941 724.293h69.932c0 0 0 0 4.995 0 19.98 0 34.966 14.985 34.966 34.966s-14.985 34.966-34.966 34.966zM374.634 855.102c0 19.98 14.985 34.966 34.966 34.966h204.8c19.98 0 34.966-14.985 34.966-34.966v-34.966h-274.732v34.966zM789.229 35.902c0-19.98-14.985-29.971-34.966-29.971h-484.527c-19.98 0-34.966 14.985-34.966 29.971l-59.941 719.298h674.341l-59.941-719.298zM409.6 175.766c19.98 0 34.966 14.985 34.966 34.966v339.668c0 19.98-14.985 29.971-34.966 34.966-19.98 0-34.966-14.985-34.966-34.966v-339.668c0-19.98 14.985-34.966 34.966-34.966zM614.4 175.766c19.98 0 34.966 14.985 34.966 34.966v339.668c0 0 0 0 0 4.995 0 19.98-14.985 34.966-34.966 34.966s-34.966-14.985-34.966-34.966v-344.663c0-19.98 14.985-34.966 34.966-34.966z" />
<glyph unicode="&#xe91c;" glyph-name="Burgermenu_1" horiz-adv-x="2822" d="M2768.593 49.778h-1479.111c-30.341 0-60.681-22.756-60.681-60.681 0-30.341 22.756-60.681 60.681-60.681h1479.111c30.341 0 60.681 22.756 60.681 60.681-7.585 37.926-30.341 60.681-60.681 60.681zM2768.593 504.889h-1479.111c-30.341 0-60.681-22.756-60.681-60.681 0-30.341 22.756-60.681 60.681-60.681h1479.111c30.341 0 60.681 22.756 60.681 60.681-7.585 37.926-30.341 60.681-60.681 60.681zM1289.481 846.222h1479.111c30.341 0 60.681 22.756 60.681 60.681 0 30.341-22.756 60.681-60.681 60.681h-1479.111c-30.341 0-60.681-22.756-60.681-60.681s30.341-60.681 60.681-60.681zM204.8 451.793l310.993 265.481c0 0 7.585 15.17 7.585 22.756s0 15.17-7.585 22.756l-53.096 60.681c-15.17 15.17-30.341 15.17-45.511 0 0 0 0 0 0 0v0l-409.6-356.504c-7.585-15.17-7.585-30.341 0-45.511 0 0 0 0 0 0l402.015-356.504c15.17-15.17 30.341-7.585 45.511 0 0 0 0 0 0 0l60.681 60.681c15.17 15.17 7.585 37.926 0 45.511l-310.993 265.481c-7.585 0-7.585 7.585 0 15.17 0 0 0 0 0 0z" />
<glyph unicode="&#xe91d;" glyph-name="Burgermenu_2" horiz-adv-x="1593" d="M1532.207 49.778h-1471.526c-37.926 0-60.681-22.756-60.681-60.681 0-30.341 22.756-60.681 60.681-60.681h1479.111c30.341 0 60.681 22.756 60.681 60.681-7.585 37.926-30.341 60.681-68.267 60.681zM1532.207 504.889h-1471.526c-37.926 0-60.681-22.756-60.681-60.681 0-30.341 22.756-60.681 60.681-60.681h1479.111c30.341 0 60.681 22.756 60.681 60.681-7.585 37.926-30.341 60.681-68.267 60.681zM60.681 846.222h1479.111c30.341 0 60.681 22.756 60.681 60.681-7.585 30.341-30.341 53.096-68.267 53.096h-1471.526c-37.926 0-60.681-22.756-60.681-60.681 0-30.341 22.756-53.096 60.681-53.096z" />
<glyph unicode="&#xe91e;" glyph-name="check_1" horiz-adv-x="1211" d="M1203.305 801.94l-149.726 150.184c-4.858 4.873-11.578 7.888-19.002 7.888s-14.144-3.015-19.001-7.887l-632.332-632.789c-4.858-4.873-11.578-7.888-19.002-7.888s-14.144 3.015-19.001 7.887l-0.001 0.001-149.726 150.093c-4.858 4.873-11.578 7.888-19.002 7.888s-14.144-3.015-19.001-7.887l-0.001-0.001-149.726-150.093c-4.846-4.854-7.842-11.555-7.842-18.956s2.997-14.102 7.843-18.957v0l337.457-337.457c4.858-4.873 11.578-7.888 19.002-7.888s14.144 3.015 19.001 7.887l820.062 820.52c4.737 4.835 7.661 11.463 7.661 18.773s-2.924 13.938-7.665 18.778l0.004-0.005z" />
<glyph unicode="&#xe91f;" d="M1023.953 448.023c0-282.757-229.22-511.977-511.977-511.977s-511.977 229.22-511.977 511.977c0 282.757 229.22 511.977 511.977 511.977s511.977-229.22 511.977-511.977z" />
<glyph unicode="&#xe920;" d="M821.708 629.655l-76.775 77.010c-2.491 2.499-5.937 4.045-9.744 4.045s-7.252-1.546-9.743-4.044v0l-324.241-324.476c-2.491-2.499-5.937-4.045-9.744-4.045s-7.252 1.546-9.743 4.044v0l-76.775 76.963c-2.491 2.499-5.937 4.045-9.744 4.045s-7.252-1.546-9.743-4.044v0l-76.775-76.963c-2.485-2.489-4.021-5.925-4.021-9.72s1.537-7.231 4.021-9.72v0l173.038-173.038c2.491-2.499 5.937-4.045 9.744-4.045s7.252 1.546 9.743 4.044v0l420.504 420.738c2.429 2.479 3.928 5.878 3.928 9.626s-1.499 7.147-3.931 9.629l0.002-0.002z" />
<glyph unicode="&#xe921;" d="M1023.953 448.023c0-282.757-229.22-511.977-511.977-511.977s-511.977 229.22-511.977 511.977c0 282.757 229.22 511.977 511.977 511.977s511.977-229.22 511.977-511.977z" />
<glyph unicode="&#xe922;" d="M821.708 629.655l-76.775 77.010c-2.491 2.499-5.937 4.045-9.744 4.045s-7.252-1.546-9.743-4.044v0l-324.241-324.476c-2.491-2.499-5.937-4.045-9.744-4.045s-7.252 1.546-9.743 4.044v0l-76.775 76.963c-2.491 2.499-5.937 4.045-9.744 4.045s-7.252-1.546-9.743-4.044v0l-76.775-76.963c-2.485-2.489-4.021-5.925-4.021-9.72s1.537-7.231 4.021-9.72v0l173.038-173.038c2.491-2.499 5.937-4.045 9.744-4.045s7.252 1.546 9.743 4.044v0l420.504 420.738c2.429 2.479 3.928 5.878 3.928 9.626s-1.499 7.147-3.931 9.629l0.002-0.002z" />
<glyph unicode="&#xe923;" d="M338.11 960h347.78c186.733 0 338.11-151.377 338.11-338.11v-347.78c0-186.733-151.377-338.11-338.11-338.11h-347.78c-186.733 0-338.11 151.377-338.11 338.11v347.78c0 186.733 151.377 338.11 338.11 338.11z" />
<glyph unicode="&#xe924;" d="M879.627 679.301l-88.382 88.517c-2.864 2.865-6.821 4.637-11.191 4.637s-8.328-1.772-11.191-4.637l-372.8-373.071c-2.864-2.865-6.821-4.637-11.191-4.637s-8.328 1.772-11.191 4.637v0l-88.314 88.585c-2.864 2.865-6.821 4.637-11.191 4.637s-8.328-1.772-11.191-4.637v0l-88.247-88.585c-2.865-2.864-4.637-6.821-4.637-11.191s1.772-8.328 4.637-11.191l198.944-198.944c2.864-2.865 6.821-4.637 11.191-4.637s8.328 1.772 11.191 4.637l483.565 483.768c2.785 2.85 4.503 6.752 4.503 11.056s-1.718 8.207-4.506 11.059l0.003-0.003z" />
<glyph unicode="&#xe925;" d="M1023.915 448.042c0-282.746-229.211-511.958-511.958-511.958s-511.958 229.211-511.958 511.958c0 282.746 229.211 511.958 511.958 511.958s511.958-229.211 511.958-511.958z" />
<glyph unicode="&#xe926;" d="M716.842 448.042c0-113.108-91.692-204.8-204.8-204.8s-204.8 91.692-204.8 204.8c0 113.108 91.692 204.8 204.8 204.8s204.8-91.692 204.8-204.8z" />
<glyph unicode="&#xe927;" d="M1024 448c0-282.77-229.23-512-512-512s-512 229.23-512 512c0 282.77 229.23 512 512 512s512-229.23 512-512z" />
<glyph unicode="&#xe928;" d="M678.234 321.662l-119.688 119.688 119.688 126.338c13.299 13.299 13.299 33.247 0 46.545s-33.247 13.299-46.545 0l-119.688-119.688-119.688 119.688c-13.299 13.299-33.247 13.299-46.545 0s-13.299-33.247 0-46.545l119.688-119.688-119.688-119.688c-13.299-13.299-13.299-33.247 0-46.545 6.649-6.649 19.948-6.649 26.597-6.649s19.948 0 26.597 6.649l119.688 119.688 119.688-119.688c6.649-6.649 19.948-6.649 26.597-6.649s19.948 0 26.597 6.649c6.649 6.649 6.649 33.247-13.299 39.896z" />
<glyph unicode="&#xe929;" d="M1023.76 446.952c0-282.77-229.23-512-512-512s-512 229.23-512 512c0 282.77 229.23 512 512 512s512-229.23 512-512z" />
<glyph unicode="&#xe92a;" d="M559.667 431.981l119.766 119.766c8.982 8.982 8.982 23.953 0 32.936s-23.953 8.982-32.936 0l-119.766-119.766-119.766 119.766c-8.982 8.982-23.953 8.982-32.936 0s-8.982-23.953 0-32.936l122.76-119.766-119.766-119.766c-8.982-8.982-8.982-23.953 0-32.936 2.994-2.994 8.982-5.988 14.971-5.988s8.982 2.994 17.965 5.988l119.766 119.766 119.766-119.766c2.994-2.994 8.982-5.988 14.971-5.988s11.977 2.994 17.965 5.988c8.982 8.982 8.982 23.953 0 32.936l-122.76 119.766z" />
<glyph unicode="&#xe92b;" glyph-name="cog-double-2" d="M674.133 332.8c17.067 17.067 29.867 38.4 29.867 64 0 46.933-38.4 89.6-85.333 89.6 0 0-4.267 0-4.267 0h-42.667c-4.267 0-12.8 4.267-17.067 8.533s-4.267 12.8-4.267 17.067v38.4c0 25.6-8.533 51.2-29.867 68.267-38.4 29.867-93.867 29.867-123.733-8.533l-25.6-29.867c0 0 0 0 0 0-8.533-4.267-12.8-4.267-21.333-4.267v0c-4.267 0-12.8 0-17.067 4.267l-25.6 29.867c-17.067 21.333-38.4 29.867-64 29.867h-4.267c-46.933-4.267-85.333-42.667-85.333-93.867v-38.4c0 0 0 0 0-4.267 0-12.8-12.8-21.333-25.6-21.333h-38.4c-25.6 0-46.933-8.533-64-29.867-34.133-34.133-29.867-89.6 4.267-123.733l29.867-25.6c0 0 0 0 0 0 8.533-8.533 8.533-25.6 0-34.133l-29.867-25.6c-17.067-17.067-29.867-38.4-29.867-64 0-46.933 38.4-89.6 89.6-89.6h46.933c12.8 0 21.333-12.8 21.333-25.6v-38.4c0-25.6 8.533-51.2 29.867-68.267 34.133-34.133 89.6-29.867 123.733 8.533l25.6 29.867c0 0 0 0 0 0 8.533 8.533 25.6 8.533 34.133 0l25.6-29.867c17.067-17.067 38.4-29.867 64-29.867 0 0 4.267 0 4.267 0 46.933 4.267 85.333 42.667 81.067 93.867v38.4c0 0 0 0 0 4.267 0 12.8 12.8 21.333 25.6 21.333h46.933c25.6 0 46.933 8.533 64 29.867 34.133 34.133 29.867 89.6-4.267 123.733l-29.867 25.6c0 0 0 0 0 0-8.533 8.533-8.533 25.6 0 34.133l25.6 25.6zM631.467 379.733l-29.867-25.6c-34.133-34.133-38.4-89.6-4.267-123.733 0-4.267 4.267-4.267 4.267-4.267l29.867-25.6c4.267-4.267 8.533-12.8 8.533-17.067 0-12.8-12.8-25.6-25.6-25.6v0h-38.4c0 0-4.267 0-4.267 0-46.933 0-85.333-38.4-89.6-85.333 0-4.267 0-4.267 0-8.533v-38.4c0-12.8-8.533-25.6-21.333-25.6v0c-8.533 0-12.8 4.267-17.067 8.533l-25.6 29.867c-17.067 17.067-38.4 25.6-59.733 29.867h-8.533c-21.333 0-42.667-8.533-59.733-21.333 0 0-4.267-4.267-4.267-4.267l-25.6-29.867c-4.267-4.267-12.8-8.533-17.067-8.533-12.8 0-21.333 12.8-21.333 25.6v38.4c4.267 46.933-34.133 89.6-85.333 93.867h-4.267c0 0-4.267 0-4.267 0h-42.667c-8.533 0-12.8 4.267-17.067 8.533-8.533 8.533-8.533 25.6 0 34.133l29.867 25.6c34.133 34.133 38.4 89.6 4.267 123.733 0 4.267-4.267 4.267-4.267 4.267l-29.867 25.6c-4.267 4.267-8.533 12.8-8.533 17.067 0 12.8 12.8 25.6 25.6 25.6h42.667c0 0 4.267 0 4.267 0 46.933 0 85.333 38.4 85.333 85.333 0 4.267 0 4.267 0 8.533v38.4c0 4.267 0 12.8 4.267 17.067 8.533-4.267 12.8 0 21.333 0v0c4.267 0 12.8-4.267 17.067-8.533l25.6-29.867c17.067-17.067 38.4-25.6 59.733-29.867 0 0 4.267 0 4.267 0 21.333 0 42.667 8.533 59.733 21.333 0 0 4.267 4.267 4.267 4.267l25.6 29.867c8.533 12.8 17.067 12.8 21.333 12.8 12.8 0 21.333-12.8 21.333-25.6v-38.4c0 0 0 0 0 0-4.267-46.933 34.133-89.6 81.067-93.867 0 0 4.267 0 4.267 0s4.267 0 4.267 0h42.667c4.267 0 12.8-4.267 17.067-4.267 0 0 0 0 0 0 12.8-8.533 8.533-25.6 0-34.133zM349.867 401.067c-59.733 0-110.933-51.2-110.933-110.933s51.2-110.933 110.933-110.933c59.733 0 110.933 51.2 110.933 110.933 4.267 59.733-46.933 110.933-110.933 110.933zM349.867 238.933c-25.6 0-46.933 21.333-46.933 46.933s21.333 46.933 46.933 46.933c25.6 0 46.933-21.333 46.933-46.933 4.267-25.6-17.067-46.933-46.933-46.933zM840.533 729.6c0-25.921-21.013-46.933-46.933-46.933s-46.933 21.013-46.933 46.933c0 25.921 21.013 46.933 46.933 46.933s46.933-21.013 46.933-46.933zM998.4 738.133l-46.933 38.4 21.333 55.467c8.533 12.8 8.533 29.867 4.267 42.667-12.8 34.133-51.2 51.2-81.067 38.4l-55.467-21.333-38.4 46.933c-8.533 12.8-25.6 21.333-38.4 21.333-4.267 0-8.533 0-8.533 0-29.867 0-59.733-21.333-64-55.467l-8.533-59.733-59.733-8.533c-17.067-4.267-29.867-8.533-38.4-21.333-25.6-25.6-21.333-68.267 4.267-89.6l46.933-38.4-21.333-55.467c-4.267-12.8-4.267-29.867 0-46.933 12.8-34.133 51.2-51.2 81.067-38.4l55.467 21.333 38.4-46.933c8.533-12.8 25.6-21.333 38.4-21.333 4.267 0 8.533 0 8.533 0v0c29.867 0 59.733 21.333 64 55.467l8.533 59.733 59.733 8.533c17.067 4.267 29.867 12.8 38.4 21.333 25.6 29.867 21.333 72.533-8.533 93.867zM900.267 678.4c-25.6-4.267-51.2-25.6-55.467-55.467l-8.533-59.733-38.4 46.933c-12.8 17.067-29.867 25.6-51.2 25.6-8.533 0-17.067 0-21.333-4.267l-55.467-21.333 21.333 55.467c8.533 25.6 4.267 55.467-21.333 72.533l-46.933 38.4 59.733 8.533c25.6 4.267 51.2 25.6 51.2 55.467l8.533 59.733 38.4-46.933c12.8-17.067 29.867-25.6 51.2-25.6 8.533 0 17.067 0 21.333 4.267l55.467 21.333-12.8-55.467c-8.533-25.6-4.267-55.467 21.333-72.533l46.933-38.4-64-8.533z" />
<glyph unicode="&#xe92c;" glyph-name="cog" d="M943.158 410.274c-5.389 0-5.389 0 0 0-21.558 26.947-21.558 59.284 0 75.453l43.116 43.116c26.947 21.558 37.726 53.895 37.726 86.232 0 64.674-53.895 113.179-113.179 113.179h-5.389l-59.284-5.389c-26.947 0-48.505 26.947-48.505 53.895l5.389 59.284c0 0 0 5.389 0 5.389 0 64.674-53.895 113.179-113.179 113.179h-5.389c-32.337 0-59.284-16.168-80.842-37.726l-43.116-43.116c0 0 0 0-5.389-5.389-16.168-5.389-32.337-5.389-43.116-5.389h-5.389c-10.779 0-21.558 5.389-32.337 16.168l-43.116 43.116c-21.558 21.558-48.505 37.726-80.842 37.726h-5.389c-64.674-5.389-113.179-59.284-107.789-118.568l5.389-59.284c0 0 0-5.389 0-5.389 0-26.947-21.558-48.505-53.895-48.505 0 0 0 0 0 0h-75.453c-32.337 0-59.284-16.168-80.842-37.726-43.116-48.505-37.726-118.568 5.389-161.684l43.116-43.116c0 0 0 0 5.389-5.389 21.558-21.558 16.168-53.895-5.389-75.453l-43.116-37.726c-21.558-21.558-37.726-53.895-37.726-86.232 0-64.674 53.895-113.179 113.179-118.568 0 0 5.389 0 5.389 0l59.284 5.389c0 0 0 0 0 0v0c26.947 0 48.505-26.947 48.505-53.895l-5.389-59.284c0 0 0-5.389 0-5.389 0-64.674 53.895-113.179 113.179-113.179 32.337 0 64.674 16.168 86.232 37.726l37.726 43.116c0 0 0 0 5.389 5.389 21.558 21.558 53.895 16.168 75.453-5.389l37.726-43.116c21.558-21.558 53.895-37.726 86.232-37.726h5.389c64.674 5.389 113.179 59.284 107.789 118.568l-5.389 59.284c0 0 0 5.389 0 5.389 0 26.947 21.558 48.505 53.895 48.505h5.389l59.284-5.389h5.389c32.337 0 64.674 16.168 86.232 37.726 0 0 0 0 0 0 43.116 48.505 37.726 118.568-10.779 161.684l-26.947 48.505zM910.821 232.421v0l-64.674 5.389c0 0-5.389 0-5.389 0-59.284 0-113.179-48.505-113.179-107.789 0-5.389 0-5.389 0-10.779l5.389-59.284c0-26.947-21.558-53.895-48.505-53.895v0c-16.168 0-26.947 5.389-37.726 16.168l-37.726 43.116c0 5.389-5.389 5.389-10.779 10.779-48.505 43.116-118.568 37.726-161.684-10.779l-37.726-43.116c-10.779-10.779-21.558-16.168-37.726-16.168v0c-10.779 0-26.947 5.389-32.337 10.779-10.779 10.779-16.168 26.947-16.168 37.726l5.389 59.284c5.389 64.674-43.116 118.568-107.789 123.958 0 0-5.389 0-5.389 0h-5.389l-59.284-5.389c0 0 0 0-5.389 0-16.168 0-26.947 5.389-37.726 16.168-21.558 21.558-16.168 53.895 5.389 75.453l43.116 37.726c48.505 43.116 53.895 118.568 10.779 161.684-26.947 5.389-26.947 5.389-32.337 10.779l-43.116 37.726c0 0 0 0 0 0-21.558 21.558-21.558 53.895-5.389 75.453 10.779 10.779 21.558 16.168 37.726 16.168v0l59.284-5.389c0 0 5.389 0 5.389 0 59.284 0 113.179 48.505 113.179 107.789 0 5.389 0 5.389 0 10.779l5.389 64.674c0 26.947 21.558 53.895 48.505 53.895v0c16.168 0 26.947-5.389 37.726-16.168l37.726-43.116c26.947-26.947 53.895-37.726 86.232-37.726h5.389c26.947 0 53.895 10.779 75.453 32.337 5.389 0 5.389 5.389 10.779 10.779l43.116 43.116c10.779 10.779 21.558 16.168 37.726 16.168h5.389c10.779 0 26.947-5.389 32.337-10.779 10.779-10.779 16.168-26.947 16.168-43.116l-5.389-59.284c-5.389-64.674 48.505-118.568 107.789-118.568 0 0 5.389 0 5.389 0h5.389l59.284 5.389c16.168 0 26.947-5.389 37.726-16.168 21.558-21.558 16.168-53.895-5.389-75.453l-43.116-37.726c-48.505-43.116-48.505-118.568-10.779-161.684 0-5.389 5.389-5.389 10.779-10.779l43.116-37.726c10.779-10.779 16.168-21.558 16.168-37.726 5.389-43.116-16.168-64.674-43.116-64.674zM512 674.358c-123.958 0-226.358-102.4-226.358-226.358s102.4-226.358 226.358-226.358c123.958 0 226.358 102.4 226.358 226.358s-102.4 226.358-226.358 226.358zM512 286.316c-86.232 0-161.684 70.063-161.684 161.684 0 86.232 70.063 161.684 161.684 161.684 86.232 0 161.684-70.063 161.684-161.684 0-86.232-75.453-161.684-161.684-161.684z" />
<glyph unicode="&#xe92d;" glyph-name="cursor-hand-2" horiz-adv-x="839" d="M439.319-64c-0.117 0-0.256 0-0.395 0-106.037 0-199.499 53.835-254.546 135.665l-0.695 1.097-166.161 249.173c-10.834 16.172-17.291 36.070-17.291 57.477 0 57.534 46.641 104.175 104.175 104.175 21.464 0 41.413-6.492 57.989-17.619l-0.375 0.237c2.549-1.684 5.006-3.504 7.373-5.416l55.524-44.419v372.964c0.031 56.556 45.885 102.392 102.445 102.392 13.568 0 26.52-2.638 38.371-7.428l-0.687 0.245c12.225 43.859 51.82 75.504 98.805 75.504s86.579-31.644 98.633-74.783l0.172-0.72c11.17 4.551 24.13 7.192 37.706 7.192 46.977 0 86.569-31.62 98.654-74.737l0.173-0.721c11.164 4.545 24.115 7.182 37.683 7.182 56.56 0 102.415-45.836 102.445-102.389v-517.737c0-0.027 0-0.059 0-0.091 0-147.561-119.596-267.189-267.145-267.241h-132.852zM104.266 415.642c-0.024 0-0.052 0-0.080 0-2.502 0-4.941-0.265-7.292-0.769l0.227 0.041c-16.549-3.403-28.817-17.851-28.817-35.164 0-7.438 2.265-14.348 6.142-20.077l-0.081 0.126 166.070-249.173c43.375-64.493 116.078-106.36 198.56-106.36 0.114 0 0.227 0 0.341 0h132.829c109.871 0.026 198.929 89.1 198.929 198.975 0 0.016 0 0.032 0 0.048v-0.002 517.78c0 18.851-15.282 34.133-34.133 34.133s-34.133-15.282-34.133-34.133v0-204.8c0-18.851-15.282-34.133-34.133-34.133s-34.133 15.282-34.133 34.133v0 273.067c0 18.851-15.282 34.133-34.133 34.133s-34.133-15.282-34.133-34.133v0-273.067c0-18.851-15.282-34.133-34.133-34.133s-34.133 15.282-34.133 34.133v0 341.333c0 18.851-15.282 34.133-34.133 34.133s-34.133-15.282-34.133-34.133v0-341.333c0-18.851-15.282-34.133-34.133-34.133s-34.133 15.282-34.133 34.133v0 273.067c0 18.851-15.282 34.133-34.133 34.133s-34.133-15.282-34.133-34.133v0-443.779c0-0.016 0-0.036 0-0.055 0-18.826-15.262-34.088-34.088-34.088-8.089 0-15.52 2.818-21.365 7.525l0.066-0.051-111.184 88.838c-0.865 0.683-1.684 1.32-2.594 1.911-5.564 3.755-12.418 5.998-19.795 6.007h-0.002z" />
<glyph unicode="&#xe92e;" glyph-name="cursor" d="M883.042-64c-0.095 0-0.208-0.001-0.32-0.001-22.653 0-43.163 9.178-58.014 24.018l-175.329 175.384-160.678-160.678c-14.939-14.957-35.58-24.216-58.384-24.237h-0.004c-0.042 0-0.092 0-0.142 0-34.204 0-63.554 20.784-76.11 50.411l-0.204 0.542-347.631 844.483c-3.933 9.295-6.218 20.104-6.218 31.446 0 45.633 36.993 82.625 82.625 82.625 11.342 0 22.151-2.285 31.99-6.421l-0.544 0.203 844.208-347.631c30.3-12.701 51.196-42.117 51.196-76.414 0-22.846-9.272-43.527-24.259-58.484l-160.679-160.679 175.275-175.275c14.963-14.954 24.219-35.618 24.219-58.443s-9.256-43.489-24.219-58.443v0l-58.388-58.443c-14.928-14.81-35.488-23.962-58.185-23.962-0.072 0-0.143 0-0.215 0h0.011zM649.378 235.158c0.037 0 0.080 0 0.124 0 11.367 0 21.651-4.634 29.067-12.116l204.472-204.528 58.388 58.443-204.469 204.525c-7.492 7.462-12.128 17.787-12.128 29.194s4.636 21.732 12.126 29.193l189.873 189.873-844.208 347.521 347.631-844.263 189.872 189.927c7.483 7.507 17.816 12.17 29.238 12.228h0.011z" />
<glyph unicode="&#xe92f;" glyph-name="Delete_1" d="M553.719 451.793l121.363 121.363c11.378 11.378 11.378 26.548 0 37.926s-26.548 11.378-37.926 0l-121.363-121.363-125.156 125.156c-11.378 7.585-30.341 7.585-41.719-3.793s-11.378-26.548 0-37.926l125.156-125.156-125.156-125.156c-11.378-11.378-11.378-26.548 0-37.926 7.585-3.793 11.378-7.585 18.963-7.585 7.585-3.793 15.17 3.793 18.963 7.585l125.156 125.156 125.156-125.156c3.793-3.793 15.17-7.585 18.963-7.585s15.17 3.793 22.756 11.378c11.378 11.378 11.378 26.548 0 37.926l-125.156 125.156zM766.104 702.104c-140.326 140.326-367.881 140.326-508.207 0s-140.326-367.881 0-508.207c68.267-68.267 163.081-106.193 254.104-106.193 94.815-3.793 185.837 34.133 254.104 106.193 140.326 140.326 144.119 367.881 0 508.207zM724.385 235.615c-117.57-117.57-310.993-117.57-428.563 0s-117.57 310.993 0 428.563c60.681 56.889 140.326 87.23 216.178 87.23 79.644-3.793 155.496-30.341 212.385-87.23 117.57-117.57 117.57-310.993 0-428.563z" />
<glyph unicode="&#xe930;" d="M1030.606 444.697c0-284.594-230.709-515.303-515.303-515.303s-515.303 230.709-515.303 515.303c0 284.594 230.709 515.303 515.303 515.303s515.303-230.709 515.303-515.303z" />
<glyph unicode="&#xe931;" d="M587.974 444.697l112.31 112.31c19.819 19.819 19.819 52.852 0 72.671s-52.852 19.819-72.671 0l-112.31-112.31-112.31 112.31c-19.819 19.819-52.852 19.819-72.671 0s-19.819-52.852 0-72.671l112.31-112.31-112.31-112.31c-19.819-19.819-19.819-52.852 0-72.671 6.606-6.606 19.819-13.213 33.032-13.213s26.426 6.606 33.032 13.213l118.916 112.31 112.31-112.31c6.606-6.606 19.819-13.213 33.032-13.213s26.426 6.606 39.639 13.213c19.819 19.819 19.819 52.852 0 72.671l-112.31 112.31z" />
<glyph unicode="&#xe932;" glyph-name="delete_3" d="M609.322 452.231l380.826 380.826c25.388 25.388 25.388 67.702 0 93.091s-67.702 25.388-93.091 0l-380.826-380.826-372.364 372.364c-25.388 25.388-67.702 25.388-93.091 0s-25.388-67.702 0-93.091l372.364-372.364-380.826-380.826c-25.388-25.388-25.388-67.702 0-93.091 8.463-8.463 25.388-16.926 42.314-16.926s33.851 0 50.777 16.926l380.826 380.826 380.826-380.826c8.463-8.463 25.388-16.926 42.314-16.926s33.851 0 50.777 16.926c25.388 25.388 25.388 67.702 0 93.091l-380.826 380.826z" />
<glyph unicode="&#xe933;" d="M204.8 225.717c-9.99 0-14.985 4.995-24.976 9.99l-159.844 159.844c-29.971 29.971-29.971 79.922 0 109.893l164.839 154.849c14.985 14.985 34.966 14.985 44.956 0s14.985-34.966 0-44.956v0l-159.844-159.844c-4.995-4.995-4.995-4.995-4.995-9.99s0-4.995 4.995-9.99l159.844-159.844c14.985-14.985 9.99-34.966 0-44.956-9.99-4.995-14.985-4.995-24.976-4.995v0z" />
<glyph unicode="&#xe934;" d="M319.688 720.234c9.99 0 14.985 4.995 24.976 9.99l159.844 159.844c4.995 4.995 14.985 4.995 19.98 0l159.844-159.844c14.985-14.985 34.966-14.985 44.956 0s14.985 34.966 0 44.956l-159.844 159.844c-29.971 29.971-79.922 29.971-109.893 0l-159.844-159.844c-9.99-4.995-9.99-9.99-9.99-19.98 0-19.98 14.985-34.966 29.971-34.966z" />
<glyph unicode="&#xe935;" d="M724.293 165.776c-14.985 9.99-34.966 9.99-44.956 0l-159.844-159.844c-4.995-4.995-14.985-4.995-19.98 0l-159.844 159.844c0 0 0 0 0 0-14.985 9.99-34.966 9.99-44.956 0-9.99-14.985-9.99-34.966 0-44.956l159.844-159.844c14.985-14.985 34.966-24.976 54.946-24.976s39.961 9.99 54.946 24.976l159.844 159.844c14.985 9.99 14.985 29.971 0 44.956 0 0 0 0 0 0z" />
<glyph unicode="&#xe936;" d="M999.024 500.449l-159.844 159.844c-14.985 14.985-34.966 14.985-44.956 0-14.985-14.985-14.985-34.966 0-44.956l159.844-159.844c4.995-4.995 4.995-14.985 0-19.98l-159.844-159.844c-4.995-4.995-9.99-14.985-9.99-24.976 0-19.98 14.985-29.971 29.971-29.971 9.99 0 14.985 4.995 24.976 9.99l159.844 159.844c34.966 34.966 34.966 79.922 0 109.893z" />
<glyph unicode="&#xe937;" d="M354.654 445.502c0-89.912 69.932-159.844 159.844-159.844s159.844 69.932 159.844 159.844c0 89.912-69.932 159.844-159.844 159.844s-159.844-69.932-159.844-159.844zM609.405 445.502c0-54.946-44.956-94.907-94.907-94.907-54.946 0-94.907 44.956-94.907 94.907 0 54.946 44.956 94.907 94.907 94.907v0c49.951 4.995 94.907-39.961 94.907-94.907z" />
<glyph unicode="&#xe938;" d="M729.288 165.576c-14.985 14.985-34.966 14.985-44.956 0l-159.844-159.844c0-4.995-4.995-4.995-9.99-4.995s-4.995 0-9.99 4.995l-159.844 159.844c-14.985 14.985-34.966 14.985-44.956 0s-14.985-34.966 0-44.956l159.844-159.844c29.971-29.971 79.922-29.971 109.893 0l159.844 159.844c4.995 4.995 9.99 14.985 9.99 24.976v0c-4.995 4.995-4.995 9.99-9.99 19.98z" />
<glyph unicode="&#xe939;" d="M344.663 730.025l159.844 159.844c4.995 4.995 14.985 4.995 19.98 0l159.844-159.844c4.995-4.995 14.985-9.99 24.976-9.99 19.98 0 29.971 14.985 29.971 29.971 0 9.99-4.995 14.985-9.99 24.976l-159.844 159.844c-29.971 29.971-79.922 29.971-109.893 0l-159.844-159.844c-14.985-14.985-14.985-34.966 0-44.956s29.971-9.99 44.956 0z" />
<glyph unicode="&#xe93a;" d="M69.932 440.308c-4.995 4.995-4.995 14.985 0 19.98l159.844 159.844c14.985 14.985 14.985 34.966 0 44.956s-34.966 14.985-44.956 0l-159.844-159.844c-29.971-29.971-29.971-79.922 0-109.893l159.844-159.844c4.995-9.99 9.99-9.99 19.98-9.99 19.98 0 29.971 14.985 29.971 29.971 0 9.99-4.995 14.985-9.99 24.976l-154.849 159.844z" />
<glyph unicode="&#xe93b;" d="M1004.020 500.249l-159.844 159.844c-14.985 9.99-34.966 9.99-44.956 0 0 0 0 0 0 0-9.99-14.985-9.99-34.966 0-44.956l159.844-159.844c4.995-4.995 4.995-14.985 0-19.98l-159.844-159.844c0 0 0 0 0 0-9.99-14.985-9.99-34.966 0-44.956 14.985-9.99 34.966-9.99 44.956 0l159.844 159.844c14.985 14.985 24.976 34.966 24.976 54.946-4.995 24.976-14.985 44.956-24.976 54.946z" />
<glyph unicode="&#xe93c;" d="M514.498 610.142c-89.912 0-159.844-69.932-159.844-159.844s69.932-159.844 159.844-159.844c89.912 0 159.844 69.932 159.844 159.844 0 84.917-74.927 154.849-159.844 159.844zM514.498 350.395c-54.946 0-94.907 44.956-94.907 94.907v0c0 54.946 44.956 94.907 94.907 94.907 54.946 0 94.907-44.956 94.907-94.907s-44.956-94.907-94.907-94.907z" />
<glyph unicode="&#xe93d;" d="M729.288 165.576c-14.985 14.985-34.966 14.985-44.956 0l-159.844-159.844c0-4.995-4.995-4.995-9.99-4.995s-4.995 0-9.99 4.995l-159.844 159.844c-14.985 14.985-34.966 14.985-44.956 0s-14.985-34.966 0-44.956l159.844-159.844c29.971-29.971 79.922-29.971 109.893 0l159.844 159.844c4.995 4.995 9.99 14.985 9.99 24.976v0c-4.995 4.995-4.995 9.99-9.99 19.98z" />
<glyph unicode="&#xe93e;" d="M1004.020 500.249l-159.844 159.844c-14.985 9.99-34.966 9.99-44.956 0 0 0 0 0 0 0-9.99-14.985-9.99-34.966 0-44.956l159.844-159.844c4.995-4.995 4.995-14.985 0-19.98l-159.844-159.844c0 0 0 0 0 0-9.99-14.985-9.99-34.966 0-44.956 14.985-9.99 34.966-9.99 44.956 0l159.844 159.844c14.985 14.985 24.976 34.966 24.976 54.946-4.995 24.976-14.985 44.956-24.976 54.946z" />
<glyph unicode="&#xe93f;" d="M569.444 934.825c-29.971 29.971-79.922 29.971-109.893 0l-159.844-159.844c-14.985-14.985-14.985-34.966 0-44.956s34.966-14.985 44.956 0l159.844 159.844c4.995 4.995 14.985 4.995 19.98 0l159.844-159.844c4.995-4.995 14.985-9.99 24.976-9.99 19.98 0 29.971 14.985 29.971 29.971 0 9.99-4.995 14.985-9.99 24.976l-159.844 159.844z" />
<glyph unicode="&#xe940;" d="M69.932 440.308c-4.995 4.995-4.995 14.985 0 19.98l159.844 159.844c14.985 14.985 14.985 34.966 0 44.956s-34.966 14.985-44.956 0l-159.844-159.844c-29.971-29.971-29.971-79.922 0-109.893l159.844-159.844c4.995-9.99 9.99-9.99 19.98-9.99 19.98 0 29.971 14.985 29.971 29.971 0 9.99-4.995 14.985-9.99 24.976l-154.849 159.844z" />
<glyph unicode="&#xe941;" d="M514.498 610.142c-89.912 0-159.844-69.932-159.844-159.844s69.932-159.844 159.844-159.844c89.912 0 159.844 69.932 159.844 159.844 0 84.917-74.927 154.849-159.844 159.844zM514.498 350.395c-54.946 0-94.907 44.956-94.907 94.907v0c0 54.946 44.956 94.907 94.907 94.907 54.946 0 94.907-44.956 94.907-94.907s-44.956-94.907-94.907-94.907z" />
<glyph unicode="&#xe942;" d="M999.224 505.244l-159.844 159.844c-4.995 4.995-14.985 9.99-24.976 9.99v0c-9.99 0-14.985-4.995-24.976-9.99-14.985-14.985-14.985-34.966 0-44.956l159.844-159.844c4.995 0 4.995-4.995 4.995-9.99s0-4.995-4.995-9.99l-159.844-159.844c-14.985-14.985-14.985-34.966 0-44.956s39.961-14.985 49.951 0l159.844 159.844c29.971 29.971 29.971 79.922 0 109.893z" />
<glyph unicode="&#xe943;" d="M564.649 939.82c-14.985 14.985-34.966 24.976-54.946 24.976s-39.961-9.99-54.946-24.976l-159.844-159.844c-9.99-14.985-9.99-34.966 0-44.956 0 0 0 0 0 0 14.985-9.99 34.966-9.99 44.956 0l159.844 159.844c4.995 4.995 14.985 4.995 19.98 0l159.844-159.844c0 0 0 0 0 0 14.985-9.99 34.966-9.99 44.956 0 9.99 14.985 9.99 34.966 0 44.956l-159.844 159.844z" />
<glyph unicode="&#xe944;" d="M229.975 615.137c4.995 4.995 9.99 14.985 9.99 24.976 0 19.98-14.985 29.971-29.971 29.971-9.99 0-14.985-4.995-24.976-9.99l-159.844-159.844c-29.971-29.971-29.971-79.922 0-109.893l159.844-154.849c14.985-14.985 34.966-14.985 44.956 0s14.985 34.966 0 44.956l-159.844 159.844c-4.995 4.995-4.995 14.985 0 19.98l159.844 154.849z" />
<glyph unicode="&#xe945;" d="M704.512 175.566c-9.99 0-14.985-4.995-24.976-9.99l-159.844-159.844c-4.995-4.995-14.985-4.995-19.98 0l-159.844 159.844c-14.985 14.985-34.966 14.985-44.956 0s-14.985-34.966 0-44.956l159.844-159.844c29.971-29.971 79.922-29.971 109.893 0l159.844 159.844c9.99 4.995 9.99 9.99 9.99 19.98 0 19.98-14.985 34.966-29.971 34.966z" />
<glyph unicode="&#xe946;" d="M509.702 290.454c89.912 0 159.844 69.932 159.844 159.844s-69.932 159.844-159.844 159.844c-89.912 0-159.844-69.932-159.844-159.844s74.927-159.844 159.844-159.844zM509.702 545.205c54.946 0 94.907-44.956 94.907-94.907 0-54.946-44.956-94.907-94.907-94.907v0c-54.946 0-94.907 44.956-94.907 94.907s44.956 94.907 94.907 94.907z" />
<glyph unicode="&#xe947;" d="M294.962 730.224c14.985-14.985 34.966-14.985 44.956 0l159.844 159.844c0 4.995 4.995 4.995 9.99 4.995s4.995 0 9.99-4.995l159.844-159.844c14.985-14.985 34.966-14.985 44.956 0s14.985 34.966 0 44.956l-159.844 159.844c-29.971 29.971-79.922 29.971-109.893 0l-159.844-159.844c-4.995-4.995-9.99-14.985-9.99-24.976v0c4.995-4.995 4.995-9.99 9.99-19.98z" />
<glyph unicode="&#xe948;" d="M230.025 615.337c0 0 0 0 0 0 14.985 14.985 14.985 34.966 0 44.956s-34.966 9.99-44.956 0l-159.844-159.844c-14.985-14.985-24.976-34.966-24.976-54.946s9.99-39.961 24.976-54.946l159.844-159.844c14.985-9.99 34.966-9.99 44.956 0 0 0 0 0 0 0 9.99 14.985 9.99 34.966 0 44.956l-159.844 159.844c-4.995 4.995-4.995 14.985 0 19.98l159.844 159.844z" />
<glyph unicode="&#xe949;" d="M679.586 165.776l-159.844-159.844c-4.995-4.995-14.985-4.995-19.98 0l-159.844 159.844c-4.995 4.995-14.985 9.99-24.976 9.99-19.98 0-29.971-14.985-29.971-29.971 0-9.99 4.995-14.985 9.99-24.976l159.844-159.844c29.971-29.971 79.922-29.971 109.893 0l159.844 159.844c14.985 14.985 14.985 34.966 0 44.956s-29.971 9.99-44.956 0z" />
<glyph unicode="&#xe94a;" d="M999.274 500.449l-159.844 159.844c-4.995 9.99-9.99 9.99-19.98 9.99-19.98 0-29.971-14.985-29.971-29.971 0-9.99 4.995-14.985 9.99-24.976l159.844-159.844c4.995-4.995 4.995-14.985 0-19.98l-159.844-159.844c-14.985-14.985-14.985-34.966 0-44.956s34.966-14.985 44.956 0l159.844 159.844c24.976 34.966 24.976 79.922-4.995 109.893z" />
<glyph unicode="&#xe94b;" d="M509.752 605.346c-89.912 0-159.844-69.932-159.844-159.844s69.932-159.844 159.844-159.844c89.912 0 159.844 69.932 159.844 159.844s-69.932 159.844-159.844 159.844zM609.655 445.502c0-54.946-44.956-94.907-94.907-94.907-54.946 0-94.907 44.956-94.907 94.907 0 54.946 44.956 94.907 94.907 94.907 49.951 4.995 94.907-39.961 94.907-94.907v0z" />
<glyph unicode="&#xe94c;" d="M229.776 615.337c14.985 14.985 14.985 34.966 0 44.956s-34.966 14.985-44.956 0l-159.844-159.844c-29.971-29.971-29.971-79.922 0-109.893l159.844-159.844c4.995-4.995 14.985-9.99 24.976-9.99v0c9.99 0 14.985 4.995 24.976 9.99 14.985 14.985 14.985 34.966 0 44.956l-159.844 159.844c-4.995 0-4.995 4.995-4.995 9.99s0 4.995 4.995 9.99l154.849 159.844z" />
<glyph unicode="&#xe94d;" d="M724.293 165.776c-14.985 9.99-34.966 9.99-44.956 0l-159.844-159.844c-4.995-4.995-14.985-4.995-19.98 0l-159.844 159.844c0 0 0 0 0 0-14.985 9.99-34.966 9.99-44.956 0-9.99-14.985-9.99-34.966 0-44.956l159.844-159.844c14.985-14.985 34.966-24.976 54.946-24.976s39.961 9.99 54.946 24.976l159.844 159.844c14.985 9.99 14.985 29.971 0 44.956 0 0 0 0 0 0z" />
<glyph unicode="&#xe94e;" d="M999.024 500.449l-159.844 159.844c-14.985 14.985-34.966 14.985-44.956 0-14.985-14.985-14.985-34.966 0-44.956l159.844-159.844c4.995-4.995 4.995-14.985 0-19.98l-159.844-159.844c-4.995-4.995-9.99-14.985-9.99-24.976 0-19.98 14.985-29.971 29.971-29.971 9.99 0 14.985 4.995 24.976 9.99l159.844 159.844c34.966 34.966 34.966 79.922 0 109.893z" />
<glyph unicode="&#xe94f;" d="M724.293 775.18l-159.844 159.844c-29.971 29.971-79.922 29.971-109.893 0l-154.849-159.844c-9.99-4.995-9.99-9.99-9.99-19.98 0-19.98 14.985-29.971 29.971-29.971 9.99 0 14.985 4.995 24.976 9.99l159.844 159.844c4.995 4.995 14.985 4.995 19.98 0l159.844-159.844c14.985-14.985 34.966-14.985 44.956 0s9.99 29.971-4.995 39.961z" />
<glyph unicode="&#xe950;" d="M514.498 605.346c-89.912 0-159.844-69.932-159.844-159.844s69.932-159.844 159.844-159.844c89.912 0 159.844 69.932 159.844 159.844s-74.927 159.844-159.844 159.844zM514.498 350.595c-54.946 0-94.907 44.956-94.907 94.907 0 54.946 44.956 94.907 94.907 94.907v0c54.946 0 94.907-44.956 94.907-94.907s-44.956-94.907-94.907-94.907z" />
<glyph unicode="&#xe951;" d="M289.967 755.2c0 9.99 4.995 14.985 9.99 24.976l159.844 159.844c29.971 29.971 79.922 29.971 109.893 0l154.849-164.839c14.985-14.985 14.985-34.966 0-44.956s-34.966-14.985-44.956 0v0l-159.844 159.844c-4.995 4.995-4.995 4.995-9.99 4.995s-4.995 0-9.99-4.995l-159.844-159.844c-14.985-14.985-34.966-9.99-44.956 0-4.995 9.99-4.995 14.985-4.995 24.976v0z" />
<glyph unicode="&#xe952;" d="M999.274 500.449l-159.844 159.844c-4.995 9.99-9.99 9.99-19.98 9.99-19.98 0-29.971-14.985-29.971-29.971 0-9.99 4.995-14.985 9.99-24.976l159.844-159.844c4.995-4.995 4.995-14.985 0-19.98l-159.844-159.844c-14.985-14.985-14.985-34.966 0-44.956s34.966-14.985 44.956 0l159.844 159.844c24.976 34.966 24.976 79.922-4.995 109.893z" />
<glyph unicode="&#xe953;" d="M230.025 615.337c0 0 0 0 0 0 14.985 14.985 14.985 34.966 0 44.956s-34.966 9.99-44.956 0l-159.844-159.844c-14.985-14.985-24.976-34.966-24.976-54.946s9.99-39.961 24.976-54.946l159.844-159.844c14.985-9.99 34.966-9.99 44.956 0 0 0 0 0 0 0 9.99 14.985 9.99 34.966 0 44.956l-159.844 159.844c-4.995 4.995-4.995 14.985 0 19.98l159.844 159.844z" />
<glyph unicode="&#xe954;" d="M679.586 165.776l-159.844-159.844c-4.995-4.995-14.985-4.995-19.98 0l-159.844 159.844c-4.995 4.995-14.985 9.99-24.976 9.99-19.98 0-29.971-14.985-29.971-29.971 0-9.99 4.995-14.985 9.99-24.976l159.844-159.844c29.971-29.971 79.922-29.971 109.893 0l159.844 159.844c14.985 14.985 14.985 34.966 0 44.956s-29.971 9.99-44.956 0z" />
<glyph unicode="&#xe955;" d="M509.752 285.659c89.912 0 159.844 69.932 159.844 159.844s-69.932 159.844-159.844 159.844c-89.912 0-159.844-69.932-159.844-159.844 0-84.917 74.927-154.849 159.844-159.844zM509.752 545.405c54.946 0 94.907-44.956 94.907-94.907v0c0-54.946-44.956-94.907-94.907-94.907-54.946 0-94.907 44.956-94.907 94.907s44.956 94.907 94.907 94.907z" />
<glyph unicode="&#xe956;" d="M819.4 670.083c9.99 0 14.985-4.995 24.976-9.99l159.844-159.844c29.971-29.971 29.971-79.922 0-109.893l-164.839-154.849c-14.985-14.985-34.966-14.985-44.956 0s-14.985 34.966 0 44.956v0l159.844 159.844c4.995 4.995 4.995 4.995 4.995 9.99s0 4.995-4.995 9.99l-159.844 159.844c-14.985 14.985-9.99 34.966 0 44.956 9.99 4.995 14.985 4.995 24.976 4.995v0z" />
<glyph unicode="&#xe957;" d="M704.512 175.566c-9.99 0-14.985-4.995-24.976-9.99l-159.844-159.844c-4.995-4.995-14.985-4.995-19.98 0l-159.844 159.844c-14.985 14.985-34.966 14.985-44.956 0s-14.985-34.966 0-44.956l159.844-159.844c29.971-29.971 79.922-29.971 109.893 0l159.844 159.844c9.99 4.995 9.99 9.99 9.99 19.98 0 19.98-14.985 34.966-29.971 34.966z" />
<glyph unicode="&#xe958;" d="M299.907 730.025c14.985-9.99 34.966-9.99 44.956 0l159.844 159.844c4.995 4.995 14.985 4.995 19.98 0l159.844-159.844c0 0 0 0 0 0 14.985-9.99 34.966-9.99 44.956 0 9.99 14.985 9.99 34.966 0 44.956l-159.844 159.844c-14.985 14.985-34.966 24.976-54.946 24.976s-39.961-9.99-54.946-24.976l-159.844-159.844c-14.985-9.99-14.985-29.971 0-44.956 0 0 0 0 0 0z" />
<glyph unicode="&#xe959;" d="M229.975 615.137c4.995 4.995 9.99 14.985 9.99 24.976 0 19.98-14.985 29.971-29.971 29.971-9.99 0-14.985-4.995-24.976-9.99l-159.844-159.844c-29.971-29.971-29.971-79.922 0-109.893l159.844-154.849c14.985-14.985 34.966-14.985 44.956 0s14.985 34.966 0 44.956l-159.844 159.844c-4.995 4.995-4.995 14.985 0 19.98l159.844 154.849z" />
<glyph unicode="&#xe95a;" d="M349.858 450.298c0-89.912 69.932-159.844 159.844-159.844s159.844 69.932 159.844 159.844c0 89.912-69.932 159.844-159.844 159.844-84.917 0-154.849-74.927-159.844-159.844zM609.605 450.298c0-54.946-44.956-94.907-94.907-94.907v0c-54.946 0-94.907 44.956-94.907 94.907 0 54.946 44.956 94.907 94.907 94.907s94.907-44.956 94.907-94.907z" />
<glyph unicode="&#xe95b;" d="M734.283 140.6c0-9.99-4.995-14.985-9.99-24.976l-159.844-159.844c-29.971-29.971-79.922-29.971-109.893 0l-154.849 164.839c-14.985 14.985-14.985 34.966 0 44.956s34.966 14.985 44.956 0v0l159.844-159.844c4.995-4.995 4.995-4.995 9.99-4.995s4.995 0 9.99 4.995l159.844 159.844c14.985 14.985 34.966 9.99 44.956 0 4.995-9.99 4.995-14.985 4.995-24.976v0z" />
<glyph unicode="&#xe95c;" d="M69.932 440.308c-4.995 4.995-4.995 14.985 0 19.98l159.844 159.844c14.985 14.985 14.985 34.966 0 44.956s-34.966 14.985-44.956 0l-159.844-159.844c-29.971-29.971-29.971-79.922 0-109.893l159.844-159.844c4.995-9.99 9.99-9.99 19.98-9.99 19.98 0 29.971 14.985 29.971 29.971 0 9.99-4.995 14.985-9.99 24.976l-154.849 159.844z" />
<glyph unicode="&#xe95d;" d="M1004.020 500.249l-159.844 159.844c-14.985 9.99-34.966 9.99-44.956 0 0 0 0 0 0 0-9.99-14.985-9.99-34.966 0-44.956l159.844-159.844c4.995-4.995 4.995-14.985 0-19.98l-159.844-159.844c0 0 0 0 0 0-9.99-14.985-9.99-34.966 0-44.956 14.985-9.99 34.966-9.99 44.956 0l159.844 159.844c14.985 14.985 24.976 34.966 24.976 54.946-4.995 24.976-14.985 44.956-24.976 54.946z" />
<glyph unicode="&#xe95e;" d="M569.444 934.825c-29.971 29.971-79.922 29.971-109.893 0l-159.844-159.844c-14.985-14.985-14.985-34.966 0-44.956s34.966-14.985 44.956 0l159.844 159.844c4.995 4.995 14.985 4.995 19.98 0l159.844-159.844c4.995-4.995 14.985-9.99 24.976-9.99 19.98 0 29.971 14.985 29.971 29.971 0 9.99-4.995 14.985-9.99 24.976l-159.844 159.844z" />
<glyph unicode="&#xe95f;" d="M514.498 610.142c-89.912 0-159.844-69.932-159.844-159.844s69.932-159.844 159.844-159.844c89.912 0 159.844 69.932 159.844 159.844 0 84.917-74.927 154.849-159.844 159.844zM514.498 350.395c-54.946 0-94.907 44.956-94.907 94.907v0c0 54.946 44.956 94.907 94.907 94.907 54.946 0 94.907-44.956 94.907-94.907s-44.956-94.907-94.907-94.907z" />
<glyph unicode="&#xe960;" d="M229.776 615.337c14.985 14.985 14.985 34.966 0 44.956s-34.966 14.985-44.956 0l-159.844-159.844c-29.971-29.971-29.971-79.922 0-109.893l159.844-159.844c4.995-4.995 14.985-9.99 24.976-9.99v0c9.99 0 14.985 4.995 24.976 9.99 14.985 14.985 14.985 34.966 0 44.956l-159.844 159.844c-4.995 0-4.995 4.995-4.995 9.99s0 4.995 4.995 9.99l154.849 159.844z" />
<glyph unicode="&#xe961;" d="M999.024 500.449l-159.844 159.844c-14.985 14.985-34.966 14.985-44.956 0-14.985-14.985-14.985-34.966 0-44.956l159.844-159.844c4.995-4.995 4.995-14.985 0-19.98l-159.844-159.844c-4.995-4.995-9.99-14.985-9.99-24.976 0-19.98 14.985-29.971 29.971-29.971 9.99 0 14.985 4.995 24.976 9.99l159.844 159.844c34.966 34.966 34.966 79.922 0 109.893z" />
<glyph unicode="&#xe962;" d="M319.688 720.234c9.99 0 14.985 4.995 24.976 9.99l159.844 159.844c4.995 4.995 14.985 4.995 19.98 0l159.844-159.844c14.985-14.985 34.966-14.985 44.956 0s14.985 34.966 0 44.956l-159.844 159.844c-29.971 29.971-79.922 29.971-109.893 0l-159.844-159.844c-9.99-4.995-9.99-9.99-9.99-19.98 0-19.98 14.985-34.966 29.971-34.966z" />
<glyph unicode="&#xe963;" d="M724.293 165.776c0 0 0 0 0 0-14.985 14.985-34.966 14.985-44.956 0l-159.844-159.844c-4.995-4.995-14.985-4.995-19.98 0l-159.844 159.844c0 0 0 0 0 0-14.985 9.99-34.966 9.99-44.956 0-9.99-14.985-9.99-34.966 0-44.956l159.844-159.844c14.985-14.985 34.966-24.976 54.946-24.976s39.961 9.99 54.946 24.976l159.844 159.844c14.985 9.99 14.985 29.971 0 44.956z" />
<glyph unicode="&#xe964;" d="M354.654 445.502c0-89.912 69.932-159.844 159.844-159.844s159.844 69.932 159.844 159.844c0 89.912-69.932 159.844-159.844 159.844s-159.844-69.932-159.844-159.844zM609.405 445.502c0-54.946-44.956-94.907-94.907-94.907-54.946 0-94.907 44.956-94.907 94.907 0 54.946 44.956 94.907 94.907 94.907v0c49.951 4.995 94.907-39.961 94.907-94.907z" />
<glyph unicode="&#xe965;" glyph-name="hand-drag-1" d="M423.005-64c-108.785 0.22-205.051 53.618-264.215 135.573l-0.66 0.96-68.143 95.077c-56.254 77.524-89.989 174.572-89.989 279.499 0 0.313 0 0.627 0.001 0.94v-0.049c0 0.074 0 0.162 0 0.25 0 112.007 79.211 205.514 184.671 227.558l1.511 0.264v97.745c0.038 77.056 62.513 139.508 139.574 139.508 25.105 0 48.662-6.628 69.016-18.23l-0.687 0.361c25.188 39.003 68.44 64.456 117.636 64.456s92.448-25.453 117.304-63.908l0.332-0.548c19.744 11.352 43.413 18.047 68.645 18.047 64.031 0 117.992-43.118 134.431-101.902l0.235-0.982c15.292 6.259 33.039 9.893 51.634 9.893 77.119 0 139.642-62.489 139.698-139.594v-380.374c-0.177-201.196-163.177-364.262-364.331-364.544h-0.027zM186.182 579.444c-54.501-19.909-92.766-71.166-93.091-131.405v-0.040c0-0.204-0.001-0.445-0.001-0.686 0-84.646 27.171-162.947 73.266-226.655l-0.779 1.131 68.267-95.201c42.747-59.216 111.516-97.346 189.199-97.497h236.599c149.745 0.176 271.090 121.521 271.267 271.25v380.573c0 25.706-20.839 46.545-46.545 46.545s-46.545-20.839-46.545-46.545v0c0-0.745 0-1.676 0-2.607-0.212-3.751-0.855-7.268-1.883-10.617l0.083 0.315-0.931-3.165c-0.248-0.905-0.523-1.668-0.849-2.404l0.043 0.108c-1.23-2.687-2.451-4.926-3.806-7.072l0.145 0.246c-0.398-0.668-0.787-1.235-1.208-1.776l0.029 0.038c-1.628-2.308-3.32-4.334-5.16-6.215l0.009 0.009c-0.688-0.693-1.417-1.343-2.183-1.947l-0.051-0.039c-1.397-1.257-2.914-2.478-4.496-3.615l-0.159-0.108-3.289-1.924c-1.314-0.811-2.863-1.62-4.469-2.324l-0.248-0.097c-1.295-0.549-2.906-1.1-4.559-1.548l-0.282-0.065c-1.050-0.386-2.34-0.75-3.663-1.023l-0.185-0.032c-2.641-0.555-5.677-0.874-8.786-0.874-0.228 0-0.455 0.002-0.681 0.005h0.034c-0.083-0.001-0.18-0.001-0.278-0.001-3.287 0-6.49 0.362-9.571 1.048l0.292-0.055-1.365 0.31c-4.431 1.135-8.313 2.707-11.916 4.72l0.249-0.128c-1 0.487-1.813 0.941-2.599 1.434l0.117-0.068c-2.92 1.875-5.46 3.922-7.76 6.208l0.002-0.002c-1.862 1.873-3.574 3.9-5.113 6.058l-0.1 0.148-1.117 1.614c-1.21 1.901-2.432 4.139-3.508 6.459l-0.153 0.368c-0.3 0.61-0.575 1.332-0.785 2.081l-0.022 0.091c-0.444 1.007-0.849 2.207-1.148 3.449l-0.031 0.151c-0.846 2.891-1.443 6.258-1.668 9.727l-0.007 0.141c-0.028 0.417-0.043 0.905-0.043 1.396s0.016 0.979 0.047 1.462l-0.003-0.066v93.091c0 25.706-20.839 46.545-46.545 46.545s-46.545-20.839-46.545-46.545v0-93.091c0-25.706-20.839-46.545-46.545-46.545s-46.545 20.839-46.545 46.545v0 139.636c0 25.706-20.839 46.545-46.545 46.545s-46.545-20.839-46.545-46.545v0-139.45c0-25.706-20.839-46.545-46.545-46.545s-46.545 20.839-46.545 46.545v0 92.905c0 25.706-20.839 46.545-46.545 46.545s-46.545-20.839-46.545-46.545v0-279.273c0-25.706-20.839-46.545-46.545-46.545s-46.545 20.839-46.545 46.545v0z" />
<glyph unicode="&#xe966;" glyph-name="handle-1" d="M96.43 588.054c-18.368 18.368-45.919 18.368-64.287 0s-18.368-45.919 0-64.287l551.031-551.031c9.184-9.184 18.368-13.776 32.143-13.776s22.96 4.592 32.143 13.776c18.368 18.368 18.368 45.919 0 64.287l-551.031 551.031zM101.022 271.211c-18.368 18.368-45.919 18.368-64.287 0s-18.368-45.919 0-64.287l234.188-234.188c9.184-9.184 18.368-13.776 32.143-13.776 9.184 0 22.96 4.592 32.143 13.776 18.368 18.368 18.368 45.919 0 64.287l-234.188 234.188zM987.265 37.022l-890.834 890.834c-18.368 18.368-45.919 18.368-64.287 0s-18.368-45.919 0-64.287l890.834-890.834c9.184-9.184 18.368-13.776 32.143-13.776s27.552 4.592 32.143 13.776c18.368 18.368 18.368 45.919 0 64.287z" />
<glyph unicode="&#xe967;" glyph-name="handle-2" d="M64.287 298.762c13.776 0 22.96 4.592 32.143 13.776l551.031 551.031c18.368 18.368 18.368 45.919 0 64.287s-45.919 18.368-64.287 0l-551.031-551.031c-18.368-18.368-18.368-45.919 0-64.287 9.184-9.184 18.368-13.776 32.143-13.776zM64.287 615.605c13.776 0 22.96 4.592 32.143 13.776l234.188 234.188c18.368 18.368 18.368 45.919 0 64.287s-45.919 18.368-64.287 0l-234.188-234.188c-18.368-18.368-18.368-45.919 0-64.287 9.184-9.184 18.368-13.776 32.143-13.776zM987.265 927.857c-18.368 18.368-45.919 18.368-64.287 0l-890.834-890.834c-18.368-18.368-18.368-45.919 0-64.287 9.184-9.184 18.368-13.776 32.143-13.776s22.96 4.592 32.143 13.776l890.834 890.834c18.368 18.368 18.368 45.919 0 64.287z" />
<glyph unicode="&#xe968;" glyph-name="handle-3" d="M436.233 927.857c-18.368 18.368-45.919 18.368-64.287 0s-18.368-45.919 0-64.287l551.031-551.031c9.184-9.184 18.368-13.776 32.143-13.776s27.552 4.592 32.143 13.776c18.368 18.368 18.368 45.919 0 64.287l-551.031 551.031zM922.978 629.381c9.184-9.184 18.368-13.776 32.143-13.776s27.552 4.592 32.143 13.776c18.368 18.368 18.368 45.919 0 64.287l-234.188 234.188c-18.368 18.368-45.919 18.368-64.287 0s-18.368-45.919 0-64.287l234.188-234.188zM96.43 927.857c-18.368 18.368-45.919 18.368-64.287 0s-18.368-45.919 0-64.287l890.834-890.834c9.184-9.184 18.368-13.776 32.143-13.776s27.552 4.592 32.143 13.776c18.368 18.368 18.368 45.919 0 64.287l-890.834 890.834z" />
<glyph unicode="&#xe969;" glyph-name="handle-4" d="M987.265 588.054c-18.368 18.368-45.919 18.368-64.287 0l-551.031-551.031c-18.368-18.368-18.368-45.919 0-64.287 9.184-9.184 18.368-13.776 32.143-13.776s27.552 4.592 32.143 13.776l551.031 551.031c18.368 18.368 18.368 45.919 0 64.287zM922.978 271.211l-234.188-234.188c-18.368-18.368-18.368-45.919 0-64.287 9.184-9.184 18.368-13.776 32.143-13.776s22.96 4.592 32.143 13.776l234.188 234.188c18.368 18.368 18.368 45.919 0 64.287s-45.919 18.368-64.287 0zM987.265 927.857c-18.368 18.368-45.919 18.368-64.287 0l-890.834-890.834c-18.368-18.368-18.368-45.919 0-64.287 9.184-9.184 18.368-13.776 32.143-13.776s22.96 4.592 32.143 13.776l890.834 890.834c18.368 18.368 18.368 45.919 0 64.287z" />
<glyph unicode="&#xe96a;" glyph-name="Menu_fix" horiz-adv-x="77" d="M0 960c42.416 0 76.801-34.385 76.801-76.801v0-870.398c-0.013-42.406-34.393-76.779-76.801-76.779v0z" />
<glyph unicode="&#xe96b;" glyph-name="navigation-menu-horizontal" horiz-adv-x="4431" d="M1024 448c0-282.77-229.23-512-512-512s-512 229.23-512 512c0 282.77 229.23 512 512 512s512-229.23 512-512zM4430.769 448c0-282.77-229.23-512-512-512s-512 229.23-512 512c0 282.77 229.23 512 512 512s512-229.23 512-512zM2717.538 448c0-282.77-229.23-512-512-512s-512 229.23-512 512c0 282.77 229.23 512 512 512s512-229.23 512-512z" />
<glyph unicode="&#xe96c;" glyph-name="search-alternate" d="M1008.119 28.442l-283.668 283.767c51.318 66.957 82.234 151.905 82.234 244.074 0 222.752-180.576 403.327-403.327 403.327s-403.327-180.576-403.327-403.327c0-222.752 180.576-403.327 403.327-403.327 92.261 0 177.287 30.978 245.244 83.101l-0.961-0.708 283.668-283.767c9.896-9.681 23.453-15.655 38.405-15.655s28.509 5.974 38.415 15.665l-0.010-0.010c9.826 9.839 15.902 23.425 15.902 38.43s-6.077 28.591-15.903 38.431l0.001-0.001zM111.569 555.174c0.029 161.967 131.335 293.256 293.306 293.256 161.989 0 293.306-131.318 293.306-293.306s-131.318-293.306-293.306-293.306v0c-161.989 0-293.306 131.318-293.306 293.306 0 0.018 0 0.035 0 0.053v-0.003z" />
<glyph unicode="&#xe96d;" glyph-name="send-email-2" horiz-adv-x="1107" d="M1086.27 475.676c-6.919 20.757-20.757 41.514-41.514 48.432l-864.865 415.135c-48.432 27.676-103.784 13.838-138.378-20.757-41.514-34.595-48.432-89.946-20.757-138.378l214.486-339.027-214.486-332.108c-27.676-41.514-13.838-103.784 20.757-138.378 20.757-20.757 48.432-34.595 83.027-34.595 20.757 0 34.595 6.919 55.351 13.838l864.865 422.054c20.757 6.919 34.595 20.757 41.514 41.514s6.919 41.514 0 62.27zM110.703 835.459c-6.919 0 0 6.919 0 6.919 6.919 6.919 13.838 6.919 20.757 6.919l712.649-345.946h-525.838l-207.568 332.108zM131.459 46.703c-6.919-6.919-13.838-6.919-20.757 0 0 6.919 0 13.838 0 13.838l207.568 332.108h525.838l-712.649-345.946z" />
<glyph unicode="&#xe96e;" glyph-name="undo" d="M512-64.085c-17.567 0.26-31.74 14.433-32 31.975v0.025c0.048 17.654 14.346 31.952 31.995 32h0.304c0.011 0 0.023 0 0.036 0 247.424 0 448 200.576 448 448s-200.576 448-448 448c-177.659 0-331.164-103.412-403.606-253.325l-1.166-2.675h244.437c17.673 0 32-14.327 32-32s-14.327-32-32-32v0h-320c-17.678 0.024-32 14.361-32 32.043 0 0.015 0 0.030 0 0.045v-0.002 320c0 17.673 14.327 32 32 32s32-14.327 32-32v0-233.003c88.922 159.109 256.322 264.917 448.435 264.917 282.77 0 512-229.23 512-512s-229.23-512-512-512c-0.048 0-0.096 0-0.144 0h0.008z" />
<glyph unicode="&#xe96f;" glyph-name="d-print-warning" horiz-adv-x="1028" d="M513.572 120.14c-35.93 0-62.877 26.947-62.877 62.877s26.947 62.877 62.877 62.877c35.93 0 62.877-26.947 62.877-62.877s-26.947-62.877-62.877-62.877zM513.572 187.509c-4.491 0-4.491-4.491 0 0-4.491-8.982 4.491-8.982 0 0 4.491-4.491 0 0 0 0zM513.572 353.684c-17.965 0-31.439 13.474-31.439 31.439v238.035c0 17.965 13.474 31.439 31.439 31.439s31.439-13.474 31.439-31.439v-238.035c0-13.474-13.474-31.439-31.439-31.439zM845.923-59.509h-664.702c-94.316 0-175.158 76.351-175.158 175.158 0 26.947 4.491 53.895 17.965 76.351l332.351 669.193c44.912 85.333 148.211 121.263 233.544 76.351 31.439-17.965 62.877-44.912 76.351-76.351l332.351-669.193c22.456-40.421 22.456-89.825 8.982-130.246-13.474-44.912-44.912-80.842-85.333-98.807-22.456-17.965-49.404-22.456-76.351-22.456zM513.572 888.14c-40.421 0-76.351-22.456-94.316-58.386l-332.351-669.193c-8.982-13.474-13.474-31.439-13.474-49.404 0-58.386 49.404-107.789 107.789-107.789h669.193c17.965 0 31.439 4.491 49.404 13.474 26.947 13.474 44.912 35.93 53.895 62.877s8.982 53.895-4.491 80.842l-341.333 669.193c-8.982 22.456-26.947 35.93-49.404 49.404-13.474 4.491-26.947 8.982-44.912 8.982z" />
<glyph unicode="&#xe970;" glyph-name="common-file-dash-1" d="M103.283 766.958c-17.655 0-31.779 14.124-31.779 31.779v63.559c0 52.966 42.372 95.338 95.338 95.338h63.559c17.655 0 31.779-14.124 31.779-31.779s-14.124-31.779-31.779-31.779h-63.559c-17.655 0-31.779-14.124-31.779-31.779v-63.559c3.531-17.655-14.124-31.779-31.779-31.779 0 0 0 0 0 0zM166.841-48.711c-52.966 0-95.338 42.372-95.338 95.338v63.559c0 17.655 14.124 31.779 31.779 31.779s31.779-14.124 31.779-31.779v-63.559c0-17.655 14.124-31.779 31.779-31.779 0 0 0 0 0 0h63.559c17.655 0 31.779-14.124 31.779-31.779s-14.124-31.779-31.779-31.779v0h-63.559zM795.366-48.711c-17.655 0-31.779 14.124-31.779 31.779s14.124 31.779 31.779 31.779h63.559c17.655 0 31.779 14.124 31.779 31.779v0 63.559c0 17.655 14.124 31.779 31.779 31.779s31.779-14.124 31.779-31.779v-63.559c0-52.966-42.372-95.338-95.338-95.338h-63.559zM576.441-48.711c-17.655 0-31.779 14.124-31.779 31.779s14.124 31.779 31.779 31.779h95.338c17.655 0 31.779-14.124 31.779-31.779s-14.124-31.779-31.779-31.779h-95.338zM357.517-48.711c-21.186 0-35.31 14.124-35.31 31.779s14.124 31.779 31.779 31.779h95.338c17.655 0 31.779-14.124 31.779-31.779s-14.124-31.779-31.779-31.779v0h-91.807zM576.441 894.076c-17.655 0-31.779 14.124-31.779 31.779s14.124 31.779 31.779 31.779h95.338c17.655 0 31.779-14.124 31.779-31.779s-14.124-31.779-31.779-31.779h-95.338zM357.517 894.076c-21.186 0-35.31 14.124-35.31 31.779s14.124 31.779 35.31 31.779h95.338c17.655 0 31.779-14.124 31.779-31.779s-14.124-31.779-31.779-31.779h-95.338zM103.283 516.255c-17.655 0-31.779 14.124-31.779 31.779v95.338c0 17.655 14.124 31.779 31.779 31.779s31.779-14.124 31.779-31.779v-95.338c3.531-17.655-14.124-31.779-31.779-31.779zM103.283 233.772c-17.655 0-31.779 14.124-31.779 31.779v95.338c0 17.655 14.124 31.779 31.779 31.779s31.779-14.124 31.779-31.779v-95.338c3.531-17.655-14.124-31.779-31.779-31.779zM922.483 516.255c-17.655 0-31.779 14.124-31.779 31.779v95.338c0 17.655 14.124 31.779 31.779 31.779s31.779-14.124 31.779-31.779v0-95.338c0-17.655-14.124-31.779-31.779-31.779zM922.483 233.772c-17.655 0-31.779 14.124-31.779 31.779v95.338c0 17.655 14.124 31.779 31.779 31.779s31.779-14.124 31.779-31.779v-95.338c0-17.655-14.124-31.779-31.779-31.779zM858.924 735.179c-7.062 0-17.655 3.531-24.717 10.593l-63.559 63.559c-10.593 14.124-10.593 35.31 0 45.903 14.124 10.593 31.779 10.593 45.903 0l63.559-63.559c14.124-14.124 14.124-31.779 0-45.903-3.531-7.062-14.124-10.593-21.186-10.593z" />
<glyph unicode="&#xe971;" glyph-name="d-print-warning2" horiz-adv-x="1026" d="M512.481 118.701c-35.009 0-61.265 28.444-61.265 61.265 0 35.009 28.444 61.265 61.265 61.265 35.009 0 61.265-28.444 61.265-61.265 2.188-32.821-26.256-61.265-61.265-61.265zM512.481 184.342c-2.188 0-2.188-2.188-2.188-2.188 0-2.188 6.564-2.188 6.564 0 0 0-2.188 2.188-4.376 2.188zM512.481 357.197c-17.504 0-32.821 15.316-32.821 32.821v236.308c0 17.504 15.316 32.821 32.821 32.821s32.821-15.316 32.821-32.821v-238.496c0-17.504-13.128-30.632-32.821-30.632zM847.251-58.53h-669.538c-96.274 0-172.855 76.581-172.855 172.855 0 26.256 6.564 52.513 17.504 76.581l334.769 669.538c41.573 85.333 146.598 120.342 231.932 76.581 32.821-17.504 61.265-43.761 76.581-76.581l334.769-669.538c0 0 0 0 0 0 41.573-85.333 8.752-190.359-76.581-231.932-21.88-10.94-50.325-17.504-76.581-17.504zM512.481 891.077c-39.385 0-78.769-21.88-96.274-59.077l-334.769-669.538c-6.564-15.316-10.94-30.632-10.94-48.137 0-59.077 48.137-107.214 107.214-107.214h669.538c17.504 0 32.821 4.376 48.137 10.94 52.513 26.256 74.393 91.897 48.137 144.41l-334.769 669.538c-10.94 19.692-28.444 37.197-48.137 48.137-15.316 6.564-30.632 10.94-48.137 10.94z" />
<glyph unicode="&#xe972;" glyph-name="common-file-dash" d="M101.583 764.274c-18.519 0-32.681 15.251-32.681 32.681v63.183c0 53.379 43.574 95.864 95.864 95.864h63.183c18.519 0 32.681-15.251 32.681-33.77 0-17.43-14.162-31.591-32.681-32.681h-63.183c-16.34 0-30.502-13.072-30.502-30.502v-63.183c0-17.43-14.162-31.591-32.681-31.591zM164.766-59.283c-53.379 0-95.864 43.574-95.864 95.864v63.183c0 18.519 14.162 32.681 32.681 33.77 18.519 0 32.681-14.162 33.77-32.681 0 0 0-1.089 0-1.089v-63.183c0-16.34 13.072-30.502 30.502-30.502h63.183c18.519 0 32.681-15.251 32.681-33.77 0-17.43-14.162-31.591-32.681-32.681h-64.272zM797.685-59.283c-18.519 0-32.681 15.251-32.681 33.77 0 17.43 14.162 31.591 32.681 32.681h64.272c16.34 0 30.502 13.072 30.502 30.502v63.183c0 18.519 14.162 32.681 32.681 33.77 18.519 0 32.681-14.162 33.77-32.681 0 0 0-1.089 0-1.089v-63.183c0-53.379-43.574-95.864-95.864-95.864l-65.362-1.089zM576.545-59.283c-18.519 0-32.681 15.251-32.681 33.77 0 17.43 14.162 31.591 32.681 32.681h94.774c18.519 0 32.681-14.162 33.77-32.681 0-18.519-14.162-32.681-32.681-33.77 0 0-1.089 0-1.089 0h-94.774zM355.404-59.283c-18.519 0-32.681 15.251-32.681 33.77 0 17.43 14.162 31.591 32.681 32.681h94.774c18.519 0 32.681-14.162 33.77-32.681 0-18.519-14.162-32.681-32.681-33.77 0 0-1.089 0-1.089 0h-94.774zM576.545 890.64c-18.519 0-32.681 15.251-32.681 33.77 0 17.43 14.162 31.591 32.681 32.681h94.774c18.519 0 32.681-14.162 33.77-32.681s-14.162-32.681-32.681-33.77c0 0-1.089 0-1.089 0h-94.774zM355.404 890.64c-18.519 0-32.681 15.251-32.681 33.77 0 17.43 14.162 31.591 32.681 32.681h94.774c18.519 0 32.681-14.162 33.77-32.681s-14.162-32.681-32.681-33.77c0 0-1.089 0-1.089 0h-94.774zM101.583 510.453c-18.519 0-32.681 15.251-32.681 32.681v94.774c0 18.519 15.251 32.681 33.77 32.681 17.43 0 31.591-14.162 32.681-32.681v-94.774c-1.089-18.519-15.251-32.681-33.77-32.681zM101.583 225.040c-18.519 0-32.681 15.251-32.681 32.681v94.774c0 18.519 15.251 32.681 33.77 32.681 17.43 0 31.591-14.162 32.681-32.681v-94.774c-1.089-17.43-15.251-32.681-33.77-32.681zM925.14 510.453c-18.519 0-32.681 15.251-32.681 32.681v94.774c0 18.519 14.162 32.681 32.681 33.77 18.519 0 32.681-14.162 33.77-32.681 0 0 0-1.089 0-1.089v-94.774c-1.089-18.519-16.34-32.681-33.77-32.681zM925.14 225.040c-18.519 0-32.681 15.251-32.681 32.681v94.774c0 18.519 15.251 32.681 33.77 32.681 17.43 0 31.591-14.162 32.681-32.681v-94.774c-1.089-17.43-16.34-32.681-33.77-32.681zM861.957 731.594c-8.715 0-17.43 3.268-22.877 9.804l-64.272 63.183c-13.072 13.072-13.072 33.77 0 46.843s33.77 13.072 46.843 0l63.183-63.183c13.072-13.072 13.072-33.77 0-46.843-6.536-5.447-14.162-9.804-22.877-9.804z" />
<glyph unicode="&#xe973;" glyph-name="common-file-rotate" d="M957.549 603.43c-14.162 0-26.145 8.715-30.502 21.787-13.072 33.77-32.681 65.362-57.736 91.506-42.485 41.396-96.953 67.54-156.868 72.987l20.698-43.574c7.626-16.34 0-35.949-16.34-43.574s-35.949 0-43.574 16.34v0l-56.647 124.187c-6.536 15.251-1.089 33.77 14.162 42.485l120.919 66.451c15.251 8.715 35.949 3.268 44.664-13.072 4.357-7.626 5.447-16.34 2.179-25.055-3.268-9.804-8.715-16.34-16.34-20.698l-70.809-39.217c76.255-5.447 149.243-38.128 203.711-91.506 32.681-32.681 57.736-71.898 72.987-115.472 6.536-17.43-2.179-35.949-19.609-41.396-3.268-2.179-7.626-2.179-10.894-2.179zM264.715-61.081c-17.43 0-32.681 14.162-32.681 32.681 0 11.983 6.536 22.877 17.43 28.323l69.719 38.128c-76.255 5.447-148.153 39.217-202.621 92.596-32.681 32.681-57.736 71.898-72.987 115.472-6.536 17.43 2.179 35.949 19.609 41.396 17.43 6.536 35.949-2.179 41.396-19.609 11.983-34.86 31.591-65.362 57.736-91.506 42.485-41.396 98.043-67.54 156.868-72.987l-20.698 44.664c-7.626 16.34 0 35.949 16.34 43.574s35.949 0 43.574-16.34l56.647-124.187c6.536-15.251 1.089-33.77-14.162-42.485l-120.919-66.451c-4.357-2.179-9.804-3.268-15.251-3.268zM111.115 384.468c-42.485 0-76.255 33.77-76.255 76.255v421.583c0 42.485 33.77 76.255 76.255 76.255h295.217c42.485 0 76.255-33.77 76.255-76.255v-421.583c0-42.485-33.77-76.255-76.255-76.255h-295.217zM111.115 893.2c-5.447 0-10.894-4.357-10.894-10.894v-421.583c0-5.447 4.357-10.894 10.894-10.894h295.217c5.447 0 10.894 4.357 10.894 10.894v421.583c0 5.447-4.357 10.894-10.894 10.894h-295.217zM619.847-61.081c-42.485 0-76.255 33.77-76.255 76.255v423.762c0 42.485 33.77 76.255 76.255 76.255h295.217c42.485 0 76.255-33.77 76.255-76.255v-423.762c0-42.485-33.77-76.255-76.255-76.255h-295.217zM619.847 449.83c-5.447 0-10.894-4.357-10.894-10.894v-423.762c0-5.447 4.357-10.894 10.894-10.894h295.217c5.447 0 10.894 4.357 10.894 10.894v423.762c0 5.447-4.357 10.894-10.894 10.894h-295.217z" />
<glyph unicode="&#xe974;" d="M891.548-58.435h-756.87c-52.313 0-95.722 43.409-95.722 96.835v819.2c0 53.426 43.409 96.835 96.835 96.835h632.209c0 0 0 0 0 0 25.6 0 48.974-10.017 66.783-27.826l124.661-121.322c18.922-17.809 28.939-43.409 28.939-69.009v-697.878c0-53.426-43.409-96.835-96.835-96.835zM135.791 887.652c-16.696 0-30.052-13.357-30.052-30.052v-819.2c0-16.696 13.357-30.052 30.052-30.052h756.87c16.696 0 30.052 13.357 30.052 30.052v698.991c0 7.791-3.339 15.583-8.904 21.148l-125.774 120.209c-5.565 5.565-12.243 8.904-20.035 8.904 0 0 0 0 0 0h-632.209z" />
<glyph unicode="&#xe975;" d="M768 572.661h-504.209c-18.922 0-33.391 14.47-33.391 33.391s14.47 33.391 33.391 33.391h504.209c18.922 0 33.391-14.47 33.391-33.391s-15.583-33.391-33.391-33.391z" />
<glyph unicode="&#xe976;" d="M768 383.443h-504.209c-18.922 0-33.391 14.47-33.391 33.391s14.47 33.391 33.391 33.391h504.209c18.922 0 33.391-14.47 33.391-33.391s-15.583-33.391-33.391-33.391z" />
<glyph unicode="&#xe977;" d="M515.339 194.226h-251.548c-18.922 0-33.391 14.47-33.391 33.391s14.47 33.391 33.391 33.391h252.661c18.922 0 33.391-14.47 33.391-33.391s-15.583-33.391-34.504-33.391z" />
<glyph unicode="&#xe978;" glyph-name="common-file-text-1" d="M969.228 807.591l-128.595 126.214c-16.67 16.67-38.102 26.195-61.916 26.195 0 0 0 0 0 0h-652.502c-50.009 0-90.493-40.484-90.493-90.493v-845.395c0-50.009 40.484-88.112 88.112-88.112h781.098c50.009 0 88.112 40.484 88.112 88.112v721.563c2.381 23.814-7.144 45.247-23.814 61.916zM947.795 24.112c0-23.814-19.051-40.484-40.484-40.484h-781.098c-23.814 0-40.484 19.051-40.484 40.484v845.395c-2.381 23.814 16.67 42.865 40.484 42.865h652.502c11.907 0 21.433-4.763 28.577-11.907l128.595-126.214c7.144-7.144 11.907-19.051 11.907-28.577v-721.563zM750.14 657.563h-516.763c-14.288 0-23.814-9.526-23.814-23.814s9.526-23.814 23.814-23.814h516.763c14.288 0 23.814 9.526 23.814 23.814s-9.526 23.814-23.814 23.814zM750.14 462.288h-516.763c-14.288 0-23.814-9.526-23.814-23.814s9.526-23.814 23.814-23.814h516.763c14.288 0 23.814 9.526 23.814 23.814s-9.526 23.814-23.814 23.814zM509.619 267.014h-288.149c-14.288 0-23.814-9.526-23.814-23.814s9.526-23.814 23.814-23.814h288.149c14.288 0 23.814 9.526 23.814 23.814s-9.526 23.814-23.814 23.814z" />
<glyph unicode="&#xe979;" d="M901.689-69.689h-779.378c-51.2 0-93.867 42.667-93.867 93.867v841.956c0 51.2 42.667 93.867 93.867 93.867h651.378c0 0 0 0 0 0 22.756 0 48.356-11.378 65.422-28.444l128-125.156c17.067-17.067 28.444-42.667 28.444-65.422v-716.8c-2.844-54.044-42.667-93.867-93.867-93.867zM773.689 903.111c0 0 0 0 0 0h-651.378c-19.911 0-36.978-17.067-36.978-36.978v-841.956c0-19.911 17.067-36.978 36.978-36.978h776.533c19.911 0 36.978 17.067 36.978 36.978v0 716.8c0 8.533-2.844 19.911-11.378 25.6l-128 125.156c-5.689 5.689-14.222 11.378-22.756 11.378z" />
<glyph unicode="&#xe97a;" d="M773.689 578.844h-520.533c-17.067 0-28.444 11.378-28.444 28.444s11.378 28.444 28.444 28.444h517.689c17.067 0 28.444-11.378 28.444-28.444 2.844-17.067-11.378-28.444-25.6-28.444z" />
<glyph unicode="&#xe97b;" d="M773.689 382.578h-520.533c-17.067 0-28.444 11.378-28.444 28.444s11.378 28.444 28.444 28.444h517.689c17.067 0 28.444-11.378 28.444-28.444 2.844-14.222-11.378-28.444-25.6-28.444z" />
<glyph unicode="&#xe97c;" d="M514.844 189.156h-261.689c-17.067 0-28.444 11.378-28.444 28.444s11.378 28.444 28.444 28.444h258.844c17.067 0 28.444-11.378 28.444-28.444 2.844-17.067-11.378-28.444-25.6-28.444z" />
<glyph unicode="&#xe97d;" glyph-name="Ellipse_1" d="M1011.2 448c0-275.701-223.499-499.2-499.2-499.2s-499.2 223.499-499.2 499.2c0 275.701 223.499 499.2 499.2 499.2s499.2-223.499 499.2-499.2z" />
<glyph unicode="&#xe97e;" glyph-name="Ellipse_2" d="M1011.2 448c0-275.701-223.499-499.2-499.2-499.2s-499.2 223.499-499.2 499.2c0 275.701 223.499 499.2 499.2 499.2s499.2-223.499 499.2-499.2z" />
<glyph unicode="&#xe97f;" glyph-name="Ellipse_3" d="M1011.2 448c0-275.701-223.499-499.2-499.2-499.2s-499.2 223.499-499.2 499.2c0 275.701 223.499 499.2 499.2 499.2s499.2-223.499 499.2-499.2z" />
<glyph unicode="&#xe980;" glyph-name="Ellipse_4" d="M1011.2 448c0-275.701-223.499-499.2-499.2-499.2s-499.2 223.499-499.2 499.2c0 275.701 223.499 499.2 499.2 499.2s499.2-223.499 499.2-499.2z" />
<glyph unicode="&#xe981;" glyph-name="Ellipse_5" d="M1011.2 448c0-275.701-223.499-499.2-499.2-499.2s-499.2 223.499-499.2 499.2c0 275.701 223.499 499.2 499.2 499.2s499.2-223.499 499.2-499.2z" />
<glyph unicode="&#xe982;" glyph-name="Ellipse_6" d="M1011.2 448c0-275.701-223.499-499.2-499.2-499.2s-499.2 223.499-499.2 499.2c0 275.701 223.499 499.2 499.2 499.2s499.2-223.499 499.2-499.2z" />
<glyph unicode="&#xe983;" d="M48.356 547.556h924.444c26.548 0 47.407-20.859 47.407-47.407v-99.556c0-26.548-20.859-47.407-47.407-47.407h-924.444c-26.548 0-47.407 20.859-47.407 47.407v99.556c0 26.548 20.859 47.407 47.407 47.407z" />
<glyph unicode="&#xe984;" d="M972.8 353.185h-924.444c-26.548 0-47.407 20.859-47.407 47.407v99.556c0 26.548 20.859 47.407 47.407 47.407h924.444c26.548 0 47.407-20.859 47.407-47.407v-99.556c0-26.548-21.807-47.407-47.407-47.407zM48.356 538.074c-20.859 0-37.926-17.067-37.926-37.926v-99.556c0-20.859 17.067-37.926 37.926-37.926h924.444c20.859 0 37.926 17.067 37.926 37.926v99.556c0 20.859-17.067 37.926-37.926 37.926h-924.444z" />
<glyph unicode="&#xe985;" d="M829.63 464.792l32.237-36.978c0.948-0.948 2.844-0.948 4.741 0 0 0 0 0 0 0l32.237 36.978c0.948 0.948 0.948 2.844 0 3.793 0 0 0 0 0 0l-5.689 4.741c-0.948 0.948-2.844 0.948-3.793 0l-23.704-27.496c0 0-0.948 0-0.948 0s0 0 0 0l-23.704 27.496c-0.948 0.948-0.948 0.948-1.896 0.948s-1.896 0-1.896-0.948l-5.689-4.741c-2.844-0.948-2.844-2.844-1.896-3.793 0 0 0 0 0 0v0z" />
<glyph unicode="&#xe986;" d="M48.356 731.496h923.496c26.548 0 47.407-20.859 47.407-47.407v-471.23c0-26.548-20.859-47.407-47.407-47.407h-923.496c-26.548 0-47.407 20.859-47.407 47.407v472.178c0 25.6 20.859 46.459 47.407 46.459z" />
<glyph unicode="&#xe987;" d="M971.852 165.452h-923.496c-26.548 0-47.407 20.859-47.407 47.407v472.178c0 26.548 20.859 47.407 47.407 47.407h923.496c26.548 0 47.407-20.859 47.407-47.407v-471.23c0-26.548-20.859-48.356-47.407-48.356zM48.356 722.015c-20.859 0-37.926-17.067-37.926-37.926v-471.23c0-20.859 17.067-37.926 37.926-37.926h923.496c20.859 0 37.926 17.067 37.926 37.926v472.178c0 20.859-17.067 37.926-37.926 37.926h-923.496z" />
<glyph unicode="&#xe988;" d="M47.407 547.556h924.444c26.548 0 47.407-20.859 47.407-47.407v-99.556c0-26.548-20.859-47.407-47.407-47.407h-924.444c-26.548 0-47.407 20.859-47.407 47.407v99.556c0 26.548 21.807 47.407 47.407 47.407z" />
<glyph unicode="&#xe989;" d="M972.8 353.185h-925.393c-26.548 0-47.407 20.859-47.407 47.407v99.556c0 26.548 20.859 47.407 47.407 47.407h924.444c26.548 0 47.407-20.859 47.407-47.407v-99.556c0.948-26.548-20.859-47.407-46.459-47.407zM47.407 538.074c-20.859 0-37.926-17.067-37.926-37.926v-99.556c0-20.859 17.067-37.926 37.926-37.926h924.444c20.859 0 37.926 17.067 37.926 37.926v99.556c0 20.859-17.067 37.926-37.926 37.926h-924.444z" />
<glyph unicode="&#xe98a;" glyph-name="form_4" d="M976.593 353.185h-18.015v9.481h18.015c5.689 0 11.378 0.948 17.067 3.793l4.741-8.533c-7.585-2.844-14.222-4.741-21.807-4.741zM920.652 353.185h-37.926v9.481h37.926v-9.481zM844.8 353.185h-37.926v9.481h37.926v-9.481zM768.948 353.185h-37.926v9.481h37.926v-9.481zM693.096 353.185h-37.926v9.481h37.926v-9.481zM617.244 353.185h-37.926v9.481h37.926v-9.481zM541.393 353.185h-37.926v9.481h37.926v-9.481zM465.541 353.185h-37.926v9.481h37.926v-9.481zM389.689 353.185h-37.926v9.481h37.926v-9.481zM313.837 353.185h-37.926v9.481h37.926v-9.481zM237.985 353.185h-37.926v9.481h37.926v-9.481zM162.133 353.185h-37.926v9.481h37.926v-9.481zM86.281 353.185h-37.926v9.481h37.926v-9.481zM11.378 370.252c-6.637 8.533-11.378 18.963-11.378 30.341v7.585h9.481v-7.585c0-9.481 2.844-18.015 9.481-24.652l-7.585-5.689zM1023.052 391.111l-9.481 1.896c0.948 2.844 0.948 5.689 0.948 7.585v28.444h9.481v-28.444c0-2.844-0.948-6.637-0.948-9.481zM9.481 446.104h-9.481v37.926h9.481v-37.926zM1024 467.911h-9.481v27.496c0 2.844 0 5.689-0.948 8.533l9.481 1.896c0.948-3.793 0.948-7.585 0.948-11.378v-26.548zM17.067 518.163l-7.585 4.741c8.533 11.378 21.807 18.963 36.030 18.963l0.948-9.481c-12.326 0-22.756-5.689-29.393-14.222zM992.711 529.541c-4.741 2.844-10.43 3.793-16.119 3.793h-18.963v9.481h18.963c7.585 0 14.222-1.896 19.911-4.741l-3.793-8.533zM919.704 533.333h-37.926v9.481h37.926v-9.481zM843.852 533.333h-37.926v9.481h37.926v-9.481zM768 533.333h-37.926v9.481h37.926v-9.481zM692.148 533.333h-37.926v9.481h37.926v-9.481zM616.296 533.333h-37.926v9.481h37.926v-9.481zM540.444 533.333h-37.926v9.481h37.926v-9.481zM464.593 533.333h-37.926v9.481h37.926v-9.481zM388.741 533.333h-37.926v9.481h37.926v-9.481zM312.889 533.333h-37.926v9.481h37.926v-9.481zM237.037 533.333h-37.926v9.481h37.926v-9.481zM161.185 533.333h-37.926v9.481h37.926v-9.481zM85.333 533.333h-37.926v9.481h37.926v-9.481z" />
<glyph unicode="&#xe98b;" glyph-name="password-type" horiz-adv-x="2048" d="M1472 192c-35.346 0-64 28.654-64 64s28.654 64 64 64v0h256c35.346 0 64-28.654 64-64s-28.654-64-64-64v0zM192-64c-106 0.097-191.903 86.001-192 191.991v640.009c0.097 106 86.001 191.903 191.991 192h1664.009c106-0.097 191.903-86.001 192-191.991v-640.009c-0.097-106-86.001-191.903-191.991-192h-0.009zM192 832c-35.346 0-64-28.654-64-64v0-640c0-35.346 28.654-64 64-64v0h1664c35.346 0 64 28.654 64 64v0 640c0 35.346-28.654 64-64 64v0zM640 192c-0.057 0-0.124 0-0.192 0-17.609 0-33.541 7.179-45.030 18.769l-114.778 114.778-114.773-114.773c-11.56-11.606-27.555-18.788-45.227-18.788s-33.667 7.182-45.225 18.786l-0.002 0.002c-11.549 11.602-18.689 27.602-18.689 45.269s7.14 33.667 18.692 45.272l114.771 114.771-114.773 114.688c-11.565 11.579-18.717 27.568-18.717 45.227 0 35.326 28.622 63.968 63.941 64h0.003c0.057 0 0.124 0 0.192 0 17.609 0 33.541-7.179 45.030-18.769l114.778-114.778 114.773 114.773c11.493 11.595 27.426 18.774 45.035 18.774 0.067 0 0.135 0 0.202 0h-0.010c35.322-0.032 63.944-28.674 63.944-64 0-17.659-7.152-33.648-18.718-45.227l-114.772-114.772 114.773-114.773c11.637-11.578 18.838-27.604 18.838-45.312 0-35.299-28.616-63.915-63.915-63.915-0.053 0-0.106 0-0.158 0h0.008zM1216 192c-0.057 0-0.124 0-0.192 0-17.609 0-33.541 7.179-45.030 18.769l-114.778 114.778-114.773-114.773c-11.56-11.606-27.555-18.788-45.227-18.788s-33.667 7.182-45.225 18.786l-0.002 0.002c-11.549 11.602-18.689 27.602-18.689 45.269s7.14 33.667 18.692 45.272l114.771 114.771-114.773 114.688c-11.565 11.579-18.717 27.568-18.717 45.227 0 35.326 28.622 63.968 63.941 64h0.003c0.057 0 0.124 0 0.192 0 17.609 0 33.541-7.179 45.030-18.769l114.778-114.778 114.773 114.773c11.507 11.595 27.45 18.774 45.070 18.774 0.055 0 0.11 0 0.165 0h-0.009c35.322-0.032 63.944-28.674 63.944-64 0-17.659-7.152-33.648-18.718-45.227l-114.772-114.772 114.773-114.773c11.637-11.578 18.838-27.604 18.838-45.312 0-35.299-28.616-63.915-63.915-63.915-0.053 0-0.106 0-0.158 0h0.008z" />
<glyph unicode="&#xe98c;" glyph-name="Locked" d="M797.257 586.971h-29.257v124.343c0 138.971-109.714 248.686-248.686 248.686s-248.686-109.714-248.686-248.686v-124.343h-29.257c-51.2 0-95.086-43.886-95.086-95.086v-431.543c0-51.2 43.886-95.086 95.086-95.086h555.886c51.2 0 95.086 43.886 95.086 95.086v431.543c0 51.2-43.886 95.086-95.086 95.086zM548.571 265.143v-51.2c0-14.629-14.629-29.257-29.257-29.257s-29.257 14.629-29.257 29.257v51.2c-29.257 14.629-43.886 43.886-43.886 65.829 0 36.571 36.571 73.143 73.143 73.143v0c29.257 0 51.2-14.629 65.829-43.886s0-73.143-36.571-95.086zM702.171 586.971h-365.714v124.343c0 102.4 80.457 182.857 182.857 182.857s182.857-80.457 182.857-182.857v-124.343z" />
<glyph unicode="&#xe98d;" d="M874.146 810.146c-14.985 14.985-34.966 34.966-54.946 49.951-4.995 4.995-14.985 9.99-19.98 14.985-14.985 9.99-24.976 14.985-39.961 24.976-74.927 34.966-159.844 59.941-244.761 59.941s-174.829-24.976-244.761-59.941c-14.985-9.99-29.971-19.98-44.956-29.971-4.995-4.995-9.99-4.995-19.98-9.99-39.961-29.971-74.927-64.937-104.898-104.898-14.985-19.98-24.976-39.961-39.961-64.937-34.966-69.932-59.941-154.849-59.941-239.766 0-89.912 19.98-169.834 59.941-244.761 14.985-24.976 24.976-44.956 39.961-64.937s29.971-39.961 49.951-54.946c89.912-89.912 219.785-149.854 359.649-149.854 284.722 0 509.502 229.776 509.502 509.502 4.995 144.859-49.951 269.737-144.859 364.644zM514.498-14.049c-254.751 0-459.551 204.8-459.551 459.551-4.995 254.751 204.8 464.546 459.551 464.546s459.551-204.8 459.551-459.551c0-254.751-204.8-464.546-459.551-464.546z" />
<glyph unicode="&#xe98e;" d="M719.298 505.444l-84.917-84.917 9.99-39.961 14.985-79.922c4.995-19.98-9.99-29.971-29.971-19.98l-79.922 39.961-34.966 14.985-34.966-19.98-69.932-34.966c-19.98-9.99-34.966 0-29.971 19.98l14.985 79.922 4.995 39.961-84.917 84.917c-19.98 14.985-14.985 29.971 9.99 34.966l74.927 9.99 39.961 4.995 54.946 109.893c9.99 19.98 24.976 19.98 34.966 4.995l39.961-74.927 19.98-39.961 39.961-4.995 74.927-9.99c24.976-4.995 29.971-19.98 14.985-34.966z" />
<glyph unicode="&#xe98f;" d="M47.407 547.556h925.393c26.548 0 47.407-20.859 47.407-47.407v-99.556c0-26.548-20.859-47.407-47.407-47.407h-925.393c-26.548 0-47.407 20.859-47.407 47.407v99.556c0 26.548 20.859 47.407 47.407 47.407z" />
<glyph unicode="&#xe990;" d="M972.8 353.185h-925.393c-26.548 0-47.407 20.859-47.407 47.407v99.556c0 26.548 20.859 47.407 47.407 47.407h925.393c26.548 0 47.407-20.859 47.407-47.407v-99.556c0-26.548-20.859-47.407-47.407-47.407zM47.407 538.074c-20.859 0-37.926-17.067-37.926-37.926v-99.556c0-20.859 17.067-37.926 37.926-37.926h925.393c20.859 0 37.926 17.067 37.926 37.926v99.556c0 20.859-17.067 37.926-37.926 37.926h-925.393z" />
<glyph unicode="&#xe991;" glyph-name="message_1" d="M944.356 671.763c-37.926 37.926-87.23 56.889-140.326 56.889h-610.607c-53.096 0-102.4-22.756-140.326-60.681-34.133-34.133-53.096-83.437-53.096-136.533 3.793-53.096 22.756-102.4 60.681-140.326s87.23-56.889 140.326-56.889h360.296l151.704-151.704 212.385 193.422c49.304 37.926 75.852 94.815 75.852 155.496 0 53.096-18.963 102.4-56.889 140.326zM891.259 421.452l-174.459-159.289-128.948 128.948h-386.844c-37.926 0-72.059 15.17-98.607 37.926-30.341 30.341-45.511 64.474-45.511 102.4s15.17 72.059 37.926 98.607c30.341 26.548 64.474 41.719 102.4 45.511h610.607c37.926 0 72.059-15.17 98.607-41.719s41.719-60.681 41.719-98.607c-3.793-45.511-22.756-87.23-56.889-113.778z" />
<glyph unicode="&#xe992;" glyph-name="message_2" d="M948.148 671.763c-37.926 37.926-87.23 56.889-140.326 56.889h-614.4c-53.096 0-102.4-22.756-140.326-60.681-34.133-34.133-53.096-83.437-53.096-136.533s22.756-102.4 60.681-140.326c37.926-37.926 87.23-56.889 140.326-56.889h364.089l151.704-151.704 212.385 197.215c49.304 37.926 75.852 94.815 75.852 155.496 0 49.304-22.756 98.607-56.889 136.533zM891.259 421.452l-174.459-159.289-128.948 128.948h-386.844c-37.926 0-72.059 15.17-98.607 37.926-30.341 30.341-45.511 64.474-45.511 102.4s15.17 72.059 41.719 98.607 60.681 41.719 98.607 41.719h610.607c37.926 0 72.059-15.17 98.607-41.719 26.548-22.756 41.719-60.681 41.719-98.607 0-41.719-18.963-83.437-56.889-109.985z" />
<glyph unicode="&#xe993;" glyph-name="message_3" d="M897.506 773.271c-60.235 60.235-138.541 90.353-222.871 90.353h-355.388c-174.682 0-313.224-138.541-313.224-313.224 0-84.329 30.118-162.635 90.353-222.871s138.541-90.353 222.871-90.353h301.176l114.447-234.918 114.447 289.129c84.329 60.235 138.541 156.612 138.541 259.012 0 84.329-30.118 162.635-90.353 222.871zM789.082 363.671l-12.047-6.024-54.212-132.518-48.188 102.4h-355.388c-60.235 0-114.447 24.094-156.612 66.259-48.188 42.165-66.259 102.4-66.259 156.612 0 120.471 102.4 222.871 222.871 222.871h355.388c120.471 0 222.871-102.4 222.871-222.871 0-78.306-42.165-150.588-108.424-186.729z" />
<glyph unicode="&#xe994;" glyph-name="Rating" d="M1015.467 516.267c0 34.133-34.133 59.733-59.733 59.733h-256l-128 341.333c-8.533 8.533-17.067 17.067-25.6 25.6-34.133 17.067-76.8 8.533-93.867-25.6l-128-341.333h-247.467c-17.067 0-34.133-8.533-51.2-17.067-25.6-34.133-17.067-68.267 0-93.867l221.867-153.6-119.467-281.6c-8.533-17.067-8.533-42.667 0-59.733 17.067-34.133 59.733-42.667 93.867-25.6l290.133 170.667 290.133-162.133c17.067-8.533 42.667-8.533 59.733 0 34.133 17.067 51.2 51.2 34.133 85.333l-119.467 273.067 213.333 153.6c17.067 17.067 25.6 34.133 25.6 51.2z" />
<glyph unicode="&#xe995;" glyph-name="streamline-icon-calendar-124x24" d="M956.026 867.906h-65.782v67.974c0 10.964-8.771 21.927-21.927 21.927-10.964 0-21.927-8.771-21.927-21.927v-67.974h-133.756v67.974c0 10.964-8.771 21.927-21.927 21.927-10.964 0-21.927-8.771-21.927-21.927v-67.974h-133.756v67.974c0 10.964-8.771 21.927-21.927 21.927-10.964 0-21.927-8.771-21.927-21.927v-67.974h-133.756v67.974c0 10.964-8.771 21.927-21.927 21.927-10.964 0-21.927-8.771-21.927-21.927v-67.974h-133.756v67.974c0 10.964-8.771 21.927-21.927 21.927-10.964 0-21.927-8.771-21.927-21.927v-67.974h-67.974c-37.276 0-65.782-30.698-65.782-65.782v-798.15c0-37.276 30.698-65.782 65.782-65.782h888.051c37.276 0 65.782 30.698 65.782 65.782v798.15c0 37.276-28.505 65.782-65.782 65.782zM977.953 3.974c0-13.156-10.964-21.927-21.927-21.927h-888.051c-13.156 0-21.927 10.964-21.927 21.927v798.15c0 13.156 10.964 21.927 21.927 21.927h65.782v-21.927c0-10.964 8.771-21.927 21.927-21.927 10.964 0 21.927 8.771 21.927 21.927v21.927h133.756v-21.927c0-10.964 8.771-21.927 21.927-21.927 10.964 0 21.927 8.771 21.927 21.927v21.927h133.756v-21.927c0-10.964 8.771-21.927 21.927-21.927 10.964 0 21.927 8.771 21.927 21.927v21.927h133.756v-21.927c0-10.964 8.771-21.927 21.927-21.927 10.964 0 21.927 8.771 21.927 21.927v21.927h133.756v-21.927c0-10.964 8.771-21.927 21.927-21.927 10.964 0 21.927 8.771 21.927 21.927v21.927h65.782c13.156 0 21.927-10.964 21.927-21.927v-798.15zM888.051 580.66c0 37.276-30.698 65.782-65.782 65.782h-133.756c0 0 0 0 0 0s0 0 0 0h-133.756c-37.276 0-65.782-30.698-65.782-65.782v-111.829h-155.683c0 0 0 0 0 0h-131.563c-37.276 0-65.782-30.698-65.782-65.782v-267.512c0-37.276 30.698-65.782 65.782-65.782h133.756c0 0 0 0 0 0h355.221c0 0 0 0 0 0h133.756c37.276 0 65.782 30.698 65.782 65.782v311.366c0 0 0 0 0 0v133.756zM179.803 403.049c0 13.156 10.964 21.927 21.927 21.927h111.829v-133.756h-133.756v111.829zM313.559 113.61h-111.829c-13.156 0-21.927 10.964-21.927 21.927v111.829h133.756v-133.756zM491.169 113.61h-133.756v133.756h133.756v-133.756zM491.169 291.221h-133.756v133.756h133.756v-133.756zM535.024 580.66c0 13.156 10.964 21.927 21.927 21.927h111.829v-133.756h-133.756v111.829zM668.779 113.61h-133.756v133.756h133.756v-133.756zM668.779 291.221h-133.756v133.756h133.756v-133.756zM712.634 602.587h111.829c13.156 0 21.927-10.964 21.927-21.927v-111.829h-133.756v133.756zM846.39 137.73c0-13.156-10.964-21.927-21.927-21.927h-111.829v133.756h133.756v-111.829zM846.39 291.221h-133.756v133.756h133.756v-133.756z" />
<glyph unicode="&#xe996;" glyph-name="streamline-icon-folder-file24x24" horiz-adv-x="896" d="M887.607 731.279c0 2.098-2.098 2.098-2.098 4.197-2.098 6.295-6.295 10.492-10.492 16.787l-188.852 186.754c-4.197 4.197-10.492 8.393-14.689 10.492-2.098 2.098-4.197 2.098-6.295 2.098-8.393 2.098-14.689 4.197-23.082 4.197h-449.049c-35.672 0-62.951-29.377-62.951-62.951v-446.951h-62.951c-35.672 0-62.951-29.377-62.951-62.951v-381.902c0-35.672 29.377-62.951 62.951-62.951h509.902c35.672 0 62.951 29.377 62.951 62.951v20.984h190.951c0 0 0 0 0 0 35.672 0 62.951 27.279 62.951 62.951v621.115c-2.098 8.393-2.098 16.787-6.295 25.18zM679.869 886.557l140.59-140.59h-119.607c-12.59 0-20.984 10.492-20.984 20.984v119.607zM595.934 3.148c0-12.59-10.492-20.984-20.984-20.984h-509.902c-12.59 0-20.984 10.492-20.984 20.984v381.902c0 12.59 10.492 20.984 20.984 20.984h107.016c6.295 0 12.59-4.197 16.787-8.393l37.77-50.361c12.59-16.787 31.475-25.18 50.361-25.18 0 0 0 0 0 0h297.967c12.59 0 20.984-10.492 20.984-20.984v-297.967zM851.934 87.082c0-12.59-10.492-20.984-20.984-20.984 0 0 0 0 0 0h-190.951v235.016c0 35.672-29.377 62.951-62.951 62.951 0 0 0 0 0 0h-300.066c0 0 0 0 0 0-6.295 0-12.59 4.197-16.787 8.393l-37.77 50.361c-12.59 16.787-31.475 25.18-50.361 25.18v0 446.951c0 12.59 10.492 20.984 20.984 20.984h446.951v-148.984c0-35.672 29.377-62.951 62.951-62.951h148.984v-616.918zM276.984 704h274.885c10.492 0 20.984 8.393 20.984 20.984s-8.393 20.984-20.984 20.984h-274.885c-10.492 0-20.984-8.393-20.984-20.984s10.492-20.984 20.984-20.984zM276.984 576h318.951c10.492 0 20.984 8.393 20.984 20.984 0 10.492-8.393 20.984-20.984 20.984h-318.951c-10.492 0-20.984-8.393-20.984-20.984 0-10.492 10.492-20.984 20.984-20.984zM256 468.984c0-10.492 8.393-20.984 20.984-20.984h444.852c10.492 0 20.984 8.393 20.984 20.984 0 10.492-8.393 20.984-20.984 20.984h-444.852c-10.492 0-20.984-8.393-20.984-20.984z" />
<glyph unicode="&#xe997;" glyph-name="streamline-icon-module-hand-puzzle24x24" horiz-adv-x="1032" d="M870.189 228.872l-153.811-48.461c-4.214 31.605-25.284 52.675-52.675 52.675h-147.49c-4.214 2.107-14.749 10.535-23.177 16.856-35.819 25.284-94.815 69.531-170.667 69.531h-107.457c0 23.177-18.963 42.14-42.14 42.14h-128.527c-23.177 0-42.14-18.963-42.14-42.14v-299.193c0-23.177 18.963-42.14 42.14-42.14h128.527c23.177 0 42.14 18.963 42.14 42.14v10.535c35.819-12.642 67.424-23.177 96.922-33.712 111.671-37.926 174.881-61.103 231.77-61.103 69.531 0 130.634 31.605 263.374 101.136 54.782 29.498 122.206 65.317 210.7 109.564 6.321 2.107 10.535 8.428 10.535 14.749 2.107 6.321 0 12.642-4.214 16.856-35.819 48.461-96.922 67.424-153.811 50.568zM170.667 20.28h-128.527v299.193c0 0 0 0 0 0h128.527v-299.193zM785.909 75.062c-225.449-120.099-225.449-120.099-461.432-40.033-31.605 10.535-69.531 23.177-111.671 37.926v202.272h107.457c61.103 0 111.671-37.926 145.383-61.103 21.070-14.749 33.712-25.284 46.354-25.284h149.597c8.428 0 10.535-14.749 10.535-21.070s-2.107-21.070-10.535-21.070h-233.877c-12.642 0-21.070-8.428-21.070-21.070s8.428-21.070 21.070-21.070h235.984c18.963 0 35.819 10.535 44.247 27.391l174.881 54.782c29.498 8.428 63.21 2.107 86.387-16.856-73.745-35.819-134.848-67.424-183.309-94.815zM646.848 336.329c12.642-12.642 29.498-18.963 44.247-18.963 16.856 0 33.712 6.321 44.247 18.963l67.424 67.424c16.856 16.856 16.856 44.247 0 58.996-4.214 4.214-8.428 6.321-14.749 10.535-8.428 4.214-14.749 8.428-21.070 14.749-12.642 12.642-18.963 27.391-18.963 46.354 0 16.856 6.321 33.712 18.963 46.354s27.391 18.963 46.354 18.963c0 0 0 0 0 0 16.856 0 33.712-6.321 46.354-18.963 6.321-6.321 10.535-12.642 14.749-21.070 8.428-21.070 33.712-31.605 54.782-23.177 6.321 2.107 10.535 6.321 14.749 10.535l67.424 67.424c25.284 25.284 25.284 65.317 0 90.601l-46.354 46.354c14.749 8.428 25.284 21.070 33.712 35.819 14.749 25.284 16.856 52.675 10.535 80.066-8.428 27.391-25.284 50.568-50.568 65.317s-52.675 16.856-80.066 10.535c-25.284-6.321-46.354-23.177-61.103-44.247l-46.354 46.354c-25.284 25.284-65.317 25.284-90.601 0l-61.103-61.103c-8.428-8.428-12.642-18.963-12.642-29.498s4.214-21.070 12.642-29.498c2.107-2.107 4.214-4.214 6.321-6.321 29.498-18.963 37.926-58.996 18.963-88.494s-58.996-37.926-88.494-18.963c-6.321 4.214-12.642 10.535-18.963 18.963-12.642 18.963-40.033 25.284-58.996 12.642-2.107-2.107-4.214-4.214-6.321-6.321l-63.21-61.103c-25.284-25.284-25.284-65.317 0-90.601l238.091-248.626zM434.041 639.737l63.21 61.103c8.428-12.642 18.963-21.070 29.498-29.498 23.177-14.749 52.675-21.070 80.066-14.749s52.675 21.070 67.424 46.354c14.749 23.177 21.070 52.675 14.749 80.066s-21.070 52.675-46.354 67.424l61.103 61.103c8.428 8.428 23.177 8.428 31.605 0l67.424-69.531c6.321-6.321 12.642-6.321 21.070-6.321 6.321 2.107 12.642 8.428 14.749 14.749 6.321 21.070 23.177 40.033 46.354 46.354 16.856 4.214 33.712 2.107 48.461-6.321s25.284-23.177 29.498-40.033c8.428-33.712-10.535-69.531-46.354-80.066-6.321-2.107-12.642-8.428-14.749-14.749s0-14.749 6.321-21.070l67.424-67.424c8.428-8.428 8.428-23.177 0-31.605l-67.424-67.424c-6.321 12.642-12.642 25.284-23.177 35.819-21.070 21.070-46.354 31.605-75.852 31.605 0 0 0 0 0 0-29.498 0-54.782-10.535-75.852-31.605s-31.605-46.354-31.605-75.852c0-29.498 10.535-54.782 31.605-75.852 0 0 0 0 0 0 10.535-10.535 23.177-18.963 35.819-25.284l-67.424-67.424c-8.428-8.428-23.177-8.428-31.605 0l-235.984 248.626c-8.428 8.428-8.428 23.177 0 31.605z" />
<glyph unicode="&#xe998;" glyph-name="streamline-icon-stopwatch24x24" horiz-adv-x="852" d="M740.721 649.443l46.164 46.164 6.295-6.295c4.197-4.197 10.492-6.295 14.689-6.295s10.492 2.098 14.689 6.295c8.393 8.393 8.393 20.984 0 29.377l-20.984 20.984c0 0 0 0 0 0s0 0 0 0l-20.984 20.984c-8.393 8.393-20.984 8.393-29.377 0s-8.393-20.984 0-29.377l6.295-6.295-46.164-46.164c-54.557 50.361-123.803 86.033-199.344 100.721v138.492h41.967c12.59 0 20.984 8.393 20.984 20.984s-8.393 20.984-20.984 20.984h-253.902c-12.59 0-20.984-8.393-20.984-20.984s8.393-20.984 20.984-20.984h41.967v-136.393c-195.148-39.869-342.033-211.934-342.033-417.574 0-235.016 190.951-425.967 425.967-425.967s425.967 190.951 425.967 425.967c0 109.115-41.967 209.836-111.213 285.377zM384 918.033h86.033v-130.098c-14.689 2.098-29.377 2.098-41.967 2.098v0c-14.689 0-29.377 0-41.967-2.098v130.098zM425.967-19.934c-211.934 0-384 172.066-384 384s172.066 384 384 384v0c211.934 0 384-172.066 384-384s-172.066-384-384-384zM249.705 569.705c-8.393 8.393-20.984 8.393-29.377 0s-8.393-20.984 0-29.377l190.951-190.951c4.197-4.197 10.492-6.295 14.689-6.295s10.492 2.098 14.689 6.295c8.393 8.393 8.393 20.984 0 29.377l-190.951 190.951z" />
<glyph unicode="&#xe999;" glyph-name="streamline-icon-task-list-edit24x24" horiz-adv-x="1028" d="M784.787 406.033c-10.492 0-20.984-8.393-20.984-20.984v-337.836c0-16.787-6.295-33.574-18.885-46.164s-27.279-18.885-46.164-18.885h-589.639c0 0 0 0 0 0-16.787 0-33.574 6.295-46.164 18.885s-18.885 27.279-18.885 46.164v803.672c0 18.885 6.295 33.574 18.885 46.164s27.279 18.885 46.164 18.885h107.016v-44.066h-62.951c-35.672 0-62.951-29.377-62.951-62.951v-719.738c0-35.672 29.377-62.951 62.951-62.951h507.803c35.672 0 62.951 29.377 62.951 62.951v211.934c0 10.492-8.393 20.984-20.984 20.984s-20.984-8.393-20.984-20.984v-211.934c0-12.59-10.492-20.984-20.984-20.984h-509.902c-12.59 0-20.984 10.492-20.984 20.984v719.738c0 12.59 10.492 20.984 20.984 20.984h67.148c8.393-25.18 31.475-41.967 58.754-41.967h253.902c27.279 0 50.361 16.787 58.754 41.967h67.148c12.59 0 20.984-10.492 20.984-20.984v-83.934c0-10.492 8.393-20.984 20.984-20.984s20.984 8.393 20.984 20.984v83.934c0 35.672-29.377 62.951-62.951 62.951h-62.951v44.066h107.016c16.787 0 33.574-6.295 46.164-18.885s18.885-27.279 18.885-46.164v-41.967c0-10.492 8.393-20.984 20.984-20.984 10.492 0 20.984 8.393 20.984 20.984v41.967c0 27.279-10.492 54.557-31.475 75.541-18.885 18.885-46.164 31.475-75.541 31.475h-591.738c-27.279 0-54.557-10.492-75.541-31.475s-31.475-46.164-31.475-75.541v-803.672c0-27.279 10.492-54.557 31.475-75.541 18.885-18.885 46.164-31.475 75.541-31.475 0 0 0 0 0 0h593.836c27.279 0 54.557 10.492 75.541 31.475 18.885 18.885 31.475 46.164 31.475 75.541v337.836c-4.197 12.59-12.59 20.984-25.18 20.984zM256 915.934h297.967v-62.951c0-12.59-10.492-20.984-20.984-20.984h-256c-12.59 0-20.984 10.492-20.984 20.984v62.951zM994.623 815.213c-16.787 16.787-37.77 25.18-58.754 25.18-23.082 0-44.066-8.393-58.754-25.18l-524.59-524.59c0 0 0 0 0 0-2.098-2.098-2.098-4.197-4.197-6.295 0 0 0 0 0 0s0 0 0 0l-54.557-142.689c-2.098-8.393 0-16.787 4.197-20.984s8.393-6.295 14.689-6.295c2.098 0 4.197 0 6.295 2.098l142.689 54.557c0 0 0 0 0 0s0 0 0 0c2.098 0 4.197 2.098 6.295 4.197 0 0 0 0 0 0l524.59 524.59c33.574 27.279 33.574 81.836 2.098 115.41zM346.23 166.82l27.279 71.344 44.066-44.066-71.344-27.279zM455.344 215.082l-60.852 60.852 449.049 449.049 60.852-60.852-449.049-449.049zM963.148 724.984l-29.377-29.377-60.852 60.852 29.377 29.377c16.787 16.787 44.066 16.787 60.852 0s16.787-44.066 0-60.852zM304.262 527.738l-77.639-79.738-14.689 31.475c-4.197 10.492-16.787 14.689-27.279 8.393-10.492-4.197-14.689-16.787-8.393-27.279l12.59-29.377c6.295-14.689 20.984-23.082 37.77-23.082 6.295 0 12.59 2.098 18.885 4.197 4.197 2.098 8.393 4.197 10.492 8.393l77.639 77.639c8.393 8.393 8.393 20.984 0 29.377-6.295 8.393-20.984 8.393-29.377 0zM404.984 492.066c-10.492 0-20.984-8.393-20.984-20.984 0-10.492 8.393-20.984 20.984-20.984h41.967c10.492 0 20.984 8.393 20.984 20.984 0 10.492-8.393 20.984-20.984 20.984h-41.967zM333.639 697.705c-8.393 8.393-20.984 8.393-29.377 0l-77.639-79.738-14.689 31.475c-4.197 10.492-16.787 14.689-27.279 8.393-10.492-4.197-14.689-16.787-8.393-27.279l12.59-31.475c6.295-14.689 20.984-23.082 37.77-23.082 6.295 0 12.59 2.098 18.885 4.197 4.197 2.098 8.393 4.197 10.492 8.393l77.639 77.639c8.393 10.492 8.393 23.082 0 31.475zM593.836 641.049c0 10.492-8.393 20.984-20.984 20.984h-169.967c-10.492 0-20.984-8.393-20.984-20.984s8.393-20.984 20.984-20.984h169.967c12.59 0 20.984 8.393 20.984 20.984z" />
<glyph unicode="&#xe99a;" glyph-name="Work-Office-Companies---Office-Files---office-file-pdf" d="M221.633 474.652h-30.86c-16.833 0-28.055-11.222-28.055-28.055v-322.63c0-16.833 11.222-28.055 28.055-28.055s28.055 11.222 28.055 28.055v100.997h8.416c67.332 2.805 123.441 58.915 120.636 126.247 0 33.666-14.027 64.526-39.277 86.97-22.444 25.249-53.304 39.277-86.97 36.471zM227.244 283.879h-8.416v137.468h5.611c19.638 0 36.471-5.611 47.693-19.638 14.027-14.027 19.638-30.86 22.444-47.693 0-39.277-30.86-70.137-67.332-70.137zM448.877 474.652c-16.833 0-28.055-11.222-28.055-28.055v-322.63c0-16.833 11.222-28.055 28.055-28.055 86.97 0 157.107 70.137 157.107 157.107v64.526c-2.805 86.97-72.942 157.107-157.107 157.107zM549.874 255.825c0-44.888-30.86-84.164-72.942-95.386v258.104c42.082-11.222 72.942-50.499 72.942-95.386v-67.332zM676.121 384.877v-129.052c0 0 0 0 0 0s0 0 0 0v-129.052c0-16.833 11.222-28.055 28.055-28.055s28.055 11.222 28.055 28.055v100.997h67.332c16.833 0 28.055 11.222 28.055 28.055s-11.222 28.055-28.055 28.055h-67.332v100.997c0 19.638 16.833 36.471 36.471 36.471h64.526c16.833 0 28.055 11.222 28.055 28.055s-11.222 28.055-28.055 28.055h-64.526c-50.499-2.805-92.581-42.082-92.581-92.581zM995.945 743.978l-187.967 187.967c-16.833 16.833-39.277 28.055-64.526 28.055 0 0 0 0 0 0h-5.611c0 0 0 0 0 0s0 0 0 0h-611.595c-70.137-2.805-126.247-56.11-126.247-126.247v-771.507c0-67.332 56.11-123.441 123.441-123.441 0 0 0 0 0 0h774.312c67.332 0 123.441 56.11 123.441 123.441v617.205c2.805 25.249-8.416 47.693-25.249 64.526zM765.896 895.474c0 0 2.805 0 2.805-2.805l187.967-187.967c0 0 0 0 0 0s0-2.805 2.805-2.805h-157.107c-19.638 0-36.471 16.833-36.471 36.471v157.107zM967.89 62.247c0-36.471-30.86-67.332-67.332-67.332h-774.312c0 0 0 0 0 0-39.277-2.805-70.137 28.055-70.137 67.332v771.507c0 39.277 30.86 70.137 70.137 70.137h583.54v-165.523c0-50.499 42.082-92.581 92.581-92.581h165.523v-583.54z" />
</font>
</defs>
</svg>
