<svg id="alarm-bell" xmlns="http://www.w3.org/2000/svg" width="16.657" height="20.506" viewBox="0 0 16.657 20.506">
  <path id="Pfad_91" data-name="Pfad 91" d="M11.59,23.564a2.426,2.426,0,0,1-2.322-1.742.641.641,0,0,1,1.229-.361,1.143,1.143,0,0,0,1.094.822,1.164,1.164,0,0,0,.324-.047,1.14,1.14,0,0,0,.774-.774.641.641,0,1,1,1.229.361,2.429,2.429,0,0,1-2.328,1.742Z" transform="translate(-3.26 -3.058)" fill="#293233"/>
  <path id="Pfad_92" data-name="Pfad 92" d="M2.882,16.662a.641.641,0,0,1-.5-1.036c.005-.008,1.146-1.657,1.146-6.654a7.038,7.038,0,0,1,6.408-7.02V.642a.641.641,0,0,1,1.282,0V1.952a7.038,7.038,0,0,1,6.408,7.02c0,5.385,1.065,6.567,1.075,6.578a.646.646,0,0,1,.16.7.637.637,0,0,1-.594.413ZM17.159,15.38a18.27,18.27,0,0,1-.821-6.408,5.767,5.767,0,0,0-11.535,0A18.282,18.282,0,0,1,3.91,15.38Z" transform="translate(-2.24 -0.001)" fill="#293233"/>
</svg>
