<svg xmlns="http://www.w3.org/2000/svg" width="6.476" height="5.513" viewBox="0 0 6.476 5.513">
  <g id="arrow-double-down" transform="translate(-162.524 -154.4) rotate(90)">
    <g id="Gruppe_2418" data-name="Gruppe 2418" transform="translate(140 -173)">
      <path id="Pfad_502" data-name="Pfad 502" d="M14.444,7.236,12.2,4.451a.243.243,0,0,1-.011-.3A.4.4,0,0,1,12.516,4H14.78a.806.806,0,0,1,.628.275l2.134,2.648a.487.487,0,0,1,0,.631L15.407,10.2a.806.806,0,0,1-.628.275H12.516a.4.4,0,0,1-.326-.153.243.243,0,0,1,.012-.3Z" transform="translate(2.256 0)" fill="#475759" fill-rule="evenodd"/>
    </g>
  </g>
</svg>
