<svg xmlns="http://www.w3.org/2000/svg" width="34.286" height="32" viewBox="0 0 34.286 32">
  <g id="Arrow_2_left" transform="translate(-1179.714 -1121.571)">
    <g id="Abgerundetes_Rechteck_5_Kopie_3" data-name="Abgerundetes Rechteck 5 Kopie 3" transform="translate(1179.714 1121.571)" fill="#fff" stroke="#ededed" stroke-linejoin="round" stroke-width="1">
      <rect width="34.286" height="32" rx="10" stroke="none"/>
      <rect x="0.5" y="0.5" width="33.286" height="31" rx="9.5" fill="none"/>
    </g>
    <path id="arrow-button-right-3" d="M5.089,12.119,9.377,6.76,5.089,1.4A.4.4,0,0,1,5.4.75H8.19a.8.8,0,0,1,.625.3L13.183,6.51a.4.4,0,0,1,0,.5L8.816,12.47a.8.8,0,0,1-.626.3H5.4a.4.4,0,0,1-.313-.651Z" transform="translate(1205.375 1144.51) rotate(180)" fill="#8fb0b3" fill-rule="evenodd"/>
  </g>
</svg>
