<svg xmlns="http://www.w3.org/2000/svg" width="20.504" height="20.505" viewBox="0 0 20.504 20.505">
  <g id="attachment" opacity="0.506">
    <path id="Pfad_33" data-name="Pfad 33" d="M6.408,20.7a6.285,6.285,0,0,1-4.531-1.924,6.685,6.685,0,0,1,0-9.289l7.7-7.9A4.4,4.4,0,0,1,12.72.193h.1a4.379,4.379,0,0,1,3.091,1.291,4.684,4.684,0,0,1,.11,6.5c-.037.039-.073.077-.111.114L8.221,15.989a2.531,2.531,0,0,1-1.792.746h-.04a2.52,2.52,0,0,1-1.8-.8,2.665,2.665,0,0,1,0-3.65L12.3,4.377a.629.629,0,0,1,.906,0,.669.669,0,0,1,0,.929L5.5,13.2a1.329,1.329,0,0,0,.008,1.817,1.258,1.258,0,0,0,.9.4h.027a1.253,1.253,0,0,0,.885-.37l7.694-7.892c.035-.034.061-.06.085-.088a3.347,3.347,0,0,0-.078-4.645A3.147,3.147,0,0,0,12.8,1.5h-.056a3.147,3.147,0,0,0-2.249,1l-7.711,7.9a5.35,5.35,0,0,0,0,7.433,5.045,5.045,0,0,0,7.25,0l9.378-9.615a.628.628,0,0,1,.906,0,.667.667,0,0,1,0,.928l-9.378,9.615A6.285,6.285,0,0,1,6.408,20.7Z" transform="translate(0 -0.192)" fill="#475759"/>
  </g>
</svg>
