<svg xmlns="http://www.w3.org/2000/svg" width="37.234" height="13.5" viewBox="0 0 37.234 13.5">
  <g id="Burgermenu_1" transform="translate(-638.766 -2097)">
    <g id="navigation-menu" transform="translate(653.5 2091.747)">
      <path id="Pfad_424" data-name="Pfad 424" d="M2.25,18.753a.75.75,0,0,1,0-1.5h19.5a.75.75,0,0,1,0,1.5Z" fill="#fff"/>
      <path id="Pfad_425" data-name="Pfad 425" d="M2.25,12.753a.75.75,0,0,1,0-1.5h19.5a.75.75,0,0,1,0,1.5Z" fill="#fff"/>
      <path id="Pfad_426" data-name="Pfad 426" d="M2.25,6.753a.75.75,0,0,1,0-1.5h19.5a.75.75,0,0,1,0,1.5Z" fill="#fff"/>
    </g>
    <path id="arrow-button-up" d="M10.178,5.485,5.471.141h0a.457.457,0,0,0-.659,0L.107,5.485a.423.423,0,0,0,.046.606l.793.667a.441.441,0,0,0,.616-.048L5.06,2.66a.107.107,0,0,1,.162,0l3.5,4.05a.438.438,0,0,0,.3.15.429.429,0,0,0,.318-.1l.793-.668a.424.424,0,0,0,.046-.606Z" transform="translate(638.766 2108.953) rotate(-90)" fill="#fff"/>
  </g>
</svg>
