<svg xmlns="http://www.w3.org/2000/svg" width="24" height="24" viewBox="0 0 24 24">
  <g id="business-team-goal" transform="translate(0)">
    <path id="Pfad_480" data-name="Pfad 480" d="M7.972,24a.749.749,0,0,1-.708-1,7.49,7.49,0,0,1,7.042-5h.015a7.5,7.5,0,0,1,7.036,5,.751.751,0,0,1-.459.956.713.713,0,0,1-.247.043.751.751,0,0,1-.708-.5,5.965,5.965,0,0,0-4.882-3.947v3.7a.75.75,0,0,1-1.5,0v-3.7A5.965,5.965,0,0,0,8.68,23.5.752.752,0,0,1,7.972,24Z" fill="#475759"/>
    <path id="Pfad_481" data-name="Pfad 481" d="M14.308,18a4.867,4.867,0,0,1-4.225-7.3s.02-.035.028-.046a4.866,4.866,0,0,1,9,1.687.757.757,0,0,1,.034.227A4.855,4.855,0,0,1,14.308,18Zm-3.269-5.714a3.375,3.375,0,1,0,6.608,1.33,7.529,7.529,0,0,1-1.942.254A7.631,7.631,0,0,1,11.039,12.286Zm.711-1.356a6.139,6.139,0,0,0,5.769,1.159A3.368,3.368,0,0,0,11.75,10.93Z" fill="#475759"/>
    <path id="Pfad_482" data-name="Pfad 482" d="M4.975,19.5a3.75,3.75,0,1,1,3.75-3.75A3.754,3.754,0,0,1,4.975,19.5Zm0-6a2.25,2.25,0,1,0,2.25,2.25A2.252,2.252,0,0,0,4.975,13.5Z" fill="#475759"/>
    <path id="Pfad_483" data-name="Pfad 483" d="M.75,24A.735.735,0,0,1,.5,23.958.751.751,0,0,1,.043,23a5.245,5.245,0,0,1,4.948-3.5,5.154,5.154,0,0,1,1.021.1.75.75,0,0,1-.148,1.485h0a.8.8,0,0,1-.145-.014A3.737,3.737,0,0,0,1.458,23.5.751.751,0,0,1,.75,24Z" fill="#475759"/>
    <path id="Pfad_484" data-name="Pfad 484" d="M23.25,24a.75.75,0,0,1-.75-.75V7.5h-12a.75.75,0,0,1-.53-1.28l2.47-2.47L9.97,1.28A.75.75,0,0,1,10.5,0H23.25A.75.75,0,0,1,24,.75v22.5A.75.75,0,0,1,23.25,24ZM22.5,6V1.5H12.311l1.72,1.72a.748.748,0,0,1,0,1.06L12.311,6Z" fill="#475759"/>
  </g>
</svg>
