<svg id="choose_2" xmlns="http://www.w3.org/2000/svg" width="21.807" height="21.807" viewBox="0 0 21.807 21.807">
  <circle id="Ellipse_751" data-name="Ellipse 751" cx="10.903" cy="10.903" r="10.903" transform="translate(0 0)" fill="#0096fa"/>
  <path id="check" d="M13.848,4.179l-1.635-1.64a.293.293,0,0,0-.415,0L4.893,9.449a.293.293,0,0,1-.415,0L2.843,7.81a.293.293,0,0,0-.415,0L.793,9.449a.293.293,0,0,0,0,.414l3.685,3.685a.293.293,0,0,0,.415,0l8.955-8.96a.293.293,0,0,0,0-.41Z" transform="translate(3.651 2.856)" fill="#fff"/>
</svg>
