<svg xmlns="http://www.w3.org/2000/svg" width="112.002" height="104.502" viewBox="0 0 112.002 104.502">
  <g id="cog-browser" transform="translate(3.5 3.5)">
    <path id="Pfad_218" data-name="Pfad 218" d="M72.751,99.753H99a7.5,7.5,0,0,0,7.5-7.5V9.751a7.5,7.5,0,0,0-7.5-7.5H9a7.5,7.5,0,0,0-7.5,7.5v82.5a7.5,7.5,0,0,0,7.5,7.5H35.251" transform="translate(-1.5 -2.251)" fill="none" stroke="#475759" stroke-linecap="round" stroke-linejoin="round" stroke-width="7"/>
    <line id="Linie_63" data-name="Linie 63" x2="105.002" transform="translate(0 18.75)" fill="none" stroke="#475759" stroke-linecap="round" stroke-linejoin="round" stroke-width="7"/>
    <g id="Gruppe_913" data-name="Gruppe 913" transform="translate(24.751 34.501)">
      <circle id="Ellipse_33" data-name="Ellipse 33" cx="18.75" cy="18.75" r="18.75" transform="translate(9 9)" stroke-width="7" stroke="#ff9c00" stroke-linecap="round" stroke-linejoin="round" fill="none"/>
      <line id="Linie_64" data-name="Linie 64" y1="9" transform="translate(27.751)" fill="none" stroke="#ff9c00" stroke-linecap="round" stroke-linejoin="round" stroke-width="7"/>
      <line id="Linie_65" data-name="Linie 65" y1="9" transform="translate(27.751 46.501)" fill="none" stroke="#ff9c00" stroke-linecap="round" stroke-linejoin="round" stroke-width="7"/>
      <line id="Linie_66" data-name="Linie 66" x2="9" transform="translate(46.501 27.751)" fill="none" stroke="#ff9c00" stroke-linecap="round" stroke-linejoin="round" stroke-width="7"/>
      <line id="Linie_67" data-name="Linie 67" x2="9" transform="translate(0 27.751)" fill="none" stroke="#ff9c00" stroke-linecap="round" stroke-linejoin="round" stroke-width="7"/>
      <line id="Linie_68" data-name="Linie 68" x2="5.535" y2="5.53" transform="translate(10.045 7.955)" fill="none" stroke="#ff9c00" stroke-linecap="round" stroke-linejoin="round" stroke-width="7"/>
      <line id="Linie_69" data-name="Linie 69" x1="5.535" y2="5.53" transform="translate(39.921 7.955)" fill="none" stroke="#ff9c00" stroke-linecap="round" stroke-linejoin="round" stroke-width="7"/>
      <line id="Linie_70" data-name="Linie 70" y1="5.535" x2="5.535" transform="translate(10.045 42.011)" fill="none" stroke="#ff9c00" stroke-linecap="round" stroke-linejoin="round" stroke-width="7"/>
      <line id="Linie_71" data-name="Linie 71" x1="5.535" y1="5.535" transform="translate(39.921 42.011)" fill="none" stroke="#ff9c00" stroke-linecap="round" stroke-linejoin="round" stroke-width="7"/>
      <path id="Pfad_219" data-name="Pfad 219" d="M15,13.951a3.75,3.75,0,1,1-3.75,3.75A3.75,3.75,0,0,1,15,13.951" transform="translate(12.75 10.049)" fill="none" stroke="#ff9c00" stroke-linecap="round" stroke-linejoin="round" stroke-width="7"/>
    </g>
  </g>
</svg>
