<svg xmlns="http://www.w3.org/2000/svg" width="23.997" height="23.981" viewBox="0 0 23.997 23.981">
  <g id="cog-double-2" transform="translate(-0.001 -0.014)">
    <path id="Pfad_455" data-name="Pfad 455" d="M10.815,24a2.06,2.06,0,0,1-1.524-.677l-.629-.7a.559.559,0,0,0-.785-.036c-.014.013-.027.026-.04.04l-.623.7a2.056,2.056,0,0,1-3.581-1.48L3.68,20.9a.558.558,0,0,0-.529-.584H3.094l-.933.047-.1,0A2.056,2.056,0,0,1,.679,16.787l.7-.627a.559.559,0,0,0,.038-.787.478.478,0,0,0-.039-.039L.68,14.708a2.056,2.056,0,0,1,1.374-3.581l.11,0,.962.048a.555.555,0,0,0,.555-.526.542.542,0,0,0,0-.057l-.049-.939A2.056,2.056,0,0,1,5.582,7.5l.1,0a2.062,2.062,0,0,1,1.527.677l.628.7a.554.554,0,0,0,.384.181h.025a.561.561,0,0,0,.377-.144.454.454,0,0,0,.038-.038l.625-.7a2.056,2.056,0,0,1,3.581,1.48l-.047.934a.538.538,0,0,0,.139.4.553.553,0,0,0,.379.183H13.4l.937-.047c.036,0,.074,0,.113,0a2.056,2.056,0,0,1,1.368,3.583l-.693.626a.558.558,0,0,0-.041.786c.012.013.028.029.044.044l.691.624a2.055,2.055,0,0,1-1.383,3.581l-.1,0-.959-.048a.556.556,0,0,0-.561.527.6.6,0,0,0,0,.06l.047.933A2.059,2.059,0,0,1,10.92,24C10.885,23.994,10.85,24,10.815,24Zm-2.566-3.06.1,0a2.046,2.046,0,0,1,1.423.674l.63.7a.559.559,0,0,0,.414.18h.026a.557.557,0,0,0,.525-.583l-.047-.935a1.857,1.857,0,0,1,0-.211,2.057,2.057,0,0,1,2.051-1.95q.054,0,.108,0l.933.047h.028a.555.555,0,0,0,.374-.967l-.695-.628a2.02,2.02,0,0,1-.146-.147,2.057,2.057,0,0,1,.147-2.905l.694-.627a.555.555,0,0,0,0-.826.558.558,0,0,0-.369-.143l-.967.048c-.034,0-.071,0-.108,0s-.079,0-.118,0a2.05,2.05,0,0,1-1.932-2.162l.047-.929a.556.556,0,0,0-.967-.4l-.626.7c-.049.053-.1.1-.147.147a2.04,2.04,0,0,1-1.372.533q-.057,0-.114,0A2.05,2.05,0,0,1,6.725,9.88l-.63-.7A.544.544,0,0,0,5.686,9H5.657a.551.551,0,0,0-.384.182.559.559,0,0,0-.143.4l.047.934a1.856,1.856,0,0,1,0,.211,2.048,2.048,0,0,1-2.039,1.95c-.041,0-.082,0-.123,0l-.952-.047a.557.557,0,0,0-.379.969l.694.626a2.011,2.011,0,0,1,.146.146,2.06,2.06,0,0,1-.145,2.906l-.7.628a.555.555,0,0,0,.378.967l.958-.048c.034,0,.069,0,.1,0l.1,0a2.058,2.058,0,0,1,1.95,2.157l-.046.936a.556.556,0,0,0,.967.4l.625-.7c.048-.053.095-.1.145-.146A2.063,2.063,0,0,1,8.249,20.935Z" fill="#475759"/>
    <path id="Pfad_456" data-name="Pfad 456" d="M8.25,18.376a2.625,2.625,0,1,1,2.625-2.625A2.628,2.628,0,0,1,8.25,18.376Zm0-3.75a1.125,1.125,0,1,0,1.125,1.125A1.127,1.127,0,0,0,8.25,14.626Z" fill="#475759"/>
    <circle id="Ellipse_81" data-name="Ellipse 81" cx="1.125" cy="1.125" r="1.125" transform="translate(17.513 4.25)" fill="#475759"/>
    <path id="Pfad_457" data-name="Pfad 457" d="M19.675,10.738a1.511,1.511,0,0,1-.232-.018,1.493,1.493,0,0,1-.94-.543L17.639,9.1l-1.286.5a1.5,1.5,0,0,1-1.941-1.942l.5-1.286-1.075-.865a1.5,1.5,0,0,1,.71-2.649l1.363-.211.211-1.363A1.509,1.509,0,0,1,17.6.014a1.552,1.552,0,0,1,.226.017,1.492,1.492,0,0,1,.943.544l.864,1.074,1.285-.5a1.5,1.5,0,0,1,1.942,1.942l-.5,1.286,1.074.864a1.5,1.5,0,0,1-.71,2.652L21.364,8.1l-.211,1.364a1.5,1.5,0,0,1-1.478,1.27ZM17.64,7.6a1.492,1.492,0,0,1,1.168.561l.864,1.075.211-1.364A1.5,1.5,0,0,1,21.138,6.62L22.5,6.41l-1.075-.864a1.492,1.492,0,0,1-.458-1.713l.5-1.286-1.285.5a1.511,1.511,0,0,1-.546.1,1.493,1.493,0,0,1-1.167-.56L17.6,1.515l-.21,1.362A1.5,1.5,0,0,1,16.14,4.13l-1.364.211,1.075.864a1.493,1.493,0,0,1,.458,1.712l-.5,1.286,1.286-.5A1.5,1.5,0,0,1,17.64,7.6Z" fill="#475759"/>
  </g>
</svg>
