<svg id="common-file-lock" xmlns="http://www.w3.org/2000/svg" width="20.504" height="20.504" viewBox="0 0 20.504 20.504">
  <path id="Pfad_24" data-name="Pfad 24" d="M15,22.034a1.5,1.5,0,0,1-1.5-1.5v-4.7a1.5,1.5,0,0,1,1.282-1.48V13.7a3.2,3.2,0,1,1,6.408,0v.656a1.5,1.5,0,0,1,1.282,1.48v4.7a1.5,1.5,0,0,1-1.5,1.5Zm0-6.408a.214.214,0,0,0-.214.214v4.7a.214.214,0,0,0,.214.214h5.98a.214.214,0,0,0,.214-.214v-4.7a.214.214,0,0,0-.214-.214Zm4.913-1.282V13.7a1.922,1.922,0,0,0-3.845,0Z" transform="translate(-1.966 -1.529)" fill="#293233"/>
  <ellipse id="Ellipse_3" data-name="Ellipse 3" cx="0.961" cy="0.961" rx="0.961" ry="0.961" transform="translate(15.058 15.723)" fill="#293233"/>
  <path id="Pfad_25" data-name="Pfad 25" d="M1.922,17.941A1.924,1.924,0,0,1,0,16.019V1.922A1.924,1.924,0,0,1,1.922,0H11a1.91,1.91,0,0,1,1.358.562l2.454,2.454a1.91,1.91,0,0,1,.563,1.359V5.767a.641.641,0,0,1-1.282,0V4.375a.647.647,0,0,0-.187-.453L11.456,1.469A.639.639,0,0,0,11,1.282H1.922a.641.641,0,0,0-.641.641v14.1a.641.641,0,0,0,.641.641H8.33a.641.641,0,1,1,0,1.282Z" transform="translate(0 0)" fill="#293233"/>
</svg>
