<svg id="common-file-share" xmlns="http://www.w3.org/2000/svg" width="20.504" height="20.504" viewBox="0 0 20.504 20.504">
  <path id="Pfad_56" data-name="Pfad 56" d="M19.471,22.034a2.566,2.566,0,0,1-2.563-2.563,2.5,2.5,0,0,1,.022-.326l-1.8-.722a2.561,2.561,0,1,1-.266-3.341l2.153-1.292a2.508,2.508,0,0,1-.106-.727,2.565,2.565,0,1,1,.766,1.826L15.52,16.181a2.5,2.5,0,0,1,.084,1.053l1.8.722a2.562,2.562,0,1,1,2.063,4.078Zm0-3.845a1.282,1.282,0,1,0,1.282,1.282A1.278,1.278,0,0,0,19.471,18.189Zm-6.408-2.563a1.282,1.282,0,1,0,1.189,1.757,1.268,1.268,0,0,0-.075-1.1l-.018-.026a.27.27,0,0,1-.018-.034A1.27,1.27,0,0,0,13.063,15.626Zm5.329-1.874a1.268,1.268,0,0,0,1.078.593,1.282,1.282,0,1,0-1.282-1.282,1.269,1.269,0,0,0,.167.627.266.266,0,0,1,.022.034C18.382,13.731,18.387,13.742,18.393,13.752Z" transform="translate(-1.529 -1.529)" fill="#0096fa"/>
  <path id="Pfad_57" data-name="Pfad 57" d="M1.922,17.941A1.924,1.924,0,0,1,0,16.019V1.922A1.924,1.924,0,0,1,1.922,0H11a1.91,1.91,0,0,1,1.358.562l2.454,2.454a1.91,1.91,0,0,1,.563,1.359V7.048a.641.641,0,1,1-1.282,0V4.375a.647.647,0,0,0-.187-.453L11.456,1.469A.639.639,0,0,0,11,1.282H1.922a.641.641,0,0,0-.641.641v14.1a.641.641,0,0,0,.641.641H7.048a.641.641,0,0,1,0,1.282Z" fill="#0096fa"/>
</svg>
