<svg xmlns="http://www.w3.org/2000/svg" width="20.48" height="20.504" viewBox="0 0 20.48 20.504">
  <g id="common-file-edit" opacity="0.506">
    <path id="Pfad_26" data-name="Pfad 26" d="M11.142,22.034a.641.641,0,0,1-.628-.766l.641-3.2a.639.639,0,0,1,.175-.328l6.519-6.519a2.449,2.449,0,0,1,3.457-.006,2.509,2.509,0,0,1,.031,3.456l-.018.019L14.8,21.2a.635.635,0,0,1-.328.175l-3.2.641A.584.584,0,0,1,11.142,22.034Zm.817-1.458,2.071-.414,6.376-6.376a1.234,1.234,0,0,0,0-1.662l-.018-.019a1.144,1.144,0,0,0-.807-.324v0a1.155,1.155,0,0,0-.824.342l-6.382,6.382Z" transform="translate(-1.53 -1.529)" fill="#475759"/>
    <path id="Pfad_27" data-name="Pfad 27" d="M1.923,17.941A1.924,1.924,0,0,1,0,16.019V1.922A1.925,1.925,0,0,1,1.923,0H11a1.91,1.91,0,0,1,1.358.562l2.454,2.454a1.909,1.909,0,0,1,.563,1.358V7.048a.641.641,0,0,1-1.282,0V4.375a.647.647,0,0,0-.187-.453L11.457,1.469A.639.639,0,0,0,11,1.282H1.923a.641.641,0,0,0-.641.641v14.1a.641.641,0,0,0,.641.641H7.049a.641.641,0,0,1,0,1.282Z" transform="translate(-0.001)" fill="#475759"/>
  </g>
</svg>
