<svg xmlns="http://www.w3.org/2000/svg" width="118.721" height="118.721" viewBox="0 0 118.721 118.721">
  <g id="comm" transform="translate(-200.533 -2537.533)">
    <circle id="Ellipse_23" data-name="Ellipse 23" cx="11.172" cy="11.172" r="11.172" transform="translate(248.721 2574.549)" stroke-width="7" stroke="#5300b3" stroke-linecap="round" stroke-linejoin="round" fill="none"/>
    <path id="Pfad_195" data-name="Pfad 195" d="M45.489,27.646a20.1,20.1,0,0,0-18.62-14.9,20.1,20.1,0,0,0-18.62,14.9" transform="translate(233.024 2587.867)" fill="none" stroke="#5300b3" stroke-linecap="round" stroke-linejoin="round" stroke-width="7"/>
    <circle id="Ellipse_24" data-name="Ellipse 24" cx="9.31" cy="9.31" r="9.31" transform="translate(250.583 2541.033)" stroke-width="7" stroke="#475759" stroke-linecap="round" stroke-linejoin="round" fill="none"/>
    <circle id="Ellipse_25" data-name="Ellipse 25" cx="9.31" cy="9.31" r="9.31" transform="translate(297.134 2587.583)" stroke-width="7" stroke="#475759" stroke-linecap="round" stroke-linejoin="round" fill="none"/>
    <circle id="Ellipse_26" data-name="Ellipse 26" cx="9.31" cy="9.31" r="9.31" transform="translate(250.583 2634.134)" stroke-width="7" stroke="#475759" stroke-linecap="round" stroke-linejoin="round" fill="none"/>
    <circle id="Ellipse_27" data-name="Ellipse 27" cx="9.31" cy="9.31" r="9.31" transform="translate(204.033 2587.583)" stroke-width="7" stroke="#475759" stroke-linecap="round" stroke-linejoin="round" fill="none"/>
    <path id="Pfad_196" data-name="Pfad 196" d="M16.5,4.2A44.892,44.892,0,0,1,32.886,20.586" transform="translate(265.742 2553.963)" fill="none" stroke="#475759" stroke-linecap="round" stroke-linejoin="round" stroke-width="7"/>
    <path id="Pfad_197" data-name="Pfad 197" d="M32.886,16.5A44.892,44.892,0,0,1,16.5,32.886" transform="translate(265.742 2602.738)" fill="none" stroke="#475759" stroke-linecap="round" stroke-linejoin="round" stroke-width="7"/>
    <path id="Pfad_198" data-name="Pfad 198" d="M20.586,32.886A44.892,44.892,0,0,1,4.2,16.5" transform="translate(216.968 2602.738)" fill="none" stroke="#475759" stroke-linecap="round" stroke-linejoin="round" stroke-width="7"/>
    <path id="Pfad_199" data-name="Pfad 199" d="M4.2,20.586A44.892,44.892,0,0,1,20.586,4.2" transform="translate(216.968 2553.963)" fill="none" stroke="#475759" stroke-linecap="round" stroke-linejoin="round" stroke-width="7"/>
  </g>
</svg>
