<svg xmlns="http://www.w3.org/2000/svg" width="22.5" height="24" viewBox="0 0 22.5 24">
  <g id="common-file-text" transform="translate(-0.75)">
    <path id="Pfad_402" data-name="Pfad 402" d="M3,24A2.252,2.252,0,0,1,.75,21.75V2.25A2.252,2.252,0,0,1,3,0H18.045a2.239,2.239,0,0,1,1.572.639l2.954,2.883a2.265,2.265,0,0,1,.679,1.611V21.75A2.252,2.252,0,0,1,21,24ZM3,1.5a.75.75,0,0,0-.75.75v19.5A.75.75,0,0,0,3,22.5H21a.75.75,0,0,0,.75-.75V5.133a.754.754,0,0,0-.227-.537L18.569,1.713a.746.746,0,0,0-.523-.213Z" fill="#0096fa"/>
    <path id="Pfad_403" data-name="Pfad 403" d="M6.045,9a.75.75,0,0,1,0-1.5h12a.75.75,0,0,1,0,1.5Z" fill="#0096fa"/>
    <path id="Pfad_404" data-name="Pfad 404" d="M6.045,13.5a.75.75,0,0,1,0-1.5h12a.75.75,0,0,1,0,1.5Z" fill="#0096fa"/>
    <path id="Pfad_405" data-name="Pfad 405" d="M6.045,18a.75.75,0,0,1,0-1.5h6a.75.75,0,1,1,0,1.5Z" fill="#0096fa"/>
  </g>
</svg>
