<svg xmlns="http://www.w3.org/2000/svg" width="19.5" height="24" viewBox="0 0 19.5 24">
  <g id="common-file-double-2" transform="translate(-2.25)">
    <path id="Pfad_560" data-name="Pfad 560" d="M4.5,24a2.252,2.252,0,0,1-2.25-2.25V8.25A2.252,2.252,0,0,1,4.5,6H6.75V2.25A2.252,2.252,0,0,1,9,0h7.629a2.236,2.236,0,0,1,1.59.658L21.091,3.53a2.235,2.235,0,0,1,.659,1.59V15.75A2.252,2.252,0,0,1,19.5,18H17.25v3.75A2.252,2.252,0,0,1,15,24Zm0-16.5a.75.75,0,0,0-.75.75v13.5a.75.75,0,0,0,.75.75H15a.75.75,0,0,0,.75-.75V11.121a.758.758,0,0,0-.219-.53L12.659,7.719a.748.748,0,0,0-.53-.219H4.5Zm15,9a.75.75,0,0,0,.75-.75V5.121a.758.758,0,0,0-.219-.53L17.159,1.719a.748.748,0,0,0-.53-.219H9a.75.75,0,0,0-.75.75V6h3.879a2.238,2.238,0,0,1,1.59.658L16.591,9.53a2.235,2.235,0,0,1,.659,1.59V16.5Z" fill="#475759"/>
  </g>
</svg>
