<svg xmlns="http://www.w3.org/2000/svg" width="24" height="24" viewBox="0 0 24 24">
  <g id="csv-1" transform="translate(-0.002 -0.003)">
    <path id="Pfad_390" data-name="Pfad 390" d="M2.252,24A2.252,2.252,0,0,1,0,21.753V2.253A2.252,2.252,0,0,1,2.252,0h19.5A2.252,2.252,0,0,1,24,2.253v19.5A2.252,2.252,0,0,1,21.752,24Zm0-22.5a.75.75,0,0,0-.75.75v19.5a.75.75,0,0,0,.75.75h19.5a.75.75,0,0,0,.75-.75V2.253a.75.75,0,0,0-.75-.75H2.252Z" fill="#475759"/>
    <path id="Pfad_391" data-name="Pfad 391" d="M7.547,18.75A3.754,3.754,0,0,1,3.8,15V13.5a3.754,3.754,0,0,1,3.75-3.75.75.75,0,0,1,0,1.5A2.252,2.252,0,0,0,5.3,13.5V15a2.252,2.252,0,0,0,2.25,2.25.75.75,0,0,1,0,1.5Z" fill="#4fe371"/>
    <path id="Pfad_392" data-name="Pfad 392" d="M10.547,18.75a.75.75,0,0,1,0-1.5h1.5a.751.751,0,0,0,.75-.75c0-.715-.434-1.075-1.2-1.65A3.473,3.473,0,0,1,9.8,12a2.252,2.252,0,0,1,2.25-2.25h1.5a.75.75,0,0,1,0,1.5h-1.5a.75.75,0,0,0-.75.75c0,.715.434,1.075,1.2,1.65a3.473,3.473,0,0,1,1.8,2.85,2.252,2.252,0,0,1-2.25,2.25Z" fill="#4fe371"/>
    <path id="Pfad_393" data-name="Pfad 393" d="M18.047,18.75a.75.75,0,0,1-.624-.334A9.659,9.659,0,0,1,15.8,13.045V10.5a.75.75,0,0,1,1.5,0v2.545a8.2,8.2,0,0,0,.75,3.423,8.2,8.2,0,0,0,.75-3.423V10.5a.75.75,0,0,1,1.5,0v2.545a9.651,9.651,0,0,1-1.626,5.371A.75.75,0,0,1,18.047,18.75Z" fill="#4fe371"/>
  </g>
</svg>
