<svg xmlns="http://www.w3.org/2000/svg" width="20.504" height="20.504" viewBox="0 0 20.504 20.504">
  <g id="direction-button" transform="translate(0 20.504) rotate(-90)">
    <path id="Pfad_79" data-name="Pfad 79" d="M7.391,4.749a.64.64,0,0,1-.453-1.094l3.2-3.2a1.548,1.548,0,0,1,2.187,0l3.2,3.2a.64.64,0,1,1-.906.906l-3.2-3.2a.267.267,0,0,0-.376,0l-3.2,3.2A.633.633,0,0,1,7.391,4.749Z" transform="translate(-0.984 0.002)" fill="#293233"/>
    <path id="Pfad_80" data-name="Pfad 80" d="M4.111,15.721a.635.635,0,0,1-.453-.188l-3.2-3.2a1.548,1.548,0,0,1-.006-2.181l3.21-3.21a.64.64,0,1,1,.906.906l-3.2,3.2a.267.267,0,0,0-.08.191.258.258,0,0,0,.078.186l3.2,3.2a.642.642,0,0,1-.454,1.095Z" transform="translate(-0.001 -0.981)" fill="#293233" opacity="0.15"/>
    <path id="Pfad_81" data-name="Pfad 81" d="M11.236,23.186a1.537,1.537,0,0,1-1.094-.452l-3.2-3.2a.643.643,0,0,1,0-.907.639.639,0,0,1,.906,0l3.2,3.2a.266.266,0,0,0,.375,0l3.2-3.2a.639.639,0,0,1,.906,0,.643.643,0,0,1,0,.907l-3.2,3.2A1.532,1.532,0,0,1,11.236,23.186Z" transform="translate(-0.984 -2.682)" fill="#293233"/>
    <path id="Pfad_82" data-name="Pfad 82" d="M19.08,15.721a.64.64,0,0,1-.453-1.094l3.2-3.2a.267.267,0,0,0,0-.376l-3.2-3.2a.64.64,0,1,1,.906-.906l3.2,3.2a1.549,1.549,0,0,1,0,2.188l-3.2,3.2A.637.637,0,0,1,19.08,15.721Z" transform="translate(-2.685 -0.981)" fill="#293233" opacity="0.15"/>
    <path id="Pfad_83" data-name="Pfad 83" d="M11.454,14.656a3.2,3.2,0,1,1,3.2-3.2A3.207,3.207,0,0,1,11.454,14.656Zm0-5.127a1.922,1.922,0,1,0,1.922,1.922A1.924,1.924,0,0,0,11.454,9.53Z" transform="translate(-1.202 -1.199)" fill="#293233"/>
  </g>
</svg>
