<svg xmlns="http://www.w3.org/2000/svg" width="19.5" height="23.999" viewBox="0 0 19.5 23.999">
  <g id="download-button" transform="translate(-2.25 -0.001)">
    <path id="Pfad_487" data-name="Pfad 487" d="M12,16.5a.729.729,0,0,1-.148-.015.678.678,0,0,1-.088-.025.424.424,0,0,1-.05-.017.76.76,0,0,1-.1-.051.221.221,0,0,1-.039-.023.656.656,0,0,1-.107-.089l-4.5-4.5a.75.75,0,1,1,1.06-1.06l3.22,3.22V.751a.75.75,0,0,1,1.5,0v13.19l3.22-3.22a.75.75,0,1,1,1.06,1.06l-4.5,4.5a.791.791,0,0,1-.114.094c-.013.009-.037.022-.052.03a.49.49,0,0,1-.137.059.611.611,0,0,1-.079.022A.712.712,0,0,1,12,16.5Z" fill="#475759"/>
    <path id="Pfad_488" data-name="Pfad 488" d="M6,24a3.754,3.754,0,0,1-3.75-3.75V7.5A3.754,3.754,0,0,1,6,3.75H8.25a.75.75,0,0,1,0,1.5H6A2.252,2.252,0,0,0,3.75,7.5V20.25A2.252,2.252,0,0,0,6,22.5H18a2.252,2.252,0,0,0,2.25-2.25V7.5A2.252,2.252,0,0,0,18,5.25H15.752a.75.75,0,0,1,0-1.5H18A3.754,3.754,0,0,1,21.75,7.5V20.25A3.754,3.754,0,0,1,18,24Z" fill="#475759"/>
  </g>
</svg>
