<svg id="email-action-send-2" xmlns="http://www.w3.org/2000/svg" width="20.503" height="20.504" viewBox="0 0 20.503 20.504">
  <path id="Pfad_63" data-name="Pfad 63" d="M16.266,22.035a5.767,5.767,0,1,1,5.767-5.767A5.773,5.773,0,0,1,16.266,22.035Zm0-10.252a4.485,4.485,0,1,0,4.485,4.485A4.49,4.49,0,0,0,16.266,11.783Z" transform="translate(-1.529 -1.531)" fill="#293233"/>
  <path id="Pfad_64" data-name="Pfad 64" d="M17.344,19.378a.634.634,0,0,1-.453-.188.642.642,0,0,1,0-.906l.829-.829H14.141a.641.641,0,1,1,0-1.281h3.579l-.829-.829a.642.642,0,0,1,0-.906.639.639,0,0,1,.906,0l1.922,1.922a.632.632,0,0,1,.139.209c0,.007.006.015.009.022a.623.623,0,0,1,.04.221.655.655,0,0,1-.039.22l-.005.015a.639.639,0,0,1-.143.219L17.8,19.189A.635.635,0,0,1,17.344,19.378Z" transform="translate(-1.966 -2.077)" fill="#293233"/>
  <path id="Pfad_65" data-name="Pfad 65" d="M1.921,14.1A1.924,1.924,0,0,1,0,12.176V1.924A1.9,1.9,0,0,1,.4.757.37.37,0,0,1,.422.719.632.632,0,0,1,.486.649,1.922,1.922,0,0,1,1.921,0H17.3a1.918,1.918,0,0,1,1.475.691L18.8.718l.021.029a1.9,1.9,0,0,1,.4,1.176V7.689a.641.641,0,1,1-1.281,0v-5.5L11.724,6.971a3.468,3.468,0,0,1-4.227,0L1.28,2.189v9.986a.641.641,0,0,0,.641.641H7.047a.641.641,0,1,1,0,1.281H1.921ZM8.277,5.956a2.185,2.185,0,0,0,2.664,0l6.073-4.673H2.2Z" transform="translate(0.001 -0.001)" fill="#293233"/>
</svg>
