<svg id="email-action-unread" xmlns="http://www.w3.org/2000/svg" width="20.506" height="15.038" viewBox="0 0 20.506 15.038">
  <path id="Pfad_90" data-name="Pfad 90" d="M2.8,19.038A2.052,2.052,0,0,1,.75,16.987V6.051a2.023,2.023,0,0,1,.434-1.258c.006-.01.014-.02.02-.028l.021-.025A2.04,2.04,0,0,1,2.8,4h16.4a2.046,2.046,0,0,1,1.578.742.217.217,0,0,1,.024.028.267.267,0,0,1,.016.024,2.025,2.025,0,0,1,.433,1.257V16.987a2.053,2.053,0,0,1-2.051,2.051Zm-.684-2.051a.684.684,0,0,0,.684.684h16.4a.684.684,0,0,0,.684-.684V6.335l-6.631,5.1a3.7,3.7,0,0,1-4.509,0l-6.631-5.1Zm7.464-6.636a2.333,2.333,0,0,0,2.843,0L18.9,5.366H3.1Z" transform="translate(-0.75 -4)" fill="#293233"/>
</svg>
