<svg xmlns="http://www.w3.org/2000/svg" width="24" height="24" viewBox="0 0 24 24">
  <g id="file-code-home" transform="translate(0 -0.004)">
    <path id="Pfad_496" data-name="Pfad 496" d="M15.75,24,15.7,24H14.25A2.252,2.252,0,0,1,12,21.751V17.6l-.256.224a.75.75,0,1,1-.988-1.129l4.519-3.954a3.009,3.009,0,0,1,3.95,0L23.744,16.7a.75.75,0,0,1-.5,1.314h0a.75.75,0,0,1-.493-.185L22.5,17.6v4.147A2.252,2.252,0,0,1,20.25,24H18.8c-.012,0-.031,0-.05,0Zm4.5-1.5a.75.75,0,0,0,.75-.75V16.292l-2.762-2.417a1.506,1.506,0,0,0-1.975,0L13.5,16.292v5.459a.75.75,0,0,0,.75.75H15V20.254a2.25,2.25,0,1,1,4.5,0V22.5ZM18,22.5V20.254a.75.75,0,1,0-1.5,0V22.5Z" fill="#475759"/>
    <path id="Pfad_497" data-name="Pfad 497" d="M2.25,21A2.252,2.252,0,0,1,0,18.754V2.254A2.252,2.252,0,0,1,2.25,0H12.879A2.238,2.238,0,0,1,14.47.662l2.871,2.871A2.239,2.239,0,0,1,18,5.125V9.754a.75.75,0,1,1-1.5,0V5.125a.758.758,0,0,0-.219-.531L13.41,1.723a.748.748,0,0,0-.53-.219H2.25a.75.75,0,0,0-.75.75v16.5a.75.75,0,0,0,.75.75h6a.75.75,0,0,1,0,1.5Z" fill="#475759"/>
    <path id="Pfad_498" data-name="Pfad 498" d="M7.5,10.5A1.5,1.5,0,0,1,6,9V6A1.5,1.5,0,0,1,7.5,4.5H9A1.5,1.5,0,0,1,10.5,6V9A1.5,1.5,0,0,1,9,10.5ZM7.5,9H9V6H7.5Z" fill="#475759"/>
    <path id="Pfad_499" data-name="Pfad 499" d="M3.75,10.5A.75.75,0,0,1,3,9.754v-4.5a.75.75,0,1,1,1.5,0v4.5A.752.752,0,0,1,3.75,10.5Z" fill="#475759"/>
    <path id="Pfad_500" data-name="Pfad 500" d="M12.75,10.5a.75.75,0,0,1-.75-.75v-4.5a.75.75,0,0,1,1.5,0v4.5A.752.752,0,0,1,12.75,10.5Z" fill="#475759"/>
    <path id="Pfad_501" data-name="Pfad 501" d="M4.5,18A1.5,1.5,0,0,1,3,16.5v-3A1.5,1.5,0,0,1,4.5,12H6a1.5,1.5,0,0,1,1.5,1.5v3A1.5,1.5,0,0,1,6,18Zm0-1.5H6v-3H4.5Z" fill="#475759"/>
  </g>
</svg>
