<svg id="folder-empty" xmlns="http://www.w3.org/2000/svg" width="20.504" height="17.941" viewBox="0 0 20.504 17.941">
  <path id="Pfad_32" data-name="Pfad 32" d="M2.091,19.441a.625.625,0,0,1-.191-.029A2.1,2.1,0,0,1,0,17.357V3.422A1.924,1.924,0,0,1,1.922,1.5H5.767A1.925,1.925,0,0,1,7.689,3.422v.641h8.33a1.925,1.925,0,0,1,1.922,1.922V7.908h.641a1.922,1.922,0,0,1,1.857,2.417L18.563,18a1.929,1.929,0,0,1-1.861,1.44ZM16.7,18.16a.641.641,0,0,0,.619-.476L19.2,10.008a.687.687,0,0,0,.025-.177.64.64,0,0,0-.641-.642H6.731a.644.644,0,0,0-.616.462l-2,8.223a2.4,2.4,0,0,1-.1.285ZM1.922,2.782a.641.641,0,0,0-.641.641V17.348a.812.812,0,0,0,1.593.2l2-8.228A1.944,1.944,0,0,1,6.73,7.908h9.93V5.985a.642.642,0,0,0-.641-.641H7.048A.641.641,0,0,1,6.408,4.7V3.422a.642.642,0,0,0-.641-.641Z" transform="translate(0 -1.5)" fill="#0096fa"/>
</svg>
