<svg xmlns="http://www.w3.org/2000/svg" width="24" height="22.5" viewBox="0 0 24 22.5">
  <g id="folder-image-1" transform="translate(0 -0.75)">
    <path id="Pfad_420" data-name="Pfad 420" d="M2.447,23.25a.731.731,0,0,1-.223-.034A2.464,2.464,0,0,1,0,20.81V3A2.252,2.252,0,0,1,2.25.75h4.5A2.253,2.253,0,0,1,9,3v.75H20.25A2.252,2.252,0,0,1,22.5,6V8.377a2.251,2.251,0,0,1,1.424,2.7l-2.191,10.46a2.269,2.269,0,0,1-2.183,1.71H2.447Zm17.1-1.5a.75.75,0,0,0,.725-.557l2.191-10.461A.856.856,0,0,0,22.5,10.5a.749.749,0,0,0-.75-.751H7.878a.755.755,0,0,0-.714.52L4.82,21.393c0,.015-.007.031-.011.046a2.408,2.408,0,0,1-.111.312H19.55ZM2.25,2.25A.75.75,0,0,0,1.5,3V20.8a.95.95,0,0,0,.95.927.96.96,0,0,0,.908-.672L5.7,9.929c0-.02.009-.037.014-.054A2.26,2.26,0,0,1,7.878,8.25H21V6a.75.75,0,0,0-.75-.75h-12A.75.75,0,0,1,7.5,4.5V3a.75.75,0,0,0-.75-.75Z" fill="#475759"/>
    <circle id="Ellipse_74" data-name="Ellipse 74" cx="1.125" cy="1.125" r="1.125" transform="translate(8.625 11.625)" fill="#475759"/>
    <path id="Pfad_421" data-name="Pfad 421" d="M18.379,20.25a.749.749,0,0,1-.624-.334l-2.911-4.365-2,2.851a.752.752,0,0,1-.508.312.778.778,0,0,1-.1.007.758.758,0,0,1-.471-.165l-1.23-.989-1.566,2.35a.75.75,0,1,1-1.247-.833l1.568-2.348c.022-.033.047-.067.073-.1a1.5,1.5,0,0,1,2.11-.239l.608.489,1.54-2.195a1.5,1.5,0,0,1,2.476.03L19,19.086a.749.749,0,0,1-.208,1.04.763.763,0,0,1-.417.124Z" fill="#475759"/>
  </g>
</svg>
