<svg id="folder-image" xmlns="http://www.w3.org/2000/svg" width="24" height="24" viewBox="0 0 24 24">
  <path id="Pfad_422" data-name="Pfad 422" d="M8.25,24A2.252,2.252,0,0,1,6,21.75V11.25A2.252,2.252,0,0,1,8.25,9H21V8.25a.75.75,0,0,0-.75-.75h-15a.75.75,0,0,0-.75.75v12a.75.75,0,0,1-1.5,0v-12A2.252,2.252,0,0,1,5.25,6H18V5.25a.75.75,0,0,0-.75-.75h-9a.75.75,0,0,1-.75-.75V2.25a.75.75,0,0,0-.75-.75H2.25a.75.75,0,0,0-.75.75v16.3a.75.75,0,0,1-1.5,0V2.25A2.252,2.252,0,0,1,2.25,0h4.5A2.252,2.252,0,0,1,9,2.25V3h8.25A2.252,2.252,0,0,1,19.5,5.25V6h.75A2.252,2.252,0,0,1,22.5,8.25v.879A2.258,2.258,0,0,1,24,11.25v10.5A2.252,2.252,0,0,1,21.75,24Zm0-13.5a.75.75,0,0,0-.75.75v10.5a.75.75,0,0,0,.75.75h13.5a.75.75,0,0,0,.75-.75V11.25a.75.75,0,0,0-.75-.75Z" fill="#475759"/>
  <circle id="Ellipse_75" data-name="Ellipse 75" cx="1.125" cy="1.125" r="1.125" transform="translate(10.125 13.125)" fill="#475759"/>
  <path id="Pfad_423" data-name="Pfad 423" d="M10.212,21a.743.743,0,0,1-.414-.125.751.751,0,0,1-.21-1.04l1.559-2.348c.024-.037.05-.071.077-.1a1.5,1.5,0,0,1,2.108-.236l.613.491,1.542-2.2a1.5,1.5,0,0,1,2.478.031l2.909,4.364A.749.749,0,0,1,20.25,21h0a.749.749,0,0,1-.624-.334L16.716,16.3l-2,2.851a.755.755,0,0,1-.507.312.818.818,0,0,1-.106.007.752.752,0,0,1-.469-.164L12.4,18.318l-1.558,2.348A.752.752,0,0,1,10.212,21Z" fill="#475759"/>
</svg>
