<svg id="Ebene_1" data-name="Ebene 1" xmlns="http://www.w3.org/2000/svg" xmlns:xlink="http://www.w3.org/1999/xlink" viewBox="0 0 1812.93 357.98"><defs><style>.cls-1{fill-rule:evenodd;fill:url(#Unbenannter_Verlauf_5);}</style><linearGradient id="Unbenannter_Verlauf_5" x1="1957.09" y1="165.76" x2="-58.26" y2="194.28" gradientUnits="userSpaceOnUse"><stop offset="0.03" stop-color="#1852b5"/><stop offset="1" stop-color="#221f6d"/></linearGradient></defs><title>i-Qoom_Brand_Logo_Neg</title><path id="_" data-name=" " class="cls-1" d="M684.77,168c0-97.5-71.66-155-185.41-155S313.94,70.48,313.94,168,385.6,323,499.36,323q48.75,0,86.25-13.75l45,48.75,36.25-31.25-37.5-40.42C664.77,259.64,684.77,219.23,684.77,168Zm-185.41,97.5c-72.5,0-117.5-35-117.5-97.5s45.41-97.5,117.5-97.5,117.5,35,117.5,97.5c0,30.83-10.84,55-30.84,71.25L538.1,187.56l-36.25,31.67L540.6,260.9a181,181,0,0,1-41.24,4.58ZM-.85,79.62V29H64.28V79.62ZM0,313.81V107.31H63.43v206.5Zm106.85-91V168.23h166v54.59ZM858.1,323c90.42,0,146.67-47.5,146.67-123.75,0-76.67-56.25-123.75-146.67-123.75-90.83,0-146.66,47.08-146.66,123.75C711.44,275.48,767.27,323,858.1,323Zm0-52.5c-48.33,0-84.16-23.75-84.16-71.25,0-47.92,35.83-71.25,84.16-71.25,48.75,0,84.59,23.33,84.59,71.25,0,47.5-35.84,71.25-84.59,71.25Zm321,52.5c90.42,0,146.67-47.5,146.67-123.75,0-76.67-56.25-123.75-146.67-123.75-90.83,0-146.66,47.08-146.66,123.75,0,76.25,55.83,123.75,146.66,123.75Zm0-52.5c-48.33,0-84.16-23.75-84.16-71.25,0-47.92,35.83-71.25,84.16-71.25,48.75,0,84.59,23.33,84.59,71.25,0,47.5-35.84,71.25-84.59,71.25ZM1714.6,75.89c-48.33,0-85.42,25-101.25,61.25-12.09-36.66-42.09-61.25-91.67-61.25-42.08,0-76.25,18.34-94.17,49.17V84.23h-64.58V313.81h64.58V174.23c16.25-30.42,40-47.09,72.92-47.09,37.5,0,55.42,20.84,55.42,56.67v130h64.58l-.41-45.42V175.48c15.83-30.84,40.41-48.34,73.33-48.34,37.5,0,55.42,20.84,55.42,56.67v130h64.16V180.48c0-59.17-30.83-104.59-98.33-104.59Z"/></svg>