<svg xmlns="http://www.w3.org/2000/svg" width="10.18" height="13.571" viewBox="0 0 10.18 13.571">
  <g id="Locked" transform="translate(-1684 -1983.589)">
    <path id="Differenzmenge_1" data-name="Differenzmenge 1" d="M5748.906,2763.731h-7.634a1.274,1.274,0,0,1-1.272-1.273v-5.937a1.274,1.274,0,0,1,1.272-1.273h.424v-1.7a3.393,3.393,0,1,1,6.786,0v1.7h.424a1.274,1.274,0,0,1,1.273,1.273v5.937A1.274,1.274,0,0,1,5748.906,2763.731Zm-3.849-6a1,1,0,0,0-.42,1.908v.7a.424.424,0,1,0,.848,0v-.7a1,1,0,0,0-.428-1.9Zm.032-6.723a2.548,2.548,0,0,0-2.544,2.546v1.7h5.088v-1.7A2.548,2.548,0,0,0,5745.089,2751.007Z" transform="translate(-4056 -766.571)" fill="#ff8cba"/>
  </g>
</svg>
