<svg xmlns="http://www.w3.org/2000/svg" width="24" height="24" viewBox="0 0 24 24">
  <g id="office-file-pdf" transform="translate(0.001 0.002)">
    <path id="Pfad_382" data-name="Pfad 382" d="M4.5,20.248a.75.75,0,0,1-.75-.75V12a.75.75,0,0,1,.75-.75l.038,0H5.25a3,3,0,0,1,0,6h0V19.5A.75.75,0,0,1,4.5,20.248Zm.751-4.5a1.5,1.5,0,0,0,0-3h0v3Z" fill="#e30941"/>
    <path id="Pfad_383" data-name="Pfad 383" d="M10.5,20.25a.75.75,0,0,1-.75-.75V12a.75.75,0,0,1,.75-.75A3.754,3.754,0,0,1,14.25,15v1.5A3.754,3.754,0,0,1,10.5,20.25Zm.75-1.629a2.264,2.264,0,0,0,1.5-2.121V15a2.264,2.264,0,0,0-1.5-2.121Z" fill="#e30941"/>
    <path id="Pfad_384" data-name="Pfad 384" d="M16.5,20.25a.75.75,0,0,1-.75-.75V16.524a.338.338,0,0,1,0-.052V13.5A2.252,2.252,0,0,1,18,11.25h1.5a.75.75,0,0,1,0,1.5H18a.75.75,0,0,0-.75.75v2.248h1.5a.75.75,0,0,1,0,1.5h-1.5V19.5A.75.75,0,0,1,16.5,20.25Z" fill="#e30941"/>
    <path id="Pfad_385" data-name="Pfad 385" d="M3,24a3,3,0,0,1-3-3V3A3,3,0,0,1,3,0H17.377a2.237,2.237,0,0,1,1.591.658l4.371,4.372A2.238,2.238,0,0,1,24,6.618V21a3,3,0,0,1-3,3ZM3,1.5A1.5,1.5,0,0,0,1.5,3V21A1.5,1.5,0,0,0,3,22.5H21A1.5,1.5,0,0,0,22.5,21V7.5h-3.75a2.252,2.252,0,0,1-2.25-2.25V1.5H3Zm15,3.75a.75.75,0,0,0,.75.75h3.438L18,1.809Z" fill="#475759"/>
  </g>
</svg>
