<svg xmlns="http://www.w3.org/2000/svg" width="24" height="24" viewBox="0 0 24 24">
  <g id="office-file-xls" transform="translate(-0.003 0.002)">
    <path id="Pfad_394" data-name="Pfad 394" d="M7.5,20.248a.747.747,0,0,1-.7-.472L6,17.767l-.8,2.009a.75.75,0,1,1-1.392-.557L5.2,15.748,3.806,12.277A.75.75,0,1,1,5.2,11.72L6,13.729l.8-2.009a.747.747,0,0,1,.7-.471.75.75,0,0,1,.7,1.029L6.811,15.749,8.2,19.221a.75.75,0,0,1-.418.975A.78.78,0,0,1,7.5,20.248Z" fill="#098435"/>
    <path id="Pfad_395" data-name="Pfad 395" d="M12,20.25A2.252,2.252,0,0,1,9.75,18V12a.75.75,0,0,1,1.5,0v6a.75.75,0,0,0,.75.75h1.5a.75.75,0,0,1,0,1.5Z" fill="#098435"/>
    <path id="Pfad_396" data-name="Pfad 396" d="M16.5,20.25a.75.75,0,0,1,0-1.5H18a.75.75,0,0,0,.75-.75c0-.715-.434-1.075-1.2-1.65a3.473,3.473,0,0,1-1.8-2.85A2.252,2.252,0,0,1,18,11.25h1.5a.75.75,0,0,1,0,1.5H18a.75.75,0,0,0-.75.75c0,.715.434,1.075,1.2,1.65A3.473,3.473,0,0,1,20.25,18,2.252,2.252,0,0,1,18,20.25Z" fill="#098435"/>
    <path id="Pfad_397" data-name="Pfad 397" d="M3,24a3.005,3.005,0,0,1-3-3V3A3,3,0,0,1,3,0H17.382a2.236,2.236,0,0,1,1.59.658l4.372,4.372A2.235,2.235,0,0,1,24,6.618V21a3,3,0,0,1-3,3ZM3,1.5A1.5,1.5,0,0,0,1.5,3V21A1.5,1.5,0,0,0,3,22.5H21A1.5,1.5,0,0,0,22.5,21V7.5h-3.75a2.252,2.252,0,0,1-2.25-2.25V1.5H3Zm15,3.75a.75.75,0,0,0,.75.75h3.439L18,1.809V5.248Z" fill="#475759"/>
  </g>
</svg>
