<svg id="pencil-write" xmlns="http://www.w3.org/2000/svg" width="20.504" height="20.506" viewBox="0 0 20.504 20.506">
  <path id="Pfad_8" data-name="Pfad 8" d="M9.222,13.174a.635.635,0,0,1-.453-.188.644.644,0,0,1-.181-.543l.453-3.172a.644.644,0,0,1,.181-.362L17.378.752A2.563,2.563,0,1,1,21,4.377l-8.156,8.156a.644.644,0,0,1-.361.181l-3.172.454A.847.847,0,0,1,9.222,13.174Zm.755-1.4,2.115-.3L18.737,4.83,16.924,3.018,10.279,9.664Zm9.666-7.855L20.1,3.47a1.281,1.281,0,0,0-1.813-1.811l-.454.454Z" transform="translate(-1.248 -0.002)" fill="#293233"/>
  <path id="Pfad_9" data-name="Pfad 9" d="M1.92,21.163A1.924,1.924,0,0,1,0,19.241V6.424A1.924,1.924,0,0,1,1.92,4.5H8.328a.641.641,0,0,1,0,1.282H1.92a.641.641,0,0,0-.641.641V19.241a.641.641,0,0,0,.641.641H14.737a.641.641,0,0,0,.641-.641V12.832a.641.641,0,0,1,1.282,0v6.408a1.924,1.924,0,0,1-1.922,1.922Z" transform="translate(0.002 -0.657)" fill="#293233"/>
</svg>
