<svg xmlns="http://www.w3.org/2000/svg" width="24.003" height="23.995" viewBox="0 0 24.003 23.995">
  <g id="rating-star-subtract" transform="translate(0.003 -0.004)">
    <path id="Pfad_433" data-name="Pfad 433" d="M17.25,24A6.75,6.75,0,1,1,24,17.249,6.758,6.758,0,0,1,17.25,24Zm0-12a5.25,5.25,0,1,0,5.25,5.25A5.256,5.256,0,0,0,17.25,12Z" fill="#475759"/>
    <path id="Pfad_434" data-name="Pfad 434" d="M14.25,18a.75.75,0,0,1,0-1.5h6a.75.75,0,0,1,0,1.5Z" fill="#475759"/>
    <path id="Pfad_435" data-name="Pfad 435" d="M5.115,24a1.6,1.6,0,0,1-.4-.052A1.563,1.563,0,0,1,3.6,22.035l1.842-6.722L.457,10.369A1.556,1.556,0,0,1,0,9.393,1.555,1.555,0,0,1,1.423,7.715l6.018-.6L10.6.862A1.573,1.573,0,0,1,12,0a1.593,1.593,0,0,1,.483.076A1.56,1.56,0,0,1,13.4.858l3.157,6.261,6.03.6a1.556,1.556,0,0,1,.955,2.654l-.279.276A.75.75,0,1,1,22.205,9.58l.278-.275a.053.053,0,0,0,.016-.039.052.052,0,0,0-.016-.038.057.057,0,0,0-.035-.016L16,8.573a.747.747,0,0,1-.6-.409L12.06,1.539a.069.069,0,0,0-.038-.03H12a.052.052,0,0,0-.029.006.067.067,0,0,0-.03.03L8.594,8.163a.745.745,0,0,1-.6.408l-6.44.638a.063.063,0,0,0-.05.02.054.054,0,0,0-.013.04.057.057,0,0,0,.016.035l5.3,5.253a.749.749,0,0,1,.2.731L5.051,22.426a.057.057,0,0,0,.008.042A.059.059,0,0,0,5.1,22.5h.017a.051.051,0,0,0,.028-.006l3.741-1.853a.75.75,0,0,1,1.005.339.75.75,0,0,1-.34,1L5.811,23.834A1.537,1.537,0,0,1,5.115,24Z" fill="#475759"/>
  </g>
</svg>
