<svg id="robot-head" xmlns="http://www.w3.org/2000/svg" width="104.142" height="111.084" viewBox="0 0 104.142 111.084">
  <path id="Pfad_200" data-name="Pfad 200" d="M16.422,29.078A10.414,10.414,0,1,1,26.836,18.664,10.424,10.424,0,0,1,16.422,29.078Zm0-13.886a3.471,3.471,0,1,0,3.471,3.471A3.473,3.473,0,0,0,16.422,15.193Z" transform="translate(21.8 29.935)" fill="#00b340"/>
  <path id="Pfad_201" data-name="Pfad 201" d="M22.422,29.078A10.414,10.414,0,1,1,32.836,18.664,10.424,10.424,0,0,1,22.422,29.078Zm0-13.886a3.471,3.471,0,1,0,3.471,3.471A3.473,3.473,0,0,0,22.422,15.193Z" transform="translate(43.571 29.935)" fill="#00b340"/>
  <path id="Pfad_202" data-name="Pfad 202" d="M52.108,111.084c-11.284,0-20.347-3.555-26.933-10.562-8.216-8.743-10.493-20.736-11.09-27.933A17.356,17.356,0,0,1,14.052,38.5,17.327,17.327,0,0,1,26.531,23.814,27.905,27.905,0,0,1,48.636,7.156V3.471a3.471,3.471,0,0,1,6.943,0V7.165A27.734,27.734,0,0,1,77.6,23.791,17.358,17.358,0,0,1,90.14,38.43c0,.028,0,.06.009.088a17.353,17.353,0,0,1-.014,34.052c-.592,7.2-2.874,19.2-11.095,27.952C72.459,107.529,63.4,111.084,52.108,111.084ZM21.12,72.9c.634,6.239,2.685,16.033,9.127,22.879,5.221,5.55,12.576,8.364,21.865,8.364s16.639-2.814,21.86-8.364c6.448-6.855,8.5-16.644,9.132-22.879Zm62.23-6.943-.023-24.05a2.084,2.084,0,0,1-.014-.25c0-.056,0-.157.014-.241v-.981a10.805,10.805,0,0,0-.074-1.166,10.447,10.447,0,0,0-10.345-9.2,10.832,10.832,0,0,0-1.282.079A181.49,181.49,0,0,1,52.08,31.205a182.549,182.549,0,0,1-19.5-1.051,10.214,10.214,0,0,0-1.227-.079l-.046-1.736v1.736a10.446,10.446,0,0,0-10.447,10.4v25.48ZM13.923,45.725a10.391,10.391,0,0,0,.009,19.634Zm76.37,19.606a10.39,10.39,0,0,0-.019-19.583Zm-55.7-41.948a174.571,174.571,0,0,0,17.486.879,174.825,174.825,0,0,0,17.482-.879,20.836,20.836,0,0,0-34.968,0Z" fill="#475759"/>
  <circle id="Ellipse_28" data-name="Ellipse 28" cx="4.629" cy="4.629" r="4.629" transform="translate(33.557 82.156)" fill="#00b340"/>
  <circle id="Ellipse_29" data-name="Ellipse 29" cx="4.629" cy="4.629" r="4.629" transform="translate(47.442 82.156)" fill="#00b340"/>
  <circle id="Ellipse_30" data-name="Ellipse 30" cx="4.629" cy="4.629" r="4.629" transform="translate(61.328 82.156)" fill="#00b340"/>
</svg>
