<svg xmlns="http://www.w3.org/2000/svg" width="60.526" height="62.321" viewBox="0 0 60.526 62.321">
  <g id="send-email-big" transform="translate(-0.345 0.002)" opacity="0.706">
    <path id="Pfad_310" data-name="Pfad 310" d="M45.256,62.319a6.285,6.285,0,0,1-5.016-2.506l-3.9-5.2-6.717,4.578a6.266,6.266,0,0,1-9.794-5.177V42.534H6.613A6.267,6.267,0,0,1,3.292,30.951l47.991-30A6.264,6.264,0,0,1,60.76,7.429L51.413,57.206A6.268,6.268,0,0,1,45.256,62.319Zm-1.9-4.842a2.36,2.36,0,0,0,1.459.906,2.455,2.455,0,0,0,.436.039,2.374,2.374,0,0,0,2.334-1.934l9.347-49.78a2.357,2.357,0,0,0,.031-.688L30.708,40.591ZM23.726,54.013a2.371,2.371,0,0,0,3.708,1.958L34,51.491,27.3,42.531h-3.57ZM53.347,4.254l-47.991,30a2.374,2.374,0,0,0,1.259,4.385H27.3L53.469,4.181C53.43,4.2,53.389,4.228,53.347,4.254Z" transform="translate(0 0)" fill="#221f6d"/>
  </g>
</svg>
