<svg id="single-neutral-actions-text" xmlns="http://www.w3.org/2000/svg" width="24" height="24" viewBox="0 0 24 24">
  <path id="Pfad_554" data-name="Pfad 554" d="M7.5,9.75a4.875,4.875,0,1,1,4.875-4.875A4.881,4.881,0,0,1,7.5,9.75Zm0-8.25a3.375,3.375,0,1,0,3.375,3.375A3.379,3.379,0,0,0,7.5,1.5Z" fill="#475759"/>
  <path id="Pfad_555" data-name="Pfad 555" d="M.75,18A.75.75,0,0,1,0,17.25a7.509,7.509,0,0,1,7.5-7.5,7.17,7.17,0,0,1,.851.065.75.75,0,0,1-.1,1.493h0a.659.659,0,0,1-.1-.007,5.956,5.956,0,0,0-.664-.052,6,6,0,0,0-5.986,6A.75.75,0,0,1,.75,18Z" fill="#475759"/>
  <path id="Pfad_556" data-name="Pfad 556" d="M12.75,24a2.252,2.252,0,0,1-2.25-2.25v-9a2.252,2.252,0,0,1,2.25-2.25h9A2.252,2.252,0,0,1,24,12.75v9A2.252,2.252,0,0,1,21.75,24Zm0-12a.75.75,0,0,0-.75.75v9a.75.75,0,0,0,.75.75h9a.75.75,0,0,0,.75-.75v-9a.75.75,0,0,0-.75-.75Z" fill="#475759"/>
  <path id="Pfad_557" data-name="Pfad 557" d="M14.25,15a.75.75,0,0,1,0-1.5h6a.75.75,0,0,1,0,1.5Z" fill="#475759"/>
  <path id="Pfad_558" data-name="Pfad 558" d="M14.25,18a.75.75,0,0,1,0-1.5h6a.75.75,0,0,1,0,1.5Z" fill="#475759"/>
  <path id="Pfad_559" data-name="Pfad 559" d="M14.25,21a.75.75,0,0,1,0-1.5H16.5a.75.75,0,0,1,0,1.5Z" fill="#475759"/>
</svg>
