<svg xmlns="http://www.w3.org/2000/svg" width="42.67" height="48.77" viewBox="0 0 42.67 48.77">
  <g id="streamline-icon-folder-file_24x24" data-name="streamline-icon-folder-file@24x24" transform="translate(1 1)">
    <path id="Pfad_598" data-name="Pfad 598" d="M17,.58V8.551a2.034,2.034,0,0,0,2.033,2.033H27" transform="translate(13.502 -0.417)" fill="none" stroke="#0096fa" stroke-linecap="round" stroke-linejoin="round" stroke-width="2"/>
    <path id="Pfad_599" data-name="Pfad 599" d="M5,24.9V2.533A2.034,2.034,0,0,1,7.033.5H28.56A2.028,2.028,0,0,1,30,1.1l8.976,8.976a2.028,2.028,0,0,1,.6,1.438V41.17A2.034,2.034,0,0,1,37.536,43.2H27.368" transform="translate(1.1 -0.5)" fill="none" stroke="#0096fa" stroke-linecap="round" stroke-linejoin="round" stroke-width="2"/>
    <path id="Pfad_600" data-name="Pfad 600" d="M8,5.5H21.218" transform="translate(4.201 4.667)" fill="none" stroke="#0096fa" stroke-linecap="round" stroke-linejoin="round" stroke-width="2"/>
    <path id="Pfad_601" data-name="Pfad 601" d="M8,5.5H21.218" transform="translate(4.201 4.667)" fill="none" stroke="#0096fa" stroke-linecap="round" stroke-linejoin="round" stroke-width="2"/>
    <path id="Pfad_602" data-name="Pfad 602" d="M8,8.5H23.251" transform="translate(4.201 7.768)" fill="none" stroke="#0096fa" stroke-linecap="round" stroke-linejoin="round" stroke-width="2"/>
    <path id="Pfad_603" data-name="Pfad 603" d="M8,11.5H29.352" transform="translate(4.201 10.868)" fill="none" stroke="#0096fa" stroke-linecap="round" stroke-linejoin="round" stroke-width="2"/>
    <path id="Pfad_604" data-name="Pfad 604" d="M28.435,16.567H14.2a2.032,2.032,0,0,1-1.627-.813l-1.83-2.44A2.032,2.032,0,0,0,9.117,12.5H4.033A2.034,2.034,0,0,0,2,14.533v18.3a2.034,2.034,0,0,0,2.033,2.033h24.4a2.034,2.034,0,0,0,2.033-2.033V18.6A2.034,2.034,0,0,0,28.435,16.567Z" transform="translate(-2 11.902)" fill="none" stroke="#0096fa" stroke-linecap="round" stroke-linejoin="round" stroke-width="2"/>
  </g>
</svg>
