<svg xmlns="http://www.w3.org/2000/svg" width="49.017" height="48.77" viewBox="0 0 49.017 48.77">
  <g id="streamline-icon-task-list-edit_24x24" data-name="streamline-icon-task-list-edit@24x24" transform="translate(1 1)">
    <path id="Pfad_615" data-name="Pfad 615" d="M37.1,26.935V43.2a4.066,4.066,0,0,1-4.067,4.067H4.567A4.066,4.066,0,0,1,.5,43.2V4.567A4.066,4.066,0,0,1,4.567.5H33.036A4.066,4.066,0,0,1,37.1,4.567V6.6" transform="translate(-0.5 -0.5)" fill="none" stroke="#0096fa" stroke-linecap="round" stroke-linejoin="round" stroke-width="2"/>
    <path id="Pfad_616" data-name="Pfad 616" d="M30.969,28.935V39.1a2.034,2.034,0,0,1-2.033,2.033H4.533A2.034,2.034,0,0,1,2.5,39.1V4.533A2.034,2.034,0,0,1,4.533,2.5H8.6" transform="translate(1.567 1.567)" fill="none" stroke="#0096fa" stroke-linecap="round" stroke-linejoin="round" stroke-width="2"/>
    <path id="Pfad_617" data-name="Pfad 617" d="M13.5,2.5h4.067A2.034,2.034,0,0,1,19.6,4.533V8.6" transform="translate(12.935 1.567)" fill="none" stroke="#0096fa" stroke-linecap="round" stroke-linejoin="round" stroke-width="2"/>
    <path id="Pfad_618" data-name="Pfad 618" d="M12.878,33.668,8.565,29.355,33.727,4.19a3.051,3.051,0,0,1,4.315,4.315Z" transform="translate(7.835 2.39)" fill="none" stroke="#0096fa" stroke-linecap="round" stroke-linejoin="round" stroke-width="2"/>
    <path id="Pfad_619" data-name="Pfad 619" d="M19.879,4.8,24.192,9.11" transform="translate(19.528 3.941)" fill="none" stroke="#0096fa" stroke-linecap="round" stroke-linejoin="round" stroke-width="2"/>
    <path id="Pfad_620" data-name="Pfad 620" d="M9.875,16.111,7.3,23l6.892-2.578Z" transform="translate(6.525 15.634)" fill="none" stroke="#0096fa" stroke-linecap="round" stroke-linejoin="round" stroke-width="2"/>
    <path id="Pfad_621" data-name="Pfad 621" d="M4.5,12.533l.744,1.489a.985.985,0,0,0,1.32.443.932.932,0,0,0,.258-.187L10.6,10.5" transform="translate(3.634 9.835)" fill="none" stroke="#0096fa" stroke-linecap="round" stroke-linejoin="round" stroke-width="2"/>
    <path id="Pfad_622" data-name="Pfad 622" d="M9.5,11.5h2.033" transform="translate(8.801 10.868)" fill="none" stroke="#0096fa" stroke-linecap="round" stroke-linejoin="round" stroke-width="2"/>
    <path id="Pfad_623" data-name="Pfad 623" d="M5.5.5H21.768V4.567A2.034,2.034,0,0,1,19.734,6.6H7.533A2.034,2.034,0,0,1,5.5,4.567V.5Z" transform="translate(4.667 -0.5)" fill="none" stroke="#0096fa" stroke-linecap="round" stroke-linejoin="round" stroke-width="2"/>
    <path id="Pfad_624" data-name="Pfad 624" d="M4.5,8.533l.744,1.489a.985.985,0,0,0,1.32.443.932.932,0,0,0,.258-.187L10.6,6.5" transform="translate(3.634 5.701)" fill="none" stroke="#0096fa" stroke-linecap="round" stroke-linejoin="round" stroke-width="2"/>
    <path id="Pfad_625" data-name="Pfad 625" d="M9.5,7.5h8.134" transform="translate(8.801 6.734)" fill="none" stroke="#0096fa" stroke-linecap="round" stroke-linejoin="round" stroke-width="2"/>
  </g>
</svg>
