<svg xmlns="http://www.w3.org/2000/svg" width="46.737" height="46.737" viewBox="0 0 46.737 46.737">
  <g id="streamline-icon-calendar-1_24x24" data-name="streamline-icon-calendar-1@24x24" transform="translate(1 1)">
    <path id="Pfad_582" data-name="Pfad 582" d="M2.533,3.5H43.2a2.034,2.034,0,0,1,2.033,2.033v36.6A2.034,2.034,0,0,1,43.2,44.171H2.533A2.034,2.034,0,0,1,.5,42.137V5.534A2.034,2.034,0,0,1,2.533,3.5Z" transform="translate(-0.5 0.566)" fill="none" stroke="#0096fa" stroke-linecap="round" stroke-linejoin="round" stroke-width="2"/>
    <path id="Pfad_583" data-name="Pfad 583" d="M3.5,1.5V7.6" transform="translate(2.6 -1.501)" fill="none" stroke="#0096fa" stroke-linecap="round" stroke-linejoin="round" stroke-width="2"/>
    <path id="Pfad_584" data-name="Pfad 584" d="M7.5,1.5V7.6" transform="translate(6.734 -1.501)" fill="none" stroke="#0096fa" stroke-linecap="round" stroke-linejoin="round" stroke-width="2"/>
    <path id="Pfad_585" data-name="Pfad 585" d="M11.5,1.5V7.6" transform="translate(10.868 -1.501)" fill="none" stroke="#0096fa" stroke-linecap="round" stroke-linejoin="round" stroke-width="2"/>
    <path id="Pfad_586" data-name="Pfad 586" d="M15.5,1.5V7.6" transform="translate(15.002 -1.501)" fill="none" stroke="#0096fa" stroke-linecap="round" stroke-linejoin="round" stroke-width="2"/>
    <path id="Pfad_587" data-name="Pfad 587" d="M19.5,1.5V7.6" transform="translate(19.136 -1.501)" fill="none" stroke="#0096fa" stroke-linecap="round" stroke-linejoin="round" stroke-width="2"/>
    <path id="Pfad_588" data-name="Pfad 588" d="M13.533,8.5h6.1v8.134H11.5v-6.1A2.034,2.034,0,0,1,13.533,8.5Z" transform="translate(10.868 5.732)" fill="none" stroke="#0096fa" stroke-linecap="round" stroke-linejoin="round" stroke-width="2"/>
    <path id="Pfad_589" data-name="Pfad 589" d="M15.5,8.5h6.1a2.034,2.034,0,0,1,2.033,2.033v6.1H15.5V8.5Z" transform="translate(15.002 5.732)" fill="none" stroke="#0096fa" stroke-linecap="round" stroke-linejoin="round" stroke-width="2"/>
    <path id="Pfad_590" data-name="Pfad 590" d="M11.5,12.5h8.134v8.134H11.5Z" transform="translate(10.868 9.867)" fill="none" stroke="#0096fa" stroke-linecap="round" stroke-linejoin="round" stroke-width="2"/>
    <path id="Pfad_591" data-name="Pfad 591" d="M15.5,12.5h8.134v8.134H15.5Z" transform="translate(15.002 9.867)" fill="none" stroke="#0096fa" stroke-linecap="round" stroke-linejoin="round" stroke-width="2"/>
    <path id="Pfad_592" data-name="Pfad 592" d="M11.5,16.5h8.134v8.134H11.5Z" transform="translate(10.868 14.001)" fill="none" stroke="#0096fa" stroke-linecap="round" stroke-linejoin="round" stroke-width="2"/>
    <path id="Pfad_593" data-name="Pfad 593" d="M15.5,16.5h8.134v6.1A2.034,2.034,0,0,1,21.6,24.634H15.5V16.5Z" transform="translate(15.002 14)" fill="none" stroke="#0096fa" stroke-linecap="round" stroke-linejoin="round" stroke-width="2"/>
    <path id="Pfad_594" data-name="Pfad 594" d="M5.533,12.5h6.1v8.134H3.5v-6.1A2.034,2.034,0,0,1,5.533,12.5Z" transform="translate(2.6 9.866)" fill="none" stroke="#0096fa" stroke-linecap="round" stroke-linejoin="round" stroke-width="2"/>
    <path id="Pfad_595" data-name="Pfad 595" d="M7.5,12.5h8.134v8.134H7.5Z" transform="translate(6.734 9.867)" fill="none" stroke="#0096fa" stroke-linecap="round" stroke-linejoin="round" stroke-width="2"/>
    <path id="Pfad_596" data-name="Pfad 596" d="M3.5,16.5h8.134v8.134h-6.1A2.034,2.034,0,0,1,3.5,22.6V16.5Z" transform="translate(2.6 14)" fill="none" stroke="#0096fa" stroke-linecap="round" stroke-linejoin="round" stroke-width="2"/>
    <path id="Pfad_597" data-name="Pfad 597" d="M7.5,16.5h8.134v8.134H7.5Z" transform="translate(6.734 14.001)" fill="none" stroke="#0096fa" stroke-linecap="round" stroke-linejoin="round" stroke-width="2"/>
  </g>
</svg>
