<svg xmlns="http://www.w3.org/2000/svg" width="23.993" height="24.002" viewBox="0 0 23.993 24.002">
  <g id="task-list-settings" transform="translate(0 -0.012)">
    <path id="Pfad_446" data-name="Pfad 446" d="M17.25,18.762a2.25,2.25,0,1,1,2.25-2.25A2.252,2.252,0,0,1,17.25,18.762Zm0-3a.75.75,0,1,0,.75.75A.75.75,0,0,0,17.25,15.762Z" fill="#475759"/>
    <path id="Pfad_447" data-name="Pfad 447" d="M17.252,24.014a2.087,2.087,0,0,1-2-1.484l-.441-1.45a.248.248,0,0,0-.235-.175.233.233,0,0,0-.053.006l-1.471.341a2.089,2.089,0,0,1-1.992-3.464l1.028-1.108a.251.251,0,0,0,0-.341l-1.031-1.111a2.088,2.088,0,0,1,1.532-3.508,2.123,2.123,0,0,1,.456.05l1.478.342a.231.231,0,0,0,.052.006.247.247,0,0,0,.234-.174l.443-1.454a2.079,2.079,0,0,1,3.982,0l.442,1.451a.247.247,0,0,0,.29.168l1.469-.341a2.133,2.133,0,0,1,.468-.053,2.09,2.09,0,0,1,1.526,3.513L22.4,16.342a.251.251,0,0,0,0,.341l1.031,1.108A2.089,2.089,0,0,1,21.906,21.3h0a2.034,2.034,0,0,1-.46-.052l-1.475-.339a.231.231,0,0,0-.052-.006.247.247,0,0,0-.236.173l-.443,1.454a2.06,2.06,0,0,1-1,1.231A2.085,2.085,0,0,1,17.252,24.014ZM14.58,19.406a1.757,1.757,0,0,1,1.671,1.239l.442,1.452a.581.581,0,0,0,.39.392.6.6,0,0,0,.168.025A.581.581,0,0,0,17.8,22.1l.443-1.456a1.744,1.744,0,0,1,2.058-1.194l1.472.338a.579.579,0,0,0,.126.014.589.589,0,0,0,.432-.99L21.3,17.7a1.755,1.755,0,0,1,0-2.383l1.031-1.111a.588.588,0,0,0-.431-.99.639.639,0,0,0-.13.014l-1.467.34a1.715,1.715,0,0,1-.39.044,1.756,1.756,0,0,1-1.671-1.239L17.8,10.924a.577.577,0,0,0-.389-.389.605.605,0,0,0-.168-.025.558.558,0,0,0-.273.07.58.58,0,0,0-.281.344L16.25,12.38a1.745,1.745,0,0,1-2.059,1.194l-1.473-.342a.537.537,0,0,0-.122-.013.589.589,0,0,0-.432.989l1.03,1.11a1.757,1.757,0,0,1,0,2.383l-1.031,1.111a.589.589,0,0,0,.428.994.579.579,0,0,0,.131-.015l1.469-.34A1.708,1.708,0,0,1,14.58,19.406Z" fill="#475759"/>
    <path id="Pfad_448" data-name="Pfad 448" d="M5.25,11.262a.75.75,0,0,1,0-1.5h4.5a.75.75,0,0,1,0,1.5Z" fill="#475759"/>
    <path id="Pfad_449" data-name="Pfad 449" d="M5.25,15.012a.75.75,0,0,1,0-1.5H7.5a.75.75,0,0,1,0,1.5Z" fill="#475759"/>
    <path id="Pfad_450" data-name="Pfad 450" d="M5.25,18.762a.75.75,0,0,1,0-1.5H7.5a.75.75,0,0,1,0,1.5Z" fill="#475759"/>
    <path id="Pfad_451" data-name="Pfad 451" d="M2.25,24.012A2.252,2.252,0,0,1,0,21.762V6.012a2.252,2.252,0,0,1,2.25-2.25H5.313a4.5,4.5,0,0,1,8.874,0H17.25a2.252,2.252,0,0,1,2.25,2.25v.75a.75.75,0,0,1-1.5,0v-.75a.75.75,0,0,0-.75-.75H13.5a.75.75,0,0,1-.75-.75,3,3,0,0,0-6,0,.75.75,0,0,1-.75.75H2.25a.75.75,0,0,0-.75.75v15.75a.75.75,0,0,0,.75.75h7.5a.75.75,0,0,1,0,1.5H2.25Z" fill="#475759"/>
    <circle id="Ellipse_80" data-name="Ellipse 80" cx="1.125" cy="1.125" r="1.125" transform="translate(8.625 3.012)" fill="#475759"/>
  </g>
</svg>
