<svg xmlns="http://www.w3.org/2000/svg" width="23.997" height="24" viewBox="0 0 23.997 24">
  <g id="task-list-edit" transform="translate(0.006 -0.011)">
    <path id="Pfad_543" data-name="Pfad 543" d="M2.244,24.011a2.252,2.252,0,0,1-2.25-2.25V2.261A2.252,2.252,0,0,1,2.244.011H12.873a2.231,2.231,0,0,1,1.59.659l5.872,5.872a2.235,2.235,0,0,1,.659,1.59v.129a.75.75,0,0,1-.75.75h-6a2.252,2.252,0,0,1-2.25-2.25V1.511H2.244a.75.75,0,0,0-.75.75v19.5a.75.75,0,0,0,.75.75h6a.75.75,0,0,1,0,1.5Zm11.25-17.25a.75.75,0,0,0,.75.75h4.939L13.494,1.822Z" fill="#0096fa"/>
    <path id="Pfad_544" data-name="Pfad 544" d="M5.43,13.51a1.486,1.486,0,0,1-.9-.3,1.518,1.518,0,0,1-.16-.139L3.215,11.916a.75.75,0,1,1,1.06-1.06l1.157,1.156L7.564,9.171a.753.753,0,0,1,.6-.3.75.75,0,0,1,.6,1.2L6.631,12.914A1.516,1.516,0,0,1,5.43,13.51Z" fill="#0096fa"/>
    <path id="Pfad_545" data-name="Pfad 545" d="M5.43,20.26a1.486,1.486,0,0,1-.9-.3,1.518,1.518,0,0,1-.16-.139L3.215,18.665a.75.75,0,0,1,.53-1.28h0a.743.743,0,0,1,.53.22l1.157,1.157L7.564,15.92a.753.753,0,0,1,.6-.3.742.742,0,0,1,.449.15.751.751,0,0,1,.15,1.05L6.631,19.662A1.512,1.512,0,0,1,5.43,20.26Z" fill="#0096fa"/>
    <path id="Pfad_546" data-name="Pfad 546" d="M11.244,13.511a.75.75,0,1,1,0-1.5h3.75a.75.75,0,0,1,0,1.5Z" fill="#0096fa"/>
    <path id="Pfad_547" data-name="Pfad 547" d="M11.244,24.011a.75.75,0,0,1-.735-.9l.75-3.75a.748.748,0,0,1,.2-.384L19.1,11.349a2.866,2.866,0,0,1,4.052,0,2.875,2.875,0,0,1,.009,4.061l-7.631,7.631a.744.744,0,0,1-.384.2L11.392,24A.751.751,0,0,1,11.244,24.011Zm.956-1.706,2.424-.485,7.47-7.47a1.372,1.372,0,0,0-.978-2.337,1.35,1.35,0,0,0-.962.4l-7.47,7.47Z" fill="#0096fa"/>
  </g>
</svg>
