<svg xmlns="http://www.w3.org/2000/svg" width="23.998" height="24" viewBox="0 0 23.998 24">
  <g id="task-checklist-check" transform="translate(-0.002 0.001)">
    <path id="Pfad_489" data-name="Pfad 489" d="M2.252,24A2.252,2.252,0,0,1,0,21.749V5.249A2.252,2.252,0,0,1,2.252,3H5.211L4.87,1.973a1.5,1.5,0,0,1,.945-1.9A1.539,1.539,0,0,1,6.293,0h8.419a1.5,1.5,0,0,1,1.423,1.974L15.793,3h2.959A2.252,2.252,0,0,1,21,5.249V9a.75.75,0,0,1-1.5,0V5.249a.75.75,0,0,0-.75-.75H15.293l-.158.474A1.5,1.5,0,0,1,13.714,6H7.294A1.5,1.5,0,0,1,5.871,4.974L5.711,4.5H2.252a.75.75,0,0,0-.75.75v16.5a.75.75,0,0,0,.75.75H10.5a.75.75,0,0,1,0,1.5ZM6.29,1.5l1,3h6.42l1-3H6.29Z" fill="#0096fa"/>
    <path id="Pfad_490" data-name="Pfad 490" d="M4.5,21A1.5,1.5,0,0,1,3,19.5V6.749a.75.75,0,0,1,1.5,0V19.5H8.252a.75.75,0,0,1,0,1.5Z" fill="#0096fa"/>
    <path id="Pfad_491" data-name="Pfad 491" d="M17.252,9a.75.75,0,0,1-.75-.75v-1.5a.75.75,0,0,1,1.5,0v1.5A.75.75,0,0,1,17.252,9Z" fill="#0096fa"/>
    <path id="Pfad_492" data-name="Pfad 492" d="M17.25,24A6.75,6.75,0,1,1,24,17.249,6.758,6.758,0,0,1,17.25,24Zm0-12a5.25,5.25,0,1,0,5.25,5.25A5.256,5.256,0,0,0,17.25,12Z" fill="#0096fa"/>
    <path id="Pfad_493" data-name="Pfad 493" d="M16.417,20.423a1.489,1.489,0,0,1-.9-.3,1.458,1.458,0,0,1-.157-.136l-1.5-1.5a.75.75,0,1,1,1.06-1.06l1.5,1.5,2.906-3.874a.75.75,0,1,1,1.2.9l-2.905,3.874A1.507,1.507,0,0,1,16.417,20.423Z" fill="#0096fa"/>
    <path id="Pfad_494" data-name="Pfad 494" d="M6.752,10.5a.75.75,0,0,1,0-1.5h4.5a.75.75,0,0,1,0,1.5Z" fill="#0096fa"/>
    <path id="Pfad_495" data-name="Pfad 495" d="M6.752,15a.75.75,0,0,1,0-1.5h1.5a.75.75,0,0,1,.75.75C9,14.663,6.752,15,6.752,15Z" fill="#0096fa"/>
  </g>
</svg>
