<svg id="bin-1" xmlns="http://www.w3.org/2000/svg" width="20.506" height="20.506" viewBox="0 0 20.506 20.506">
  <path id="Pfad_76" data-name="Pfad 76" d="M6.11,21.256a2.062,2.062,0,0,1-2.043-1.881L2.855,4.851H1.434a.684.684,0,1,1,0-1.367H6.9V2.8A2.053,2.053,0,0,1,8.952.75h4.1A2.053,2.053,0,0,1,15.1,2.8v.684h5.468a.684.684,0,1,1,0,1.367H19.151L17.94,19.376a2.062,2.062,0,0,1-2.043,1.88Zm-.682-1.994a.687.687,0,0,0,.682.627H15.9a.686.686,0,0,0,.681-.627l1.2-14.411H4.227ZM13.737,3.484V2.8a.684.684,0,0,0-.684-.684h-4.1a.684.684,0,0,0-.684.684v.684Z" transform="translate(-0.75 -0.75)" fill="#293233"/>
  <path id="Pfad_77" data-name="Pfad 77" d="M9.684,17.2A.684.684,0,0,1,9,16.519V9.684a.684.684,0,0,1,1.367,0v6.835A.684.684,0,0,1,9.684,17.2Z" transform="translate(-1.481 -1.481)" fill="#293233"/>
  <path id="Pfad_78" data-name="Pfad 78" d="M14.184,17.2a.684.684,0,0,1-.684-.684V9.684a.684.684,0,1,1,1.367,0v6.835A.684.684,0,0,1,14.184,17.2Z" transform="translate(-1.88 -1.481)" fill="#293233"/>
</svg>
