<svg id="upload-menu2" xmlns="http://www.w3.org/2000/svg" width="20.506" height="20.506" viewBox="0 0 20.506 20.506">
  <path id="Pfad_86" data-name="Pfad 86" d="M11.345,22.362a.641.641,0,0,1-.641-.641V14.938l-2.11,2.11a.641.641,0,0,1-.906-.907l3.2-3.2a.652.652,0,0,1,.21-.14l.023-.009a.63.63,0,0,1,.443,0l.019.007a.626.626,0,0,1,.213.141l3.2,3.2a.643.643,0,0,1,0,.907.638.638,0,0,1-.907,0l-2.11-2.11V21.72A.641.641,0,0,1,11.345,22.362Z" transform="translate(-1.092 -1.856)" fill="#293233"/>
  <path id="Pfad_87" data-name="Pfad 87" d="M.641,1.282A.641.641,0,1,1,.641,0H19.865a.641.641,0,1,1,0,1.282Z" fill="#293233"/>
  <path id="Pfad_88" data-name="Pfad 88" d="M.641,5.782a.641.641,0,1,1,0-1.282H19.865a.641.641,0,1,1,0,1.282Z" transform="translate(0 -0.655)" fill="#293233"/>
  <path id="Pfad_89" data-name="Pfad 89" d="M.641,10.282A.641.641,0,1,1,.641,9H19.865a.641.641,0,1,1,0,1.282Z" transform="translate(0 -1.31)" fill="#293233"/>
</svg>
