<svg xmlns="http://www.w3.org/2000/svg" width="24" height="24" viewBox="0 0 24 24">
  <g id="xml-1" transform="translate(0 -0.004)">
    <path id="Pfad_398" data-name="Pfad 398" d="M2.25,24A2.252,2.252,0,0,1,0,21.754V2.254A2.252,2.252,0,0,1,2.25,0h19.5A2.252,2.252,0,0,1,24,2.254v19.5A2.252,2.252,0,0,1,21.75,24Zm0-22.5a.75.75,0,0,0-.75.75v19.5a.75.75,0,0,0,.75.75h19.5a.75.75,0,0,0,.75-.75V2.254a.75.75,0,0,0-.75-.75H2.25Z" fill="#475759"/>
    <path id="Pfad_399" data-name="Pfad 399" d="M7.5,18.754a.747.747,0,0,1-.7-.472L6,16.273l-.8,2.009A.75.75,0,1,1,3.8,17.725l1.389-3.471L3.8,10.783a.75.75,0,0,1,.418-.975A.732.732,0,0,1,4.5,9.754a.746.746,0,0,1,.7.471l.8,2.01.8-2.009a.75.75,0,1,1,1.392.557L6.807,14.254,8.2,17.726a.75.75,0,0,1-.7,1.028Z" fill="#2bc9d8"/>
    <path id="Pfad_400" data-name="Pfad 400" d="M19.5,18.75a2.252,2.252,0,0,1-2.25-2.25v-6a.75.75,0,0,1,1.5,0v6a.75.75,0,0,0,.75.75H21a.75.75,0,0,1,0,1.5Z" fill="#2bc9d8"/>
    <path id="Pfad_401" data-name="Pfad 401" d="M15,18.754a.75.75,0,0,1-.75-.75V13.212l-.857,1.428a.749.749,0,0,1-1.286,0l-.857-1.428V18a.75.75,0,0,1-1.5,0V10.5a.75.75,0,0,1,1.393-.386L12.75,12.8l1.607-2.678A.754.754,0,0,1,15,9.754a.75.75,0,0,1,.75.75V18A.751.751,0,0,1,15,18.754Z" fill="#2bc9d8"/>
  </g>
</svg>
